<svg xmlns="http://www.w3.org/2000/svg" viewBox="0 0 750 500"><g id="freepik--background-simple--inject-13"><path d="M541.29,121.69l-1.85-3.06c-15.64-25.76-43.9-41.29-73.7-39.4a77,77,0,0,0-11.4,1.57c-27.1,5.79-50.67,26.28-60.44,52.52-5.75,15.43-7.35,33.2-18.26,45.45-14.19,15.94-38.29,16.44-59.47,15.78s-45.3-.1-59.42,15.91c-8.85,10-11.66,24.27-10.95,37.7,1.89,35.54,26.65,67.31,58.15,83.11s68.57,17.21,103,10.26c48.28-9.74,94.2-36.47,121.8-77.75S563.37,166.25,541.29,121.69Z" style="fill:#ebebeb"></path><circle cx="214.23" cy="150.61" r="35" transform="translate(31.57 338.26) rotate(-80.88)" style="fill:#ebebeb"></circle></g><g id="freepik--Boxes--inject-13"><rect x="333.04" y="387.24" width="78.86" height="71.55" style="fill:#00E674"></rect><g style="opacity:0.30000000000000004"><rect x="333.04" y="387.24" width="78.86" height="71.55"></rect></g><rect x="300.58" y="387.24" width="78.86" height="71.55" style="fill:#00E674"></rect><polygon points="300.58 387.24 284.19 413.3 359.94 413.3 379.44 387.24 300.58 387.24" style="fill:#00E674"></polygon><g style="opacity:0.30000000000000004"><polygon points="300.58 387.24 284.19 413.3 359.94 413.3 379.44 387.24 300.58 387.24"></polygon></g><path d="M379.44,387.24a.65.65,0,0,1-.08.13l-.26.38-1.05,1.44-4,5.39-14,18.83-.05.07h-.09l-21.6,0-38.29-.06-11.61-.06-3.15,0-.82,0a.84.84,0,0,1-.28,0l.28,0,.82,0,3.15,0,11.61-.06,38.29-.06,21.6,0-.14.07c5.75-7.65,10.64-14.15,14.11-18.75l4-5.33,1.09-1.41.29-.36A.59.59,0,0,1,379.44,387.24Z" style="fill:#263238"></path><polygon points="380.17 387.24 400.99 413.3 433.68 413.3 411.91 387.24 380.17 387.24" style="fill:#00E674"></polygon><rect x="330.04" y="405.94" width="20" height="55.57" transform="translate(-117.88 740.42) rotate(-85.72)" style="fill:#fafafa"></rect><path d="M367,445.78s0-.13,0-.36,0-.59.06-1c.07-.92.16-2.25.27-4,.24-3.43.59-8.41,1-14.61l.11.13-55.41-4.09h0l.19-.17c-.52,7-1,13.69-1.5,19.95l-.16-.19,39.64,3.05,11.56.92,3.11.25.81.07.28,0h-.26l-.79,0-3.07-.21-11.53-.81-39.78-2.9h-.17v-.18c.47-6.26,1-13,1.49-19.94v-.19l.18,0h0l55.4,4.21h.12v.12c-.49,6.23-.89,11.22-1.16,14.68-.14,1.69-.25,3-.33,3.92,0,.43-.06.76-.09,1Z" style="fill:#263238"></path><rect x="315.57" y="418.71" width="3.04" height="5.89" transform="translate(-12.49 9.69) rotate(-1.72)" style="fill:#e0e0e0"></rect><rect x="361.56" y="442.58" width="3.04" height="5.89" transform="translate(-13.17 11.06) rotate(-1.71)" style="fill:#e0e0e0"></rect><rect x="363.74" y="422.2" width="3.04" height="5.89" transform="translate(154.15 -94.08) rotate(18.54)" style="fill:#e0e0e0"></rect><rect x="313.94" y="438.95" width="3.04" height="5.89" transform="translate(156.92 -77.38) rotate(18.54)" style="fill:#e0e0e0"></rect><path d="M320.27,429.17l2.76.19a3.18,3.18,0,1,1-.44,6.33l-2.77-.19Zm2.33,5.53a2.18,2.18,0,1,0,.31-4.34l-1.54-.11-.3,4.34Z" style="fill:#263238"></path><path d="M327.06,432.83a3.42,3.42,0,1,1,3.18,3.49A3.26,3.26,0,0,1,327.06,432.83Zm5.64.4a2.23,2.23,0,1,0-2.38,2.06A2.16,2.16,0,0,0,332.7,433.23Z" style="fill:#263238"></path><path d="M341,430.63l-.45,6.33-1-.07-3.18-4.53-.31,4.29-1.16-.09.44-6.33,1,.07,3.19,4.53.3-4.28Z" style="fill:#263238"></path><path d="M346.44,435.91l-3.16-.23-.73,1.42-1.21-.08,3.29-6.13,1.16.08,2.41,6.53-1.23-.09Zm-.32-1-1-2.86-1.38,2.69Z" style="fill:#263238"></path><path d="M350.35,432.29l-2.1-.15.07-1,5.38.38-.07,1-2.1-.15-.38,5.34-1.17-.08Z" style="fill:#263238"></path><path d="M359,437.27l-.07,1-4.74-.34.44-6.33,4.62.33-.07,1-3.44-.24-.12,1.65,3.06.21-.07,1-3.05-.22-.13,1.75Z" style="fill:#263238"></path><rect x="197.3" y="400.39" width="67.58" height="10.91" rx="4.39" style="fill:#263238"></rect><rect x="198" y="389.48" width="67.58" height="10.91" rx="4.39" style="fill:#455a64"></rect><path d="M210.81,400.39c0-.08,11.25-.14,25.12-.14s25.12.06,25.12.14-11.24.15-25.12.15S210.81,400.47,210.81,400.39Z" style="fill:#263238"></path><path d="M220.57,411.35a6.23,6.23,0,0,1-.45-1.49,18.39,18.39,0,0,1-.42-3.76,19.11,19.11,0,0,1,.35-3.77,6.07,6.07,0,0,1,.42-1.5,11.53,11.53,0,0,1-.22,1.54,24.86,24.86,0,0,0-.26,3.73,23.71,23.71,0,0,0,.33,3.72A13.34,13.34,0,0,1,220.57,411.35Z" style="fill:#fff"></path><path d="M230.68,411.57a6.37,6.37,0,0,1-.4-1.57,22.8,22.8,0,0,1-.36-3.88,23.85,23.85,0,0,1,.29-3.88,6.63,6.63,0,0,1,.37-1.57,14.9,14.9,0,0,1-.17,1.6,33.31,33.31,0,0,0-.2,3.85,31.37,31.37,0,0,0,.27,3.85A14.18,14.18,0,0,1,230.68,411.57Z" style="fill:#fff"></path><path d="M241.06,411.57a7.84,7.84,0,0,1-.33-1.58,27.73,27.73,0,0,1-.31-3.9,29.66,29.66,0,0,1,.23-3.91,6.87,6.87,0,0,1,.31-1.59,13,13,0,0,1-.11,1.61c-.08,1-.15,2.37-.14,3.89s.12,2.88.22,3.87A11.33,11.33,0,0,1,241.06,411.57Z" style="fill:#fff"></path><path d="M252.67,411.18a7.17,7.17,0,0,1-.24-1.52c-.11-.94-.23-2.24-.31-3.69s-.13-2.75-.13-3.69a7.73,7.73,0,0,1,0-1.54,8.53,8.53,0,0,1,.15,1.53c.06,1,.13,2.3.21,3.69s.17,2.64.23,3.68A9.55,9.55,0,0,1,252.67,411.18Z" style="fill:#fff"></path><path d="M257.91,400.43a103,103,0,0,1-.2-10.74,103.11,103.11,0,0,1,.2,10.74Z" style="fill:#fff"></path><path d="M246.13,400.2a6.58,6.58,0,0,1-.3-1.58,27.44,27.44,0,0,1,.15-7.75,7.21,7.21,0,0,1,.36-1.57,13.12,13.12,0,0,1-.16,1.6c-.11,1-.24,2.34-.27,3.84s0,2.87.12,3.86A13.78,13.78,0,0,1,246.13,400.2Z" style="fill:#fff"></path><path d="M234.59,400.51a8,8,0,0,1-.24-1.63,30.67,30.67,0,0,1-.07-4,28.8,28.8,0,0,1,.44-3.94,6.92,6.92,0,0,1,.39-1.6,13.09,13.09,0,0,1-.19,1.63c-.13,1-.28,2.39-.36,3.93s0,2.93,0,3.94A9.88,9.88,0,0,1,234.59,400.51Z" style="fill:#fff"></path><path d="M224,400.58a7.48,7.48,0,0,1-.4-1.57,22.44,22.44,0,0,1-.35-3.92,21.29,21.29,0,0,1,.35-3.91,7,7,0,0,1,.4-1.58,12,12,0,0,1-.2,1.61,29.16,29.16,0,0,0,0,7.77A12.15,12.15,0,0,1,224,400.58Z" style="fill:#fff"></path><path d="M212.09,400.18s-.09-.13-.19-.39a7.89,7.89,0,0,1-.39-1.11,14.93,14.93,0,0,1-.15-7.7,8.26,8.26,0,0,1,.35-1.13c.09-.26.16-.4.18-.39s-.14.6-.33,1.56a17.45,17.45,0,0,0,.14,7.61A15.14,15.14,0,0,1,212.09,400.18Z" style="fill:#fff"></path><path d="M210.15,410.79a5.59,5.59,0,0,1-.7-1.36,13,13,0,0,1-.69-7.29,5.16,5.16,0,0,1,.43-1.47s-.1.58-.23,1.5a15.57,15.57,0,0,0-.09,3.64,16.26,16.26,0,0,0,.77,3.55A12.09,12.09,0,0,1,210.15,410.79Z" style="fill:#fff"></path><path d="M203.25,410.4a4.15,4.15,0,0,1-.65-1.32,12.14,12.14,0,0,1-.59-3.51,23.08,23.08,0,0,1,.22-3.54,6.67,6.67,0,0,1,.27-1.44,8.49,8.49,0,0,1-.07,1.47,34.6,34.6,0,0,0-.13,3.51,13.91,13.91,0,0,0,.5,3.45C203.05,409.88,203.29,410.38,203.25,410.4Z" style="fill:#fff"></path><path d="M205,389.48c.05,0-.26.58-.59,1.53a11.91,11.91,0,0,0-.64,3.88,17.15,17.15,0,0,0,.52,3.91c.24,1,.43,1.59.39,1.6s-.09-.14-.2-.4-.24-.66-.39-1.15a14.12,14.12,0,0,1-.6-4,10.58,10.58,0,0,1,.73-3.95,8.64,8.64,0,0,1,.53-1.09A1.71,1.71,0,0,1,205,389.48Z" style="fill:#fff"></path><rect x="176.24" y="405.08" width="99" height="54.24" style="fill:#00E674"></rect><g style="opacity:0.30000000000000004"><rect x="176.24" y="405.08" width="99" height="54.24"></rect></g><rect x="152.02" y="405.08" width="71.4" height="54.24" style="fill:#00E674"></rect><rect x="168.18" y="429.47" width="48.2" height="17.35" transform="translate(-80.98 45.37) rotate(-11.13)" style="fill:#fafafa"></rect><path d="M217.6,442s0-.1-.07-.3l-.18-.88c-.16-.78-.39-1.91-.69-3.36-.59-2.93-1.45-7.17-2.51-12.46l.12.08L167,434.44h0l.12-.18c1.17,5.93,2.3,11.68,3.35,17l-.18-.12,33.85-6.59,9.88-1.9,2.66-.5.69-.13.24,0s-.07,0-.22.06l-.67.14-2.61.53-9.83,2-33.93,6.75-.15,0,0-.15c-1.06-5.34-2.19-11.09-3.36-17l0-.16.16,0h0l47.3-9.26.11,0,0,.11c1,5.32,1.84,9.59,2.41,12.54.27,1.45.48,2.58.63,3.35.07.37.12.66.16.87S217.6,442,217.6,442Z" style="fill:#263238"></path><rect x="168.99" y="430.79" width="2.64" height="5.11" transform="translate(-120.08 69.39) rotate(-17.13)" style="fill:#e0e0e0"></rect><rect x="212.95" y="440.14" width="2.64" height="5.11" transform="translate(-120.89 82.75) rotate(-17.13)" style="fill:#e0e0e0"></rect><rect x="210.08" y="422.59" width="2.64" height="5.11" transform="translate(23.51 -10.9) rotate(3.13)" style="fill:#e0e0e0"></rect><rect x="172.29" y="448.09" width="2.64" height="5.11" transform="translate(24.84 -8.8) rotate(3.13)" style="fill:#e0e0e0"></rect><path d="M174.7,438.9l2.36-.48a2.76,2.76,0,1,1,1.09,5.4l-2.36.48Zm3.23,4.08a1.89,1.89,0,1,0-.74-3.7l-1.31.26.74,3.71Z" style="fill:#263238"></path><path d="M181.23,440.39a3,3,0,1,1,3.46,2.19A2.83,2.83,0,0,1,181.23,440.39Zm4.8-1a1.93,1.93,0,1,0-1.51,2.27A1.87,1.87,0,0,0,186,439.43Z" style="fill:#263238"></path><path d="M192.36,435.34l1.09,5.4-.83.17-3.71-3.06.74,3.66-1,.2-1.08-5.4.82-.17,3.71,3.06-.73-3.66Z" style="fill:#263238"></path><path d="M198.15,438.5l-2.7.54-.28,1.35-1,.21,1.34-5.88,1-.2,3.53,4.91-1.05.21Zm-.49-.72-1.5-2.16-.53,2.56Z" style="fill:#263238"></path><path d="M200.58,434.57l-1.79.36-.17-.85,4.58-.92.17.85-1.78.36.91,4.55-1,.2Z" style="fill:#263238"></path><path d="M208.92,436.75l.17.84-4,.82L204,433l3.94-.79.17.84-2.94.59.28,1.4,2.61-.52.17.82-2.61.53.3,1.48Z" style="fill:#263238"></path><polygon points="150.77 405.08 135.41 427.18 208.59 427.18 224.11 405.08 150.77 405.08" style="fill:#00E674"></polygon><g style="opacity:0.30000000000000004"><polygon points="150.91 404.88 135.55 426.98 208.59 427.18 224.11 405.08 150.91 404.88"></polygon></g><path d="M224.11,405.08s0,0-.06.11l-.21.31c-.19.29-.46.69-.82,1.21l-3.13,4.52-11.19,16,0,.06H185.5l-35.42,0-10.74,0-2.91,0-.76,0h-.26l.26,0h.76l2.91,0,10.74-.05,35.42,0h23.09l-.11.06c4.64-6.57,8.54-12.07,11.28-16,1.37-1.92,2.45-3.43,3.19-4.48l.86-1.18.22-.3Z" style="fill:#263238"></path><polygon points="275.23 405.08 291.59 425.15 235.2 425.15 223.41 405.08 275.23 405.08" style="fill:#00E674"></polygon><polygon points="159.59 404.88 172.09 425.18 187.72 422.28 185.59 410.9 208.86 405.56 159.59 404.88" style="fill:#455a64"></polygon></g><g id="freepik--character-2--inject-13"><path d="M618.79,215.7l7.58-.41c-.38-8.24-5-15.63-7.1-23.61-.15-.62-.29-1.23-.43-1.83-1.26-6.2-.69-12.71-2.34-18.82-1.35-5.05-4.18-9.61-5.46-14.68-1.84-7.22-.52-15.25-3.93-21.88a17,17,0,0,0-11-8.66,39.64,39.64,0,0,0-6.36-1.06,10.17,10.17,0,0,0-5.52.57,9.27,9.27,0,0,0-2.45,1.24h0a14.7,14.7,0,0,0-4.26,4.2c-2.94,4.49-3.67,10-4.33,15.35q-2,16.47-4.09,33a30.69,30.69,0,0,0-.23,9c.59,3.46,2.33,6.6,4.12,9.62a200,200,0,0,0,13.46,19.81l31.1-1.7s0,.1,0,.16Z" style="fill:#263238"></path><path d="M605.42,180.12s16.52-3,25.49,4.66L639,192s-11.8,51.05-19.45,52.87L569.21,244s-7.81-23.62-9.53-33.12c-1.74-9.67-3.46-34.17-3.46-34.17Z" style="fill:#455a64"></path><polygon points="526.77 172.4 556.22 176.67 560.37 212.29 526.77 196.3 526.77 172.4" style="fill:#455a64"></polygon><polygon points="639.02 192.04 658.07 214.25 645.31 236.86 629.58 223.25 639.02 192.04" style="fill:#455a64"></polygon><path d="M585.75,227.29a5.38,5.38,0,0,1-1.36.31,17.52,17.52,0,0,1-3.8.16,19.2,19.2,0,0,1-17.76-15.37,17.06,17.06,0,0,1-.39-3.78,5.5,5.5,0,0,1,.11-1.39,32.24,32.24,0,0,0,.63,5.09,19.44,19.44,0,0,0,17.44,15.08A31.32,31.32,0,0,0,585.75,227.29Z" style="fill:#263238"></path><path d="M541.75,191a4.63,4.63,0,0,1,1,.58c.61.4,1.46,1,2.48,1.83a52.38,52.38,0,0,1,13.07,15.45c.63,1.14,1.1,2.08,1.4,2.74a4,4,0,0,1,.41,1.06c-.08,0-.8-1.4-2.13-3.62a63.65,63.65,0,0,0-5.86-8.21,65.33,65.33,0,0,0-7.12-7.14C543,192,541.7,191.1,541.75,191Z" style="fill:#263238"></path><path d="M631.07,200.38a4.66,4.66,0,0,1,.32,1.11,30.66,30.66,0,0,1,.56,3.09A45.2,45.2,0,0,1,630,225.05a28.88,28.88,0,0,1-1.13,2.93,5,5,0,0,1-.51,1c-.09,0,.53-1.54,1.29-4.06a51.32,51.32,0,0,0,1.92-20.32C631.31,202,631,200.4,631.07,200.38Z" style="fill:#263238"></path><path d="M562.45,430l1,18.5s-18.45,7.28-18.59,10.72l36-.76-.46-28.89Z" style="fill:#00E674"></path><path d="M574.58,446.7a1.45,1.45,0,0,1,1,1.65,1.39,1.39,0,0,1-1.63,1,1.55,1.55,0,0,1-1.1-1.75,1.46,1.46,0,0,1,1.82-.91" style="fill:#e0e0e0"></path><g style="opacity:0.6000000000000001"><path d="M580.86,458.45l-.16-2.91-34.4,1.82s-1.59.73-1.39,1.85Z" style="fill:#fff"></path></g><path d="M562.92,448.32c0,.17.89.23,1.76.78s1.35,1.27,1.51,1.2-.12-1.08-1.19-1.72S562.87,448.16,562.92,448.32Z" style="fill:#263238"></path><path d="M559.18,450c0,.18.73.46,1.34,1.19s.8,1.51,1,1.5.26-1-.52-1.9S559.18,449.79,559.18,450Z" style="fill:#263238"></path><path d="M557.13,454.51c.16,0,.39-.85-.08-1.8s-1.3-1.32-1.37-1.17.44.65.82,1.44S557,454.5,557.13,454.51Z" style="fill:#263238"></path><path d="M563.14,444.07c.08.16.88-.1,1.87-.05s1.78.34,1.87.19-.67-.76-1.84-.8S563.05,443.94,563.14,444.07Z" style="fill:#263238"></path><path d="M609.67,430l1.06,18.5s-18.45,7.28-18.59,10.72l35.94-.76-.46-28.89Z" style="fill:#00E674"></path><path d="M621.81,446.7a1.45,1.45,0,0,1,1.05,1.65,1.4,1.4,0,0,1-1.63,1,1.54,1.54,0,0,1-1.1-1.75,1.45,1.45,0,0,1,1.81-.91" style="fill:#e0e0e0"></path><g style="opacity:0.6000000000000001"><path d="M628.08,458.45l-.16-2.91-34.4,1.82s-1.59.73-1.38,1.85Z" style="fill:#fff"></path></g><path d="M610.14,448.32c0,.17.89.23,1.77.78s1.35,1.27,1.51,1.2-.13-1.08-1.2-1.72S610.1,448.16,610.14,448.32Z" style="fill:#263238"></path><path d="M606.4,450c0,.18.73.46,1.35,1.19s.8,1.51,1,1.5.27-1-.51-1.9S606.4,449.79,606.4,450Z" style="fill:#263238"></path><path d="M604.36,454.51c.16,0,.38-.85-.09-1.8s-1.3-1.32-1.37-1.17.45.65.82,1.44S604.18,454.5,604.36,454.51Z" style="fill:#263238"></path><path d="M610.37,444.07c.08.16.88-.1,1.87-.05s1.77.34,1.86.19-.67-.76-1.84-.8S610.28,443.94,610.37,444.07Z" style="fill:#263238"></path><path d="M526.77,172.4l-33.48-27.15-6.42,4.69s33.15,43.24,39.9,44.58Z" style="fill:#b78876"></path><path d="M619.57,244s8,9.7,11.52,20.66S636,283,636,297.09,632.54,440,632.54,440h-28.4L592.3,305.41l-7,134.56H559.18s-10.22-130.2-6.43-154.6c2.4-15.47,16.46-41.41,16.46-41.41Z" style="fill:#263238"></path><path d="M565.86,440c-.1-2.86-1.54-44.39-3.43-98.59-.42-13.62-.8-26.6-1-38.4s.35-22.48,1.81-31.31A101.82,101.82,0,0,1,566,259.91c.58-1.68,1-3.27,1.6-4.68s1-2.72,1.58-3.85,1-2.13,1.42-3,.85-1.56,1.17-2.14.56-1,.74-1.3l.26-.43a4.37,4.37,0,0,1-.22.46q-.24.48-.69,1.32c-.3.59-.7,1.3-1.12,2.15l-1.37,3c-.53,1.13-1,2.45-1.53,3.86s-1,3-1.56,4.68a104.37,104.37,0,0,0-2.59,11.73c-1.4,8.81-1.87,19.45-1.69,31.24s.58,24.77,1,38.39c.89,27.21,1.7,51.86,2.28,69.72.27,8.92.43,16.14.53,21.14,0,2.47.07,4.41.09,5.74,0,.64,0,1.14,0,1.5S565.86,440,565.86,440Z" style="fill:#455a64"></path><path d="M581.07,244.91s0,.17,0,.5-.08.84-.13,1.48c-.13,1.31-.32,3.21-.57,5.65s-.49,5.47-.77,9c-.13,1.75-.28,3.62-.43,5.6s-.24,4.08-.37,6.29c-.55,8.81-.93,19.32-1.24,31s-.38,24.51-.37,38c.09,27,.63,51.36,1,69,.2,8.81.37,15.95.48,20.91.05,2.45.08,4.36.11,5.69,0,.63,0,1.12,0,1.47s0,.51,0,.51,0-.17,0-.5,0-.85-.07-1.48c0-1.32-.11-3.24-.2-5.69-.15-5-.37-12.09-.65-20.9-.5-17.66-1.1-42.06-1.19-69,0-13.48.12-26.32.41-38s.75-22.19,1.35-31c.14-2.2.28-4.3.41-6.28s.32-3.86.47-5.61c.31-3.49.55-6.5.86-9s.51-4.33.66-5.65c.08-.63.14-1.11.19-1.46A4.47,4.47,0,0,1,581.07,244.91Z" style="fill:#455a64"></path><path d="M592.45,307.12c-.14,0,.06-13.93.45-31.11s.83-31.11,1-31.11,0,13.94-.45,31.12S592.59,307.12,592.45,307.12Z" style="fill:#455a64"></path><path d="M614.11,440a4.93,4.93,0,0,1-.05-.5c0-.36,0-.85-.1-1.48-.07-1.32-.18-3.24-.31-5.69-.24-5-.58-12.1-1-20.91-.8-17.68-1.91-42.07-3.13-69s-2.65-51.34-3.93-69c-.62-8.82-1.22-15.94-1.66-20.87-.22-2.44-.4-4.34-.52-5.66-.06-.63-.1-1.12-.13-1.48s0-.5,0-.5,0,.17.07.5.1.84.18,1.47c.15,1.31.36,3.22.62,5.65.51,4.92,1.16,12,1.83,20.86,1.38,17.63,2.78,42,4.08,69s2.26,51.35,3,69c.35,8.81.64,15.95.84,20.92.09,2.45.17,4.36.22,5.68,0,.64,0,1.13,0,1.48S614.11,440,614.11,440Z" style="fill:#455a64"></path><path d="M615.09,244.91a3.59,3.59,0,0,1,.19.47c.12.33.29.8.5,1.4s.49,1.38.8,2.28.6,2,1,3.16a168.31,168.31,0,0,1,4.5,20.53c2.93,17.53,4.58,42.07,4.9,69.15s-.41,51.61-.78,69.35c-.18,8.86-.32,16-.42,21,0,2.47-.06,4.39-.07,5.72,0,.63,0,1.13,0,1.48s0,.51,0,.51,0-.17,0-.51l0-1.48c0-1.31,0-3.24,0-5.72,0-5,.09-12.14.25-21,.28-17.74.94-42.26.62-69.34s-1.91-51.57-4.73-69.09a179.88,179.88,0,0,0-4.33-20.54c-.35-1.19-.63-2.25-.92-3.16s-.54-1.67-.75-2.3l-.45-1.41C615.13,245.08,615.09,244.91,615.09,244.91Z" style="fill:#455a64"></path><path d="M599.24,124.93a18.12,18.12,0,0,1,9.42,8.08c1,1.83,1.75,3.89,3.26,5.34a15,15,0,0,1,2.74,2.58c1.24,2,.17,4.76,1,7,.69,1.95,2.67,3.21,3.45,5.13s.24,4-.13,6-.46,4.32.92,5.83a12.1,12.1,0,0,1,1,1.1,3.41,3.41,0,0,1,.51,1.66c.25,3-1.5,6.44.24,8.94a22.15,22.15,0,0,1,1.64,2c1,1.94-.36,4.56.73,6.47.58,1,1.84,2.15,1.13,3.09l-12.86-5.5Z" style="fill:#263238"></path><path d="M589.35,124.69c-4.21-1.06-10.36,2.85-11.12,3.89a43.42,43.42,0,0,0-2.57,4.44c-1,1.94-3,3.37-3.33,5.51-.22,1.52.5,3.13,0,4.58-.6,1.7-2.71,2.56-3.19,4.3s.81,3.43.63,5.18c-.27,2.56-3.37,3.86-4.31,6.26s.71,5.53-.25,8.09c-.69,1.84-2.55,2.91-4,4.24s-2.74,4.45-1.59,6l14.66,1c-.42-12.75-1.18-25.53,2-37.87C577.34,136.44,587.62,128.37,589.35,124.69Z" style="fill:#263238"></path><path d="M589.74,127a6.72,6.72,0,0,1,4.91-2.67,11.32,11.32,0,0,1,5.59,1.12,21.77,21.77,0,0,1,9.86,10A50,50,0,0,1,614.41,149a148.27,148.27,0,0,1,2.43,18.07c.13,1.83,1.06,15.16,1.27,17.87" style="fill:#263238"></path><path d="M605.51,187.54a11.59,11.59,0,0,0,2.24-7.45l.11-41.28a3.54,3.54,0,0,0-3.34-3.43l-12.67-5.1-3.32.37c-7.46,0-12.64,8.19-12.72,14.24-.09,6.71.07,14.91,1.12,19.86,2.09,10,9.85,10.85,9.85,10.85s.08,1.47.3,5.11c0,0,2.66,12,18.43,6.83" style="fill:#b78876"></path><path d="M578.21,151a1.3,1.3,0,0,0,1.31,1.24,1.24,1.24,0,0,0,1.27-1.23,1.29,1.29,0,0,0-1.3-1.24A1.24,1.24,0,0,0,578.21,151Z" style="fill:#263238"></path><path d="M577.84,148.27c.16.16,1.1-.61,2.49-.67s2.44.57,2.58.4-.11-.38-.57-.68a3.5,3.5,0,0,0-2.07-.52,3.38,3.38,0,0,0-2,.74C577.88,147.89,577.75,148.2,577.84,148.27Z" style="fill:#263238"></path><path d="M591.37,150.27a1.29,1.29,0,0,0,1.31,1.23,1.22,1.22,0,0,0,1.27-1.22,1.29,1.29,0,0,0-1.31-1.24A1.24,1.24,0,0,0,591.37,150.27Z" style="fill:#263238"></path><path d="M591.55,147.52c.16.16,1.1-.61,2.49-.68s2.44.58,2.58.4-.11-.37-.57-.67A3.57,3.57,0,0,0,594,146a3.38,3.38,0,0,0-2,.75C591.59,147.14,591.46,147.45,591.55,147.52Z" style="fill:#263238"></path><path d="M587,159.12a9.4,9.4,0,0,0-2.27-.29c-.36,0-.7-.08-.77-.31a1.76,1.76,0,0,1,.18-1.06c.29-.88.6-1.79.91-2.75,1.27-3.91,2.16-7.12,2-7.17s-1.31,3.08-2.57,7c-.3,1-.59,1.88-.86,2.76a2,2,0,0,0-.12,1.4.9.9,0,0,0,.61.49,2.24,2.24,0,0,0,.61,0A8.77,8.77,0,0,0,587,159.12Z" style="fill:#263238"></path><path d="M586.82,175.57a25.62,25.62,0,0,0,13.27-4.27s-3,7.12-13.13,6.69Z" style="fill:#aa6550"></path><path d="M587.71,162.43a2.51,2.51,0,0,1,2.19-1,2.31,2.31,0,0,1,1.62.77,1.43,1.43,0,0,1,.19,1.64,1.66,1.66,0,0,1-1.79.55,5.22,5.22,0,0,1-1.83-1,1.52,1.52,0,0,1-.41-.39.45.45,0,0,1,0-.51" style="fill:#aa6550"></path><path d="M591.08,159.87c-.22,0-.15,1.51-1.39,2.64s-2.84,1.05-2.84,1.26.37.27,1,.26a3.85,3.85,0,0,0,2.38-1,3.31,3.31,0,0,0,1.07-2.2C591.37,160.23,591.18,159.86,591.08,159.87Z" style="fill:#263238"></path><path d="M591.3,143.9c.23.34,1.53-.17,3.16-.36s3-.08,3.14-.46c0-.18-.25-.47-.86-.7A5.49,5.49,0,0,0,592,143C591.42,143.38,591.2,143.74,591.3,143.9Z" style="fill:#263238"></path><path d="M577.93,142.94c.26.3,1.2-.08,2.35-.15s2.13.11,2.34-.23c.09-.17-.08-.48-.52-.75a3.17,3.17,0,0,0-1.93-.42,3.22,3.22,0,0,0-1.84.72C577.94,142.46,577.82,142.79,577.93,142.94Z" style="fill:#263238"></path><path d="M605.9,155.73c0-.74.74-2.55,1.47-2.7,2-.41,5.52-.43,5.8,4.58.39,6.84-6.56,5.82-6.58,5.62S606,158.31,605.9,155.73Z" style="fill:#b78876"></path><path d="M608.53,160.52s.12.08.33.16a1.2,1.2,0,0,0,.89,0,3,3,0,0,0,1.22-2.73,4.13,4.13,0,0,0-.43-1.69,1.39,1.39,0,0,0-.95-.86.62.62,0,0,0-.69.37c-.08.19,0,.33-.06.34s-.16-.1-.12-.39a.72.72,0,0,1,.25-.44.87.87,0,0,1,.65-.22,1.68,1.68,0,0,1,1.3,1,4.12,4.12,0,0,1,.52,1.89,3.07,3.07,0,0,1-1.57,3.05,1.26,1.26,0,0,1-1.1-.12C608.55,160.69,608.51,160.54,608.53,160.52Z" style="fill:#aa6550"></path><path d="M592.66,129.72c5,6.83,10.36,14.54,15.55,21.23.9-3.34,1.74-8.38,1.11-11.78a14.12,14.12,0,0,0-5.1-8.76c-2.75-2.1-7.66-2.53-10.87-1.24" style="fill:#263238"></path><path d="M614.83,183.72a.41.41,0,0,0,.36-.36c.41-2-5.62-13.15-5.31-15.52a46,46,0,0,0,.4-7.31,41.07,41.07,0,0,0-1-8.09,35.62,35.62,0,0,0-1.11-3.8,24.45,24.45,0,0,0-1.67-3.49,34.3,34.3,0,0,0-4.11-5.52c-1.39-1.56-2.7-2.91-3.85-4.17l-.43-.45c-.12-.14-.25-.28-.37-.43-.26-.31-.52-.61-.76-.91a19.39,19.39,0,0,0-1.63-1.75,8.26,8.26,0,0,0-.94-.74,5.68,5.68,0,0,0-.5-.29l-.41-.21a12.43,12.43,0,0,0-1.61-.68,4.8,4.8,0,0,0-2.51-.27c-.59.13-.83.38-.8.53s.32.26.75.44a7.77,7.77,0,0,1,1.74,1c.36.26.75.56,1.18.93l.34.28a1.69,1.69,0,0,1,.27.26,5.5,5.5,0,0,1,.52.61c.35.47.71,1,1.11,1.7.2.33.4.67.64,1,.12.19.24.38.38.57l.39.54c1,1.44,2.2,2.95,3.39,4.54a37,37,0,0,1,3.32,5.13,20.28,20.28,0,0,1,1.22,2.91,32.88,32.88,0,0,1,.84,3.26,40.8,40.8,0,0,1,.8,7.21,48,48,0,0,1-.28,6.61c-.23,2.13-.63,4.23-1,6.35a39,39,0,0,0-.57,6.32c0,2.09-.16,2.11.53,3.9l14,1.77C618.08,185.08,616.6,184.42,614.83,183.72Z" style="fill:#263238"></path><path d="M588.32,129.66c5.22,3,13.1,3.65,17.59-.36,0,1.53-1.07,2.83-2.09,4a10.07,10.07,0,0,1-3.61,3,10.34,10.34,0,0,1-5.1.22,8.62,8.62,0,0,1-2.48-.57,8.9,8.9,0,0,1-2.21-1.66c-1.28-1.2-2.66-2.68-2.42-4.41" style="fill:#263238"></path><path d="M600.91,133.11a2,2,0,0,1-.4.48A11,11,0,0,1,597,136a3.67,3.67,0,0,1-1.49.3,6.87,6.87,0,0,1-1.61-.23,9.36,9.36,0,0,1-2.86-1.19,6.65,6.65,0,0,1-1.86-1.72,5.69,5.69,0,0,1-.79-1.52,2.13,2.13,0,0,1-.13-.62,8.23,8.23,0,0,0,1.07,2,7.12,7.12,0,0,0,1.84,1.63,9.55,9.55,0,0,0,2.8,1.13,6.45,6.45,0,0,0,1.54.23,3.79,3.79,0,0,0,1.4-.26,11.74,11.74,0,0,0,2.17-1.2C600.28,133.74,600.88,133.08,600.91,133.11Z" style="fill:#455a64"></path><path d="M604.9,131.19s-.15.46-.37,1.22a5.85,5.85,0,0,1-.52,1.3,3.49,3.49,0,0,1-1.25,1.22,5,5,0,0,1-3.06.57,2,2,0,0,1-.89-.35c-.18-.15-.23-.27-.22-.28a2.08,2.08,0,0,0,1.14.43,5.14,5.14,0,0,0,2.89-.61,3.3,3.3,0,0,0,1.17-1.11,7.58,7.58,0,0,0,.56-1.23A3.34,3.34,0,0,1,604.9,131.19Z" style="fill:#455a64"></path><path d="M607.31,130.72a1.09,1.09,0,0,1,0,.68,2.73,2.73,0,0,1-.9,1.39,2.76,2.76,0,0,1-1.55.61c-.43,0-.68-.07-.67-.1s.26,0,.65-.1a3,3,0,0,0,1.39-.62,3.11,3.11,0,0,0,.9-1.24C607.23,131,607.27,130.71,607.31,130.72Z" style="fill:#455a64"></path><path d="M600.5,131.72a1.28,1.28,0,0,1-.48.11,5.28,5.28,0,0,1-1.33,0,17.2,17.2,0,0,1-4.19-1.29,10.21,10.21,0,0,0-4.19-.87,6.86,6.86,0,0,0-1.74.38,1.36,1.36,0,0,1,.43-.25,4.25,4.25,0,0,1,1.29-.33,9.55,9.55,0,0,1,4.31.81,19.6,19.6,0,0,0,4.11,1.35A11.26,11.26,0,0,0,600.5,131.72Z" style="fill:#455a64"></path><path d="M603.39,131.14a1.79,1.79,0,0,1-.84-.26,4.61,4.61,0,0,0-1.95-.54,4.67,4.67,0,0,0-2,.35c-.49.2-.76.39-.79.36s.22-.28.7-.54a4.27,4.27,0,0,1,2.09-.45,4.34,4.34,0,0,1,2,.64A6.5,6.5,0,0,1,603.39,131.14Z" style="fill:#455a64"></path><path d="M606.22,129.29a7.2,7.2,0,0,0-2.21,0,7.35,7.35,0,0,0-2,.86s.14-.23.48-.48A3.73,3.73,0,0,1,604,129a3.86,3.86,0,0,1,1.64,0C606,129.13,606.24,129.26,606.22,129.29Z" style="fill:#455a64"></path><path d="M577.48,133.26v.06s0,0,0,0,.13-.21.21-.32a4.81,4.81,0,0,1,.37-.51c.17-.17.36-.37.59-.57l.72-.67c.26-.24.53-.52.84-.78a11.77,11.77,0,0,1,2.23-1.39,6.61,6.61,0,0,1,1.27-.51,7.26,7.26,0,0,1,1.26-.19,5.06,5.06,0,0,1,2.14.31,1.9,1.9,0,0,1,1.06,1,1.3,1.3,0,0,1,.1.39c0,.09,0,.14,0,.14s0,0-.06-.13a1.39,1.39,0,0,0-.14-.35,1.82,1.82,0,0,0-1-.85,5.11,5.11,0,0,0-2-.24,6.64,6.64,0,0,0-1.21.2,6.28,6.28,0,0,0-1.22.5,12.15,12.15,0,0,0-2.19,1.34c-.31.24-.57.51-.84.74l-.75.65-.61.54a3.68,3.68,0,0,0-.39.46l-.26.3s0,0-.09,0,0,0,0-.06Z" style="fill:#455a64"></path><path d="M576.47,135.77c.07,0,.38.32.85.64s.91.49.89.57-.53,0-1.05-.34S576.41,135.81,576.47,135.77Z" style="fill:#455a64"></path><path d="M572.71,136.06s.2.3.6.69a3.25,3.25,0,0,0,4,.47c.48-.28.71-.56.74-.52s-.16.34-.64.68a3.14,3.14,0,0,1-4.19-.5A1.56,1.56,0,0,1,572.71,136.06Z" style="fill:#455a64"></path><path d="M575.87,133s0-.21.16-.45a1.48,1.48,0,0,1,1-.51,2.27,2.27,0,0,1,1.09.17c.26.1.41.2.39.23s-.18,0-.44,0a3.48,3.48,0,0,0-1-.08,1.63,1.63,0,0,0-.89.38C576,132.83,575.91,133,575.87,133Z" style="fill:#455a64"></path><path d="M573.22,147.41a1.93,1.93,0,0,1,.1.32c.06.21.15.52.24.93a12.79,12.79,0,0,1,.25,1.51,7.09,7.09,0,0,1-.07,2,4.46,4.46,0,0,1-1.12,2.2,7.79,7.79,0,0,0-.84,1,1.6,1.6,0,0,0-.21,1.28,8.41,8.41,0,0,0,.61,1.36,3.6,3.6,0,0,1,.33,1.59,4,4,0,0,1-.4,1.64,4.83,4.83,0,0,1-1.08,1.34,6.34,6.34,0,0,0-1.12,1.21,2.35,2.35,0,0,0-.35,1.48,24.49,24.49,0,0,0,.8,3,4.06,4.06,0,0,1,.07,1.47,2.14,2.14,0,0,1-.63,1.27,3.19,3.19,0,0,1-1.18.56,2.41,2.41,0,0,0-1,.56,3.26,3.26,0,0,0-.92,1.7,5.59,5.59,0,0,0-.07,1.49c.07.83.18,1.28.15,1.29a1.54,1.54,0,0,1-.09-.33,8.18,8.18,0,0,1-.17-.95,5.32,5.32,0,0,1,0-1.53,3.4,3.4,0,0,1,.93-1.81,2.57,2.57,0,0,1,1-.62,3,3,0,0,0,1.1-.53,2.67,2.67,0,0,0,.47-2.52,19.76,19.76,0,0,1-.82-3,2.56,2.56,0,0,1,.38-1.65,7,7,0,0,1,1.16-1.26,4.39,4.39,0,0,0,1-1.27,3.51,3.51,0,0,0,.38-1.51,3.35,3.35,0,0,0-.3-1.48,9.41,9.41,0,0,1-.62-1.41,1.84,1.84,0,0,1,.26-1.47,8.61,8.61,0,0,1,.87-1.07,4.27,4.27,0,0,0,1.1-2.08,6.8,6.8,0,0,0,.1-2,12,12,0,0,0-.2-1.5l-.18-.94A1.68,1.68,0,0,1,573.22,147.41Z" style="fill:#455a64"></path><path d="M600.38,130.22a19.38,19.38,0,0,0-1.55-1.41,13.44,13.44,0,0,0-4.57-2.1,5.79,5.79,0,0,0-2.71-.19,4.75,4.75,0,0,0-2,1c-1,.86-1.45,1.52-1.49,1.48s.09-.18.32-.47a8.67,8.67,0,0,1,1.05-1.15,4.53,4.53,0,0,1,2-1.14,5.89,5.89,0,0,1,2.84.16,12.61,12.61,0,0,1,4.61,2.22,7.84,7.84,0,0,1,1.12,1.09C600.29,130,600.4,130.21,600.38,130.22Z" style="fill:#455a64"></path><path d="M604.58,129a19.78,19.78,0,0,0-1.84-2,10.4,10.4,0,0,0-2.42-1.63,8.33,8.33,0,0,0-3.43-.83,11.19,11.19,0,0,0-6.19,1.69,7.9,7.9,0,0,0-1.87,1.92,1.19,1.19,0,0,1,.08-.17,3.25,3.25,0,0,1,.27-.48,6.17,6.17,0,0,1,1.41-1.43,10.91,10.91,0,0,1,6.3-1.8,8.29,8.29,0,0,1,3.54.87,10.32,10.32,0,0,1,2.44,1.71,10.79,10.79,0,0,1,1.33,1.51A2.53,2.53,0,0,1,604.58,129Z" style="fill:#455a64"></path><path d="M581.41,126.89a5.32,5.32,0,0,1,1.05-.83,5.45,5.45,0,0,1,3.07-1,3.64,3.64,0,0,1,1.73.53,5.62,5.62,0,0,1,1.2.86,1.74,1.74,0,0,1,.62,1.19,3.16,3.16,0,0,0-.76-1,6.18,6.18,0,0,0-1.18-.78,3.57,3.57,0,0,0-1.62-.48,5.66,5.66,0,0,0-2.95.93A8,8,0,0,1,581.41,126.89Z" style="fill:#455a64"></path><path d="M623.23,213.87c1.56-1.82,2.65-4.67,1.11-6.51-.52-.61-1.28-1-1.69-1.72-1.39-2.4,2.49-5.12,1.78-7.8-.3-1.15-1.4-2-1.54-3.18-.2-1.71,1.51-3,2.12-4.61,1-2.73.08-4-1.2-5.42L603.86,178c-1.23,6.93,2.54,8.28,1.3,12.64a32.21,32.21,0,0,1-1.34,3.08,9,9,0,0,0,0,6.75c.59,1.42,1.55,2.69,2,4.16.87,2.8-.2,5.78-1,8.59s-1.41,6.08.28,8.48l20,.48L622.79,216a2.18,2.18,0,0,1-.2-1.09A2.3,2.3,0,0,1,623.23,213.87Z" style="fill:#263238"></path><path d="M614.64,212.33l-.08-.2c-.06-.14-.13-.35-.22-.62A6.58,6.58,0,0,1,614,209a2.8,2.8,0,0,1,.73-1.67c.24-.24.51-.46.78-.69a2,2,0,0,0,.61-.87,1.5,1.5,0,0,0-.13-1.11,5.28,5.28,0,0,0-.69-1.05,7.78,7.78,0,0,1-.78-1.13,4.55,4.55,0,0,1-.44-1.38,4.82,4.82,0,0,1,.56-3,4.28,4.28,0,0,1,1.07-1.26,14.64,14.64,0,0,0,1.29-1.07,2,2,0,0,0,.6-1.49,3.67,3.67,0,0,0-.57-1.64c-.3-.52-.64-1-.92-1.62a3.47,3.47,0,0,1-.37-1.91c.15-1.35.95-2.48,1.4-3.72a3.69,3.69,0,0,0,.23-1.94,5.47,5.47,0,0,0-.88-1.82,9.16,9.16,0,0,1-.55-.91,5.3,5.3,0,0,1-.38-1,5.81,5.81,0,0,1,0-2.2c.21-1.45.74-2.84,1-4.28a7.58,7.58,0,0,0,.17-2.17,5.18,5.18,0,0,0-.21-1,7.12,7.12,0,0,0-.41-1c-.32-.64-.71-1.25-1-1.9a6.24,6.24,0,0,1-.4-1,3.13,3.13,0,0,1-.12-.53,2.5,2.5,0,0,1-.07-.54,7.46,7.46,0,0,1,.14-2.11c.12-.68.29-1.34.46-2a10.09,10.09,0,0,0,.45-3.85,4.45,4.45,0,0,0-.26-.9,3.74,3.74,0,0,0-.42-.82c-.34-.52-.75-1-1.09-1.5a4,4,0,0,1-.69-1.71,8.08,8.08,0,0,1,0-1.77,5.52,5.52,0,0,0-.4-3.18,9.21,9.21,0,0,0-2.06-2.2,33.16,33.16,0,0,1-3.7-3.75,19,19,0,0,1-2.23-3.29,13.74,13.74,0,0,1-1-2.33,5.75,5.75,0,0,1-.17-.63,1.63,1.63,0,0,1,0-.22,2,2,0,0,1,.07.21c.05.15.12.36.2.62a15.77,15.77,0,0,0,1,2.29,19.88,19.88,0,0,0,2.25,3.26,35.15,35.15,0,0,0,3.72,3.7,9.26,9.26,0,0,1,2.11,2.24,3.63,3.63,0,0,1,.47,1.59,12.08,12.08,0,0,1,0,1.7,8.35,8.35,0,0,0,0,1.73,3.74,3.74,0,0,0,.66,1.6c.34.5.74,1,1.1,1.51a5,5,0,0,1,.72,1.81c.38,2.68-1.22,5.21-1,8,0,1.4.92,2.58,1.58,3.88a6.49,6.49,0,0,1,.43,1A5.32,5.32,0,0,1,617,171a7.33,7.33,0,0,1-.18,2.24c-.3,1.47-.83,2.86-1,4.27a5.49,5.49,0,0,0,0,2.1,5.26,5.26,0,0,0,.36,1,9.2,9.2,0,0,0,.53.9,5.55,5.55,0,0,1,.92,1.91,4,4,0,0,1-.24,2.08,16.65,16.65,0,0,0-1.4,3.65,3.23,3.23,0,0,0,.35,1.78c.26.56.6,1.08.9,1.62a3.85,3.85,0,0,1,.6,1.74,2.22,2.22,0,0,1-.68,1.65,12.82,12.82,0,0,1-1.31,1.09,4.06,4.06,0,0,0-1,1.2,4.72,4.72,0,0,0-.55,2.89,4.16,4.16,0,0,0,.42,1.32,6.55,6.55,0,0,0,.75,1.11,6.31,6.31,0,0,1,.7,1.09,1.63,1.63,0,0,1,.13,1.22,2.07,2.07,0,0,1-.67.93c-.27.24-.55.45-.77.68a2.68,2.68,0,0,0-.72,1.59,6.47,6.47,0,0,0,.3,2.46c.08.27.14.47.18.63S614.65,212.33,614.64,212.33Z" style="fill:#455a64"></path><path d="M612.41,190.13a2.79,2.79,0,0,1-.3-.52,5,5,0,0,1-.41-1.66,9.13,9.13,0,0,1,.19-2.71c.19-1,.53-2.19.67-3.5a13,13,0,0,0-.34-4.27,32.89,32.89,0,0,0-1.58-4.7c-.64-1.63-1.37-3.33-1.9-5.18a19,19,0,0,1-.6-2.87,20.11,20.11,0,0,1-.08-3c.1-2,.4-4,.55-5.89a18.47,18.47,0,0,0-.23-5.44A9.2,9.2,0,0,0,606.2,146c-1-1.14-2.2-2.05-3.08-3.05a22.58,22.58,0,0,1-3.4-5.28c-.33-.67-.57-1.19-.73-1.55l-.18-.4c0-.1-.06-.14-.06-.15s0,.05.08.13.12.24.21.4l.77,1.52a23.67,23.67,0,0,0,3.45,5.2c.88,1,2,1.87,3.11,3a9.29,9.29,0,0,1,2.25,4.44,18.69,18.69,0,0,1,.26,5.52c-.14,1.91-.45,3.87-.54,5.88a18.3,18.3,0,0,0,.08,3,18.67,18.67,0,0,0,.58,2.83c.52,1.82,1.24,3.52,1.87,5.15a33.33,33.33,0,0,1,1.58,4.74,13.14,13.14,0,0,1,.3,4.35c-.16,1.33-.51,2.48-.71,3.51a9.86,9.86,0,0,0-.24,2.67A5.12,5.12,0,0,0,612.41,190.13Z" style="fill:#455a64"></path><rect x="605.35" y="240.1" width="77.08" height="42.23" style="fill:#00E674"></rect><g style="opacity:0.30000000000000004"><rect x="605.35" y="240.1" width="77.08" height="42.23"></rect></g><rect x="586.49" y="240.1" width="55.59" height="42.23" style="fill:#00E674"></rect><rect x="599.08" y="259.09" width="37.53" height="13.51" transform="translate(-39.71 124.31) rotate(-11.13)" style="fill:#fafafa"></rect><path d="M637.56,268.85s0-.08,0-.24l-.15-.68c-.12-.61-.3-1.49-.53-2.62-.46-2.28-1.13-5.58-2-9.7l.1.07L598.15,263h0l.1-.14c.91,4.62,1.79,9.09,2.6,13.25l-.14-.09,26.36-5.13,7.7-1.48,2.07-.39.53-.1.19,0-.17,0-.52.11-2,.42L627.18,271l-26.42,5.25-.12,0,0-.12L598,262.87l0-.13.12,0h0l36.83-7.21H635l0,.08c.79,4.15,1.43,7.47,1.87,9.76.21,1.13.38,2,.49,2.62l.13.67Z" style="fill:#263238"></path><rect x="599.71" y="260.12" width="2.05" height="3.98" transform="translate(-50.55 188.59) rotate(-17.13)" style="fill:#e0e0e0"></rect><rect x="633.94" y="267.4" width="2.05" height="3.98" transform="translate(-51.18 198.96) rotate(-17.13)" style="fill:#e0e0e0"></rect><rect x="631.7" y="253.74" width="2.05" height="3.98" transform="translate(14.88 -34.12) rotate(3.13)" style="fill:#e0e0e0"></rect><rect x="602.28" y="273.59" width="2.05" height="3.98" transform="translate(15.94 -32.51) rotate(3.13)" style="fill:#e0e0e0"></rect><path d="M604.16,266.43l1.84-.37a2.15,2.15,0,1,1,.84,4.21l-1.84.37Zm2.51,3.18a1.47,1.47,0,1,0-.58-2.88l-1,.21.58,2.88Z" style="fill:#263238"></path><path d="M609.24,267.6a2.31,2.31,0,1,1,2.7,1.7A2.2,2.2,0,0,1,609.24,267.6Zm3.74-.76a1.51,1.51,0,1,0-1.18,1.78A1.46,1.46,0,0,0,613,266.84Z" style="fill:#263238"></path><path d="M617.91,263.67l.84,4.2-.64.13-2.89-2.38.57,2.84-.77.16-.85-4.2.65-.13,2.88,2.38-.57-2.85Z" style="fill:#263238"></path><path d="M622.41,266.12l-2.1.42-.22,1.06-.8.16,1-4.58.77-.16,2.74,3.82L623,267Zm-.38-.56-1.16-1.68-.42,2Z" style="fill:#263238"></path><path d="M624.31,263.06l-1.39.28-.14-.66,3.57-.71.13.66-1.39.28.71,3.54-.78.16Z" style="fill:#263238"></path><path d="M630.8,264.76l.14.66-3.16.63-.84-4.2,3.07-.62.13.65-2.29.47.22,1.09,2-.41.13.64-2,.41.23,1.16Z" style="fill:#263238"></path><polygon points="585.52 240.1 573.56 257.31 630.54 257.31 642.63 240.1 585.52 240.1" style="fill:#00E674"></polygon><g style="opacity:0.30000000000000004"><polygon points="585.63 239.95 573.67 257.15 630.54 257.31 642.63 240.1 585.63 239.95"></polygon></g><path d="M642.63,240.1s0,0,0,.09l-.16.24c-.15.22-.36.54-.64.94l-2.44,3.52-8.71,12.47,0,.05h-18l-27.58,0-8.36,0-2.28,0h-.79l.2,0h.59l2.28,0,8.36,0,27.58,0h18l-.08.05,8.78-12.43,2.49-3.49c.28-.39.51-.7.66-.92l.18-.23Z" style="fill:#263238"></path><polygon points="682.43 240.1 695.17 255.72 651.26 255.72 642.09 240.1 682.43 240.1" style="fill:#00E674"></polygon><path d="M646.05,235.18l7.6,4.34,6.9,31.46,9.94,3.65s1.54-34.27-.82-39.72-12.5-19.43-12.5-19.43Z" style="fill:#b78876"></path><path d="M659.41,290.19s9.46-6.25,10.18-9.45,1.17-6.11,1.17-6.11l-10.11-4.19,1,3.64s-3.63,2.16-4,4.77c-.24,1.74-4.93,4.71-4.93,4.71h0a3.85,3.85,0,0,0-3.25-1.39l-3.93.28,2.66,6Z" style="fill:#b78876"></path><path d="M663.11,281.62a1.85,1.85,0,0,1-.45.18c-.3.1-.74.19-1.25.36a5.1,5.1,0,0,0-1.65,1,8,8,0,0,1-2,1.28,6.86,6.86,0,0,1-4.29.36,2.14,2.14,0,0,1-.71-.27.53.53,0,0,1-.27-.52.37.37,0,0,1,.22-.3c.08,0,.13,0,.13,0l-.11,0a.35.35,0,0,0-.15.28.42.42,0,0,0,.24.41,2.33,2.33,0,0,0,.69.22,7.07,7.07,0,0,0,4.17-.41,8.65,8.65,0,0,0,2-1.24,5,5,0,0,1,1.72-.94c.54-.16,1-.23,1.28-.3A2.17,2.17,0,0,1,663.11,281.62Z" style="fill:#aa6550"></path><path d="M656.55,286.47s-.48-.25-1.29-.58a11.53,11.53,0,0,0-3.28-.81c-.33,0-.65-.05-1-.06H651l0,0a9.73,9.73,0,0,0-1.76-2.07c-.51-.46-.85-.7-.83-.73s.1,0,.26.14a5.7,5.7,0,0,1,.66.48,8.85,8.85,0,0,1,1.85,2.07l-.09-.05a8.31,8.31,0,0,1,1,.05,10.29,10.29,0,0,1,3.33.89,9.77,9.77,0,0,1,.92.49A1.48,1.48,0,0,1,656.55,286.47Z" style="fill:#aa6550"></path><path d="M659.11,284.75c0,.06-.64.3-1.38.73s-1.29.86-1.34.81a3.28,3.28,0,0,1,1.23-1A3.48,3.48,0,0,1,659.11,284.75Z" style="fill:#aa6550"></path><path d="M664.23,273.5c0,.07-.65,0-1.41.19a13.22,13.22,0,0,0-1.33.53,2.75,2.75,0,0,1,2.74-.72Z" style="fill:#aa6550"></path><path d="M479,138.09c.74.25,14.32,7.16,14.32,7.16l-3.85,7.81L479,150.19s2.72.82,2.22,2.87a1.43,1.43,0,0,1-2.22,1.08l-7.51-3.26a2.05,2.05,0,0,1-1.24-2l.36-6.85Z" style="fill:#b78876"></path><path d="M479.42,155.38s41.26,15.17,41.26,15.75.58,3.4-2.52,2.28-39.93-14-39.93-14-36.31,11.19-37.32,10.31-2.17-2.62,0-3.29C442,166.06,479.42,155.38,479.42,155.38Z" style="fill:#263238"></path><rect x="478.6" y="147.91" width="1" height="7.49" transform="translate(-11.26 41.74) rotate(-4.93)" style="fill:#e0e0e0"></rect><path d="M501.58,163.61,498,221.14s10.53,27.09,12,42.17,5.52,138.26,5.52,138.26H482.83l-4.6-113.38-3.49,111.54L440.91,399s4.78-133.84,7-146,9.56-31.66,9.56-31.66l-3.29-58.76,3.44-1,.95,14.19,19.67,22.43,18.57-23.17.94-12.89Z" style="fill:#00E674"></path><path d="M457.46,221.35A9.46,9.46,0,0,1,459,222c.47.24,1.06.53,1.76.81s1.48.66,2.39,1,1.88.68,3,1,2.24.58,3.47.87a48,48,0,0,0,8.13.89,47.43,47.43,0,0,0,8.16-.61c1.24-.24,2.42-.43,3.5-.74s2.09-.57,3-.86,1.71-.62,2.42-.88a19.47,19.47,0,0,0,1.8-.75,11.44,11.44,0,0,1,1.54-.63,10.38,10.38,0,0,1-1.45.82,18,18,0,0,1-1.77.83c-.71.29-1.5.66-2.42.95a28.12,28.12,0,0,1-3,.94c-1.09.33-2.28.54-3.53.8a46.32,46.32,0,0,1-8.25.65,45,45,0,0,1-8.22-.95c-1.23-.29-2.42-.55-3.49-.92a30,30,0,0,1-3-1c-.91-.32-1.68-.72-2.38-1a18.3,18.3,0,0,1-1.74-.89A10.16,10.16,0,0,1,457.46,221.35Z" style="fill:#263238"></path><path d="M498.38,235.74a36.09,36.09,0,0,1-2.65-5.5,36.22,36.22,0,0,1-2.18-5.71,36.06,36.06,0,0,1,2.66,5.5A35.15,35.15,0,0,1,498.38,235.74Z" style="fill:#263238"></path><path d="M492.84,238.91a48.16,48.16,0,0,1-1.17-7,47.37,47.37,0,0,1-.65-7.05,49.86,49.86,0,0,1,1.17,7A48.93,48.93,0,0,1,492.84,238.91Z" style="fill:#263238"></path><path d="M465.44,235.3a13.66,13.66,0,0,1,.87-4.91,14.13,14.13,0,0,1,2.09-4.53c.14.07-.79,2.09-1.6,4.68S465.59,235.32,465.44,235.3Z" style="fill:#263238"></path><path d="M459.07,243.71a2.43,2.43,0,0,1-.08-.81,21.12,21.12,0,0,1,.07-2.23,32.43,32.43,0,0,1,4.37-13.94,20.2,20.2,0,0,1,1.22-1.86c.31-.43.5-.65.53-.63s-.56,1-1.43,2.67a39.06,39.06,0,0,0-4.33,13.8C459.2,242.56,459.15,243.71,459.07,243.71Z" style="fill:#263238"></path><path d="M478.35,197.74s-.16-.1-.34-.39a2.31,2.31,0,0,1-.28-1.45,2.21,2.21,0,0,1,1.38-1.86,2.5,2.5,0,0,1,2.92.86l-.34.18a7,7,0,0,1-.69-3.64,2.68,2.68,0,0,1,1.2-1.79,2,2,0,0,1,2.29-.05l-.31.38a3.16,3.16,0,0,1-.73-3.51,2.75,2.75,0,0,1,1.38-1.43,3.26,3.26,0,0,1,2-.25,2.89,2.89,0,0,1,1.31.62l-.41.29a4,4,0,0,1,.31-4,2.45,2.45,0,0,1,1.83-.81,1.84,1.84,0,0,1,1.71.93l-.44.19a8.86,8.86,0,0,1-.49-2.08,3,3,0,0,1,.51-2,1.81,1.81,0,0,1,1.73-.82,1.51,1.51,0,0,1,1.34,1.12l-.35.08a4.72,4.72,0,0,1-.09-2.57,1.52,1.52,0,0,1,.65-.88,1.76,1.76,0,0,1,.88-.25,1.19,1.19,0,0,1,1.08.54.58.58,0,0,1,.08.41s0-.15-.17-.36a1.09,1.09,0,0,0-1-.39,1.34,1.34,0,0,0-1.27,1,4.56,4.56,0,0,0,.18,2.41l-.35.07a1.13,1.13,0,0,0-1-.8,1.42,1.42,0,0,0-1.33.67,2.67,2.67,0,0,0-.41,1.71,8.79,8.79,0,0,0,.49,2l-.44.18c-.44-.91-2-.85-2.72,0a3.48,3.48,0,0,0-.21,3.45l.37.94-.78-.65a2.44,2.44,0,0,0-1.08-.5,2.51,2.51,0,0,0-2.81,1.37,2.67,2.67,0,0,0,.58,2.94l-.31.38a1.51,1.51,0,0,0-1.74.06,2.23,2.23,0,0,0-1,1.48,6.61,6.61,0,0,0,.61,3.41l.52,1.47-.86-1.3a2.21,2.21,0,0,0-2.5-.79,2,2,0,0,0-1.27,1.61,2.38,2.38,0,0,0,.17,1.37C478.25,197.59,478.37,197.72,478.35,197.74Z" style="fill:#00E674"></path><path d="M459.32,175.05a1.23,1.23,0,0,1,.46-.1,3,3,0,0,1,2.91,1.65,3.22,3.22,0,0,1,0,2.83l-.32-.2a2.42,2.42,0,0,1,2.17-.87,3.64,3.64,0,0,1,2.33,1.14,5.06,5.06,0,0,1,1.14,2.58,15.1,15.1,0,0,1,.14,2.94l-.49-.1a1.49,1.49,0,0,1,.91-.83,2.08,2.08,0,0,1,1.21,0,2.36,2.36,0,0,1,1.06.58,2.19,2.19,0,0,1,.58,1.09,4.77,4.77,0,0,1-.69,3.33l-1,1.82.51-2a2,2,0,0,1,2.05-1.38,2.45,2.45,0,0,1,1.95,1.35,3.7,3.7,0,0,1,.36,2.19,7.36,7.36,0,0,1-.55,1.95l-.4-.16a2,2,0,0,1,1.85-1.09,2.23,2.23,0,0,1,1.74.82,3.78,3.78,0,0,1,.78,2.9,9.22,9.22,0,0,1-.47,1.87,2.67,2.67,0,0,1-.27.62,2.8,2.8,0,0,1,.14-.66,9.68,9.68,0,0,0,.35-1.85,3.54,3.54,0,0,0-.79-2.65,1.91,1.91,0,0,0-1.48-.66,1.58,1.58,0,0,0-1.46.87l-.39-.17a4.41,4.41,0,0,0,.16-3.74,1.94,1.94,0,0,0-1.54-1.09,1.49,1.49,0,0,0-1.53,1l-.47-.18a4.3,4.3,0,0,0,.64-3,1.68,1.68,0,0,0-1.27-1.29,1.25,1.25,0,0,0-1.52.55l-.53,1.37,0-1.47a14.82,14.82,0,0,0-.11-2.85,4.64,4.64,0,0,0-1-2.35c-1.08-1.21-3.07-1.41-3.86-.35l-.32-.2a2.92,2.92,0,0,0,.06-2.53,2.85,2.85,0,0,0-1.39-1.38A3.88,3.88,0,0,0,459.32,175.05Z" style="fill:#00E674"></path><path d="M457.85,169.89a6.82,6.82,0,0,1-1,.91c-.65.56-1.59,1.38-2.69,2.44s-2.39,2.37-3.73,3.9c-.66.76-1.34,1.58-2,2.45a13.22,13.22,0,0,0-1,1.34c-.26.46-.36,1,0,1.28s.88.13,1.33-.12a8.53,8.53,0,0,0,1.29-1,29.7,29.7,0,0,0,2.26-2.21,31.86,31.86,0,0,0,3.32-4.22c.85-1.28,1.45-2.36,1.86-3.12a6.68,6.68,0,0,1,.66-1.17,6.88,6.88,0,0,1-.48,1.26,26.76,26.76,0,0,1-1.73,3.23,29.84,29.84,0,0,1-3.27,4.34,30.56,30.56,0,0,1-2.28,2.27,8.46,8.46,0,0,1-1.38,1.08,2.63,2.63,0,0,1-.89.32,1.23,1.23,0,0,1-1-.26,1.18,1.18,0,0,1-.4-1,2.43,2.43,0,0,1,.3-.92,14.46,14.46,0,0,1,1-1.4c.69-.88,1.38-1.7,2.06-2.46a53.58,53.58,0,0,1,3.84-3.85c1.14-1,2.12-1.81,2.81-2.33A5.71,5.71,0,0,1,457.85,169.89Z" style="fill:#263238"></path><polygon points="453.04 184.59 440.9 196.69 434.19 190 446.33 177.9 453.04 184.59" style="fill:#455a64"></polygon><path d="M442.58,185.09l1.07,1.73c.67-.33,1.37-.67,1.94-.07s.44,1.7-.4,2.54l.46.74-.27.25-.46-.75a2.59,2.59,0,0,1-1.66.65l-.1-.5a2.33,2.33,0,0,0,1.51-.56l-1.07-1.71c-.64.32-1.32.6-1.89,0s-.46-1.66.34-2.48l-.46-.74.27-.25.46.75a2.76,2.76,0,0,1,1.34-.64l.13.48A2.37,2.37,0,0,0,442.58,185.09Zm.75,1.89-1-1.64c-.54.58-.65,1.22-.24,1.66S442.84,187.21,443.33,187Zm.59.26,1,1.63c.58-.59.73-1.23.31-1.69S444.43,187,443.92,187.24Z" style="fill:#fff"></path><path d="M481.45,142.92,474,145.81c-.29.12-.63.29-.68.6s.23.55.49.7a4.27,4.27,0,0,0,2.26.47c.78,0,1.55-.16,2.32-.2a2.72,2.72,0,0,1,1.33.19,4,4,0,0,1,1.06,1,7,7,0,0,0,3.48,2.1,5.8,5.8,0,0,0,4-.44" style="fill:#b78876"></path><path d="M488.25,150.21a2.34,2.34,0,0,1-.9.47,5.79,5.79,0,0,1-2.78.23,6.85,6.85,0,0,1-3.68-1.88c-.58-.55-1-1.28-1.73-1.36a4.47,4.47,0,0,0-1.21,0l-1.3.11a5.23,5.23,0,0,1-2.65-.29,2.47,2.47,0,0,1-.6-.35.93.93,0,0,1-.35-.73.86.86,0,0,1,.46-.65,3,3,0,0,1,.57-.25l3.81-1.42c1.09-.4,2-.71,2.59-.92a3.41,3.41,0,0,1,1-.26,3.61,3.61,0,0,1-.9.45c-.59.27-1.45.63-2.52,1.07L474.26,146c-.36.13-.72.31-.71.49s.3.45.65.58a4.76,4.76,0,0,0,2.43.24l1.3-.11a4.5,4.5,0,0,1,1.32,0,2.06,2.06,0,0,1,1.19.65c.3.31.53.61.79.87a6.72,6.72,0,0,0,3.41,1.86,6.08,6.08,0,0,0,2.65-.07C487.91,150.33,488.23,150.17,488.25,150.21Z" style="fill:#aa6550"></path><path d="M474.87,147.66a20,20,0,0,0,4.23,2.46,5.39,5.39,0,0,1,1.52,1,2,2,0,0,1,.61,1.65c-.1.6-1,1.68-1.57,1.6l-8.41-3.57" style="fill:#b78876"></path><path d="M471.25,150.79a14.44,14.44,0,0,1,2.5.87c1.53.6,3.65,1.46,6,2.46l-.06,0a.92.92,0,0,0,.58-.3,2.83,2.83,0,0,0,.57-.73,1.19,1.19,0,0,0,.12-.8,2.18,2.18,0,0,0-1-1.35c-.94-.63-2-1-2.77-1.51a7.19,7.19,0,0,1-2.38-1.75c.05-.06.92.65,2.55,1.42a29.88,29.88,0,0,1,2.88,1.45,2.62,2.62,0,0,1,1.17,1.64,1.7,1.7,0,0,1-.16,1.13,3.29,3.29,0,0,1-.68.89,1.33,1.33,0,0,1-1,.42h-.07c-2.36-1-4.45-1.93-5.94-2.62A13.9,13.9,0,0,1,471.25,150.79Z" style="fill:#aa6550"></path></g><g id="freepik--character-1--inject-13"><polygon points="72.44 338.57 84.86 450.05 101.25 450.81 106.12 337.19 72.44 338.57" style="fill:#ffbe9d"></polygon><path d="M139.67,343.65s.78,7.47-1.21,11.57-40.59,66.94-40.59,66.94l-9.36-24.23,25.9-53.54Z" style="fill:#ffbe9d"></path><path d="M105.59,355.87c.15,0-.7,20.84-1.9,46.53s-2.3,46.51-2.45,46.5.7-20.83,1.9-46.53S105.44,355.87,105.59,355.87Z" style="fill:#eb996e"></path><path d="M101.94,448.13h0s18.76,7.6,18.87,11.11l-36.66-1.09.23-9.59,1.34.35A27.3,27.3,0,0,0,101.94,448.13Z" style="fill:#00E674"></path><g style="opacity:0.6000000000000001"><path d="M88.57,450.48a1.5,1.5,0,0,0-1.09,1.68,1.45,1.45,0,0,0,1.66,1.09,1.58,1.58,0,0,0,1.14-1.78,1.49,1.49,0,0,0-1.85-1" style="fill:#fff"></path></g><g style="opacity:0.6000000000000001"><path d="M84.15,458.15l.19-3,35.08,2.16s1.61.75,1.39,1.9Z" style="fill:#fff"></path></g><path d="M102.54,448c0,.18-.91.24-1.8.79S99.35,450,99.18,450s.14-1.1,1.24-1.75S102.59,447.8,102.54,448Z" style="fill:#263238"></path><path d="M106.34,449.67c0,.17-.75.46-1.38,1.19s-.83,1.54-1,1.53-.26-1,.54-1.94S106.34,449.5,106.34,449.67Z" style="fill:#263238"></path><path d="M108.39,454.34c-.17,0-.39-.87.1-1.84s1.34-1.33,1.41-1.18-.46.66-.85,1.46S108.57,454.32,108.39,454.34Z" style="fill:#263238"></path><path d="M102.15,447.85a3.52,3.52,0,0,1-1.84-.07,7.87,7.87,0,0,1-1.9-.64,10.09,10.09,0,0,1-1-.59,2.34,2.34,0,0,1-.54-.45.79.79,0,0,1,0-1,1,1,0,0,1,.79-.38,2.69,2.69,0,0,1,.69.11,6.61,6.61,0,0,1,1.13.43,6.53,6.53,0,0,1,1.66,1.16c.82.81,1.1,1.49,1,1.52s-.48-.51-1.32-1.19a7.79,7.79,0,0,0-1.61-1,8.09,8.09,0,0,0-1.05-.36c-.38-.11-.71-.12-.82.05s0,.09,0,.2a1.68,1.68,0,0,0,.39.33,9.94,9.94,0,0,0,1,.59,10.44,10.44,0,0,0,1.75.73A12.1,12.1,0,0,1,102.15,447.85Z" style="fill:#263238"></path><path d="M101.91,448.1a2.91,2.91,0,0,1-.43-1.79,5.62,5.62,0,0,1,.31-2,5.13,5.13,0,0,1,.5-1.1,1.51,1.51,0,0,1,1.2-.9.87.87,0,0,1,.75.54,2.81,2.81,0,0,1,.17.68,4.25,4.25,0,0,1,0,1.24,4.32,4.32,0,0,1-.84,1.87c-.75.93-1.5,1.12-1.51,1.06s.58-.42,1.15-1.32a4.27,4.27,0,0,0,.63-1.71,3.76,3.76,0,0,0,0-1.06c0-.39-.18-.71-.33-.67s-.5.27-.66.58a5.54,5.54,0,0,0-.48,1,6.58,6.58,0,0,0-.41,1.82C101.83,447.4,102,448.07,101.91,448.1Z" style="fill:#263238"></path><path d="M90.69,409.48s0-.37,0-1a6.92,6.92,0,0,0-1-2.53A8,8,0,0,1,88.06,402a3,3,0,0,1,.29-1.26,9.25,9.25,0,0,1,.68-1.1,2.7,2.7,0,0,0,.5-1.06,1.08,1.08,0,0,0-.4-1c-.29-.29-.69-.52-1-.88a1.58,1.58,0,0,1-.39-1.43c.24-.93.78-1.56.76-2.28,0-1.47-1.07-2.62-1.42-3.79a3,3,0,0,1-.12-1.66,2.21,2.21,0,0,1,.64-1.09c.55-.48,1-.36,1-.34a1.89,1.89,0,0,0-.85.48,2.3,2.3,0,0,0-.31,2.49,14.32,14.32,0,0,0,.86,1.7,4.84,4.84,0,0,1,.68,2.22c0,.9-.58,1.65-.73,2.37a1.05,1.05,0,0,0,.28,1c.26.29.64.52,1,.85a1.58,1.58,0,0,1,.55,1.42,3.22,3.22,0,0,1-.59,1.28,3.57,3.57,0,0,0-.91,2.08,8,8,0,0,0,1.37,3.75,6.51,6.51,0,0,1,.94,2.69A1.8,1.8,0,0,1,90.69,409.48Z" style="fill:#eb996e"></path><path d="M80.88,250.87S69.93,266.49,68,274.36s-5,106.59-5,106.59,15.67-7.67,21.74-4.74,25,6.51,33.84,4.74,22.09.47,22.09.47-2.21-87.39-3.4-95.81-7.64-32.09-7.64-32.09Z" style="fill:#263238"></path><path d="M66.08,301.81s0-.1.17-.18a1.52,1.52,0,0,1,.65-.22,3.49,3.49,0,0,1,2.5.76,8.54,8.54,0,0,1,2.54,3.14,6.61,6.61,0,0,1,.48,1.18c.14.48.19.87.28,1.26a11.14,11.14,0,0,0,.69,2.35,3.61,3.61,0,0,0,1.47,1.74,5.9,5.9,0,0,0,2.59.57l1.64,0a10.73,10.73,0,0,1,1.9.19,7.26,7.26,0,0,1,2,.69A4.55,4.55,0,0,1,84.77,315a4,4,0,0,1,.5,2.57,6,6,0,0,1-.84,2.23C83.7,321,82.84,322,82.38,323a3.39,3.39,0,0,0,0,2.92,13.61,13.61,0,0,0,2.09,3.19c.42.52.93,1.11,1.36,1.75a12.54,12.54,0,0,1,1.15,2,8.09,8.09,0,0,1,.66,2.35,5.23,5.23,0,0,1-.37,2.63,5.13,5.13,0,0,1-1.68,2.05,7,7,0,0,1-2.14,1c-1.4.39-2.65.51-3.74.79a6.84,6.84,0,0,0-1.45.51,3.38,3.38,0,0,0-1,.8,5.84,5.84,0,0,0-1,2.62c-.19,1-.31,2.1-.58,3.17a6.9,6.9,0,0,1-1.5,3,5.42,5.42,0,0,1-5.43,1.52,8.83,8.83,0,0,1-3.45-2.17A4.09,4.09,0,0,1,64,348.92c-.07-.62.1-.91.17-.9s.13.31.33.76a4.61,4.61,0,0,0,1.43,1.64,8.73,8.73,0,0,0,3.12,1.51,4,4,0,0,0,3.7-1.32,5.09,5.09,0,0,0,.92-2.24c.18-.92.25-1.94.42-3.09a7.65,7.65,0,0,1,1.34-3.67,5.48,5.48,0,0,1,1.69-1.45,9.08,9.08,0,0,1,2-.77c1.3-.36,2.56-.52,3.65-.86a4.52,4.52,0,0,0,1.38-.64,2.49,2.49,0,0,0,.8-1A3.72,3.72,0,0,0,84.6,334a10,10,0,0,0-.92-1.6c-.36-.53-.77-1-1.24-1.59A15.66,15.66,0,0,1,80,326.91a6.64,6.64,0,0,1-.5-2.5,5.86,5.86,0,0,1,.61-2.49,36.17,36.17,0,0,1,2.22-3.4,2.28,2.28,0,0,0,.39-2.33,3.32,3.32,0,0,0-2.18-1.31,23.08,23.08,0,0,0-3.21-.32,7.68,7.68,0,0,1-3.49-1,5.45,5.45,0,0,1-2.12-2.75,12.06,12.06,0,0,1-.63-2.78c0-.43-.09-.86-.14-1.14a7,7,0,0,0-.31-1A8.42,8.42,0,0,0,68.75,303a3.44,3.44,0,0,0-1.84-1C66.41,301.85,66.12,301.92,66.08,301.81Z" style="fill:#455a64"></path><path d="M68,336.26c-.71.13-1.49-.9-1.75-2.29s.11-2.63.82-2.76,1.49.89,1.74,2.29S68.69,336.13,68,336.26Z" style="fill:#455a64"></path><path d="M73.36,331.55c-.5.52-1.6.27-2.45-.55s-1.15-1.92-.65-2.43,1.6-.27,2.45.55S73.86,331,73.36,331.55Z" style="fill:#455a64"></path><path d="M72.44,320.88c.57.43.29,1.76-.63,3s-2.13,1.83-2.7,1.39-.29-1.77.63-3S71.86,320.44,72.44,320.88Z" style="fill:#455a64"></path><path d="M68.43,315.71c.72.09,1.16,1.29,1,2.68s-.88,2.46-1.6,2.37-1.15-1.28-1-2.68S67.72,315.63,68.43,315.71Z" style="fill:#455a64"></path><path d="M140.68,321.38c0,.05-.17.33-.75.55a4.48,4.48,0,0,1-2.63,0,8.92,8.92,0,0,1-3.66-2,6.13,6.13,0,0,1-.9-1,4.88,4.88,0,0,1-.66-1.31,12.12,12.12,0,0,0-1.07-2.31,3.75,3.75,0,0,0-1.74-1.59,5.37,5.37,0,0,0-2.68-.19l-1.67.24a10.19,10.19,0,0,1-2,.13,7.18,7.18,0,0,1-2.13-.37,4.33,4.33,0,0,1-2.06-1.44,4,4,0,0,1-.83-2.55,6.55,6.55,0,0,1,.55-2.34,24.68,24.68,0,0,0,1.44-3.54,3.51,3.51,0,0,0-.74-2.94,17.44,17.44,0,0,0-2.81-2.84,13.42,13.42,0,0,1-3.09-3.61,6.82,6.82,0,0,1-.83-2.46,4.74,4.74,0,0,1,.47-2.74,5.15,5.15,0,0,1,1.76-2,9.72,9.72,0,0,1,2-1,29.92,29.92,0,0,0,3.44-1.41,3.36,3.36,0,0,0,1.73-2.08,11.18,11.18,0,0,0,.23-3.13,14.89,14.89,0,0,1,.25-3.49,6.3,6.3,0,0,1,.68-1.71,5.18,5.18,0,0,1,1.17-1.33,5.64,5.64,0,0,1,2.93-1.25,5.28,5.28,0,0,1,1.49.06c.44.09.72.15,1.12.21a8.89,8.89,0,0,1,3.92,1.23,5.55,5.55,0,0,1,1.78,1.91c.28.53.35.83.28.87s-.31-.16-.69-.55a7.29,7.29,0,0,0-1.87-1.35,9,9,0,0,0-3.57-.67c-.36,0-.85-.07-1.21-.11a3.91,3.91,0,0,0-1,0,4,4,0,0,0-2,1,3.59,3.59,0,0,0-1.09,2.07,13.29,13.29,0,0,0,0,3,12.87,12.87,0,0,1-.18,3.8,5.69,5.69,0,0,1-2.72,3.55,28.33,28.33,0,0,1-3.71,1.65,4.32,4.32,0,0,0-2.44,1.85,3,3,0,0,0,.33,2.82,11.14,11.14,0,0,0,2.54,2.89,19.2,19.2,0,0,1,3.22,3.32,7.26,7.26,0,0,1,1.1,2.33,5.65,5.65,0,0,1,0,2.65,22.65,22.65,0,0,1-1.64,3.94,4.56,4.56,0,0,0-.4,1.45,1.6,1.6,0,0,0,.3,1,3.17,3.17,0,0,0,2.39,1,23.65,23.65,0,0,0,3.31-.24,7.4,7.4,0,0,1,3.71.5,5.61,5.61,0,0,1,2.51,2.5,14,14,0,0,1,1.06,2.71,3.3,3.3,0,0,0,.36,1,6,6,0,0,0,.63.8,8.86,8.86,0,0,0,3,2.05C139.49,321.8,140.59,321.18,140.68,321.38Z" style="fill:#455a64"></path><path d="M131.84,288.52c.68-.25,1.62.63,2.1,2s.33,2.61-.34,2.85-1.62-.63-2.1-2S131.16,288.77,131.84,288.52Z" style="fill:#455a64"></path><path d="M127.33,294.06c.41-.59,1.53-.53,2.51.14s1.46,1.69,1,2.28-1.53.54-2.51-.13S126.93,294.66,127.33,294.06Z" style="fill:#455a64"></path><path d="M130,304.43c-.64-.33-.58-1.69.12-3s1.79-2.16,2.43-1.83.58,1.69-.12,3S130.67,304.76,130,304.43Z" style="fill:#455a64"></path><path d="M134.85,308.85c-.72,0-1.36-1.07-1.43-2.48s.46-2.56,1.17-2.6,1.36,1.07,1.43,2.47S135.57,308.81,134.85,308.85Z" style="fill:#455a64"></path><path d="M134.18,339.27s.69-.12,1.53.75a5.64,5.64,0,0,1,.89,4.76c-.22,1.08-.67,2.11-1,3.26a6.37,6.37,0,0,0-.35,3.55,8.2,8.2,0,0,0,2.51,3.3,15.29,15.29,0,0,1,1.8,2,4.24,4.24,0,0,1,.84,3.14,3.85,3.85,0,0,1-.67,1.65,5.85,5.85,0,0,1-1.18,1.2c-.85.65-1.73,1.11-2.51,1.61a7.42,7.42,0,0,0-1,.8,2.49,2.49,0,0,0-.41.45,2.7,2.7,0,0,0-.35.51,9.53,9.53,0,0,0-.94,2.64c-.24,1-.41,2.06-.71,3.2a7.55,7.55,0,0,1-1.78,3.47,5.24,5.24,0,0,1-1.9,1.16,5,5,0,0,1-2.23.2,7.82,7.82,0,0,1-3.75-1.72,18.41,18.41,0,0,1-2.7-2.76,15.89,15.89,0,0,0-2.42-2.43,4.44,4.44,0,0,0-2.78-.93,8.22,8.22,0,0,0-3.2.9c-1.11.51-2.25,1.17-3.51,1.76a13.05,13.05,0,0,1-4.21,1.27,11.19,11.19,0,0,1-4.55-.35,8.78,8.78,0,0,1-4.06-2.52,8.24,8.24,0,0,1-2-4.39,7.24,7.24,0,0,1,.94-4.76A8.55,8.55,0,0,1,98,358a22.13,22.13,0,0,0,3.24-1.78,3,3,0,0,0,1.26-2.33,9.45,9.45,0,0,0-.77-3.21,22.46,22.46,0,0,1-1.18-3.72,14.41,14.41,0,0,1-.31-3.93,10.91,10.91,0,0,1,.92-3.85,8.28,8.28,0,0,1,2.43-3.12,8.4,8.4,0,0,1,3.45-1.67,6.61,6.61,0,0,1,3.81.23,12,12,0,0,1,2.85,1.81,2,2,0,0,0,1.91.45,3.26,3.26,0,0,0,1.59-1.5,10.54,10.54,0,0,0,.91-2.38,12.75,12.75,0,0,1,1.06-2.65,5.6,5.6,0,0,1,2.08-2,7.15,7.15,0,0,1,5-.68,7.86,7.86,0,0,1,3.83,2,10.43,10.43,0,0,1,2.11,2.85,15,15,0,0,1,1.44,4.54c.15,1.07.14,1.64.06,1.66s-.26-.53-.57-1.54a19,19,0,0,0-1.81-4.17,7.71,7.71,0,0,0-5.33-3.89,5.65,5.65,0,0,0-3.9.66,4,4,0,0,0-1.4,1.5,10.55,10.55,0,0,0-.81,2.29c-.44,1.66-1.05,4.13-3.55,5.25a3.57,3.57,0,0,1-2,.17,5.08,5.08,0,0,1-1.73-.76,11.4,11.4,0,0,0-2.44-1.53,5.41,5.41,0,0,0-5.08,1.2,6,6,0,0,0-1.73,2.3,8.82,8.82,0,0,0-.67,3,12.82,12.82,0,0,0,.31,3.29,21.07,21.07,0,0,0,1.11,3.34,11.36,11.36,0,0,1,1,4.15,5.39,5.39,0,0,1-.61,2.42,6,6,0,0,1-1.6,1.86,22.15,22.15,0,0,1-3.62,2.07,6,6,0,0,0-2.55,2,5.36,5.36,0,0,0,.78,6.07,7.36,7.36,0,0,0,6.36,2,10.7,10.7,0,0,0,3.42-1c1.14-.53,2.29-1.18,3.54-1.75a10.66,10.66,0,0,1,4.23-1.1,6.93,6.93,0,0,1,4.28,1.45c2.3,1.76,3.5,4,5.14,5.31a5.64,5.64,0,0,0,2.58,1.28,2.65,2.65,0,0,0,2.21-.68,5.48,5.48,0,0,0,1.23-2.42c.28-1,.48-2.05.76-3.13a11.22,11.22,0,0,1,1.26-3.2,4.33,4.33,0,0,1,.53-.74,4.92,4.92,0,0,1,.63-.66,10.5,10.5,0,0,1,1.36-1c.9-.54,1.75-1,2.42-1.45a2.59,2.59,0,0,0,1.19-1.62c.3-1.22-.88-2.48-2-3.63a9.31,9.31,0,0,1-2.74-4.13,7.48,7.48,0,0,1,.59-4.3c.45-1.17,1-2.2,1.21-3.08a5.39,5.39,0,0,0-.32-4.21C134.74,339.53,134.13,339.39,134.18,339.27Z" style="fill:#455a64"></path><path d="M117.69,351.7c-.51.51-1.74.1-2.75-.91s-1.41-2.24-.9-2.74,1.74-.11,2.74.9S118.2,351.19,117.69,351.7Z" style="fill:#455a64"></path><path d="M115.74,357.79c.3.65-.76,1.78-2.38,2.52s-3.16.81-3.46.16.76-1.79,2.38-2.53S115.44,357.13,115.74,357.79Z" style="fill:#455a64"></path><path d="M125.24,363.88c-.65.3-1.67-.48-2.27-1.76s-.57-2.56.08-2.87,1.67.48,2.27,1.76S125.89,363.57,125.24,363.88Z" style="fill:#455a64"></path><path d="M129.88,353.18a1,1,0,0,1,0,1.19,3,3,0,0,1-3.77,1c-.5-.29-.7-.69-.61-1a1.46,1.46,0,0,1,.76-.81,5.43,5.43,0,0,1,1.25-.49,5.79,5.79,0,0,1,1.32-.2A1.44,1.44,0,0,1,129.88,353.18Z" style="fill:#455a64"></path><path d="M124.75,343.17c.69.21.87,1.68.4,3.29s-1.41,2.76-2.1,2.56-.87-1.67-.4-3.29S124.06,343,124.75,343.17Z" style="fill:#455a64"></path><path d="M91.21,269.54a25.17,25.17,0,0,0-3.89-2.81,7.89,7.89,0,0,0-2.28-.92,11.72,11.72,0,0,0-2.93-.28,15.8,15.8,0,0,0-3.38.45,4.18,4.18,0,0,0-2.49,2.07,4.55,4.55,0,0,0-.6,3.47,6.29,6.29,0,0,0,1,1.74c.23.32.48.66.73,1a5.82,5.82,0,0,1,.66,1.32,4.73,4.73,0,0,1,.29,1.59,3.27,3.27,0,0,1-.5,1.81,3.39,3.39,0,0,1-1.47,1.22,8.67,8.67,0,0,1-1.42.47,4.52,4.52,0,0,0-1,.37,2.71,2.71,0,0,0-.74.59,3.92,3.92,0,0,0-.89,1.88,4.72,4.72,0,0,0,.12,2.21,5.73,5.73,0,0,0,1.22,2,10,10,0,0,0,4.57,2.61,12.06,12.06,0,0,1,3.16,1.33,4.7,4.7,0,0,1,1.46,1.57,4.64,4.64,0,0,1,.55,2.07,14.19,14.19,0,0,1-.49,3.43,4.53,4.53,0,0,0,0,2.46,3.87,3.87,0,0,0,3.8,2.21,5.44,5.44,0,0,0,4-2.73,7.84,7.84,0,0,0,1-2.42c.22-.9.38-1.88.64-2.89a8.51,8.51,0,0,1,1.32-3.08,5.5,5.5,0,0,1,2.9-2c2.17-.61,4.11-.26,5.58-.52a5.22,5.22,0,0,0,2-.71,1.85,1.85,0,0,0,.88-1.3c.23-1-.76-2.25-1.7-3.43a16.41,16.41,0,0,1-1.39-2,5.91,5.91,0,0,1-.8-2.44c-.07-1.7.47-3,.38-4a1.61,1.61,0,0,0-1.61-1.59,25.75,25.75,0,0,0-3,.1,5.09,5.09,0,0,1-2.84-.61,5,5,0,0,1-1.58-1.64,10.69,10.69,0,0,1-.73-1.39c-.34-.77-.49-1.18-.41-1.23s.38.29.86,1c.25.34.53.76.91,1.21a4.43,4.43,0,0,0,1.44,1.21,4.09,4.09,0,0,0,2.27.25,23.43,23.43,0,0,1,3.21-.32,3.37,3.37,0,0,1,2,.76,3.22,3.22,0,0,1,1.1,2.13c.15,1.55-.33,2.88-.2,4a6.88,6.88,0,0,0,1.92,3.29,17.2,17.2,0,0,1,1.52,2,6.13,6.13,0,0,1,.62,1.34,4.18,4.18,0,0,1,.14,1.66,4.07,4.07,0,0,1-1.75,2.84,7.27,7.27,0,0,1-2.86,1.13,19.49,19.49,0,0,1-2.84.22,9.73,9.73,0,0,0-2.41.34,3,3,0,0,0-1.64,1.18,6.48,6.48,0,0,0-.89,2.24c-.21.88-.36,1.86-.6,2.89A10.15,10.15,0,0,1,92.8,302a8,8,0,0,1-5.92,4,6.66,6.66,0,0,1-3.79-.87,5.91,5.91,0,0,1-2.67-3,6.93,6.93,0,0,1-.09-3.87,13.3,13.3,0,0,0,.45-2.81,1.86,1.86,0,0,0-.87-1.62,9.59,9.59,0,0,0-2.49-1,12.51,12.51,0,0,1-5.62-3.37,8.08,8.08,0,0,1-1.72-2.95,7,7,0,0,1-.14-3.4,6.21,6.21,0,0,1,1.52-3,5,5,0,0,1,1.4-1.05,6.5,6.5,0,0,1,1.49-.52,7.06,7.06,0,0,0,1.09-.32,1.11,1.11,0,0,0,.52-.38,1.74,1.74,0,0,0,0-1.48c-.32-1.18-1.73-2.35-2.29-4.23a6.38,6.38,0,0,1,1-5,5.85,5.85,0,0,1,3.7-2.73,16.4,16.4,0,0,1,3.75-.28,12.55,12.55,0,0,1,3.25.53,9,9,0,0,1,2.48,1.25,12,12,0,0,1,2.77,2.5C91.14,269.05,91.28,269.5,91.21,269.54Z" style="fill:#455a64"></path><path d="M86.29,283.55c.08.71-.74,1.39-1.83,1.51s-2-.36-2.11-1.07.74-1.39,1.82-1.52S86.21,282.83,86.29,283.55Z" style="fill:#455a64"></path><path d="M89,287.64c.7.17,1,1.39.67,2.71s-1.16,2.26-1.86,2.08-1-1.38-.67-2.71S88.32,287.46,89,287.64Z" style="fill:#455a64"></path><path d="M97.23,284.86c-.17.7-1.16,1.06-2.22.81s-1.78-1-1.61-1.72,1.15-1.06,2.21-.81S97.39,284.16,97.23,284.86Z" style="fill:#455a64"></path><path d="M93,276.94a.93.93,0,0,1,.92.59,2.22,2.22,0,0,1-1.26,2.88.93.93,0,0,1-1.06-.27,1.71,1.71,0,0,1-.28-1,2.33,2.33,0,0,1,.18-.95,2.31,2.31,0,0,1,.58-.78A1.6,1.6,0,0,1,93,276.94Z" style="fill:#455a64"></path><path d="M84.56,275.22c.59-.41,1.67.11,2.41,1.16s.87,2.25.28,2.67-1.66-.11-2.41-1.17S84,275.63,84.56,275.22Z" style="fill:#455a64"></path><path d="M136.06,187.49a18.59,18.59,0,0,0-7.9-3.56c-5-1.06-25.57-.4-25.57-.4l-17.33,2.23a20.71,20.71,0,0,0-12,14.81c-2.65,11.49.92,46.43.92,46.43a18,18,0,0,1,1.12,4.86l0,.14a8.38,8.38,0,0,0,.14,2.34h1.86A50,50,0,0,0,85,258.73s.51-1.82,1.53-4.39h38.87s4,2.17,5.82-3.67,7.38-8.09,8.63-18.39S136.06,187.49,136.06,187.49Z" style="fill:#00E674"></path><path d="M85.77,254.28a4.24,4.24,0,0,1,.2-.79,8.31,8.31,0,0,1,.29-.91c.12-.35.25-.75.44-1.18a24.24,24.24,0,0,1,1.46-3,28,28,0,0,1,2.29-3.33,27.11,27.11,0,0,1,2.8-2.92,24.85,24.85,0,0,1,2.6-2c.38-.27.75-.48,1.07-.68s.6-.35.83-.47a5.88,5.88,0,0,1,.74-.35,3.77,3.77,0,0,1-.68.45c-.23.13-.5.3-.8.51s-.67.42-1,.71a26.92,26.92,0,0,0-2.55,2,31,31,0,0,0-2.75,2.9,29.67,29.67,0,0,0-2.28,3.28,27.26,27.26,0,0,0-1.5,2.91c-.2.42-.34.82-.48,1.16s-.25.64-.34.89A3.61,3.61,0,0,1,85.77,254.28Z" style="fill:#263238"></path><path d="M136.06,187.49a33.66,33.66,0,0,1,4.3,9.13c1.63,5.42,12.83,38.23,12.83,38.23l-15.05,11.63-4.86-4Z" style="fill:#00E674"></path><path d="M93.2,236.53a1.49,1.49,0,0,1,.81-.47,2.91,2.91,0,0,1,3.68,2,1.56,1.56,0,0,1,.06.94s0-.36-.25-.88a3.05,3.05,0,0,0-1.37-1.58,3,3,0,0,0-2.07-.26C93.52,236.38,93.22,236.57,93.2,236.53Z" style="fill:#263238"></path><path d="M92.74,230.28a2.13,2.13,0,0,1,1,.37,5.06,5.06,0,0,1,1.71,1.76,5,5,0,0,1,.69,2.35,2.13,2.13,0,0,1-.14,1s0-.39-.06-1a5.65,5.65,0,0,0-.74-2.23,5.73,5.73,0,0,0-1.57-1.73C93.08,230.47,92.73,230.33,92.74,230.28Z" style="fill:#263238"></path><path d="M91.39,195.52a3.25,3.25,0,0,1,.17.31c.12.25.28.55.47.94a11.55,11.55,0,0,1,.61,1.53c.11.3.22.63.35,1l.29,1.11a35.86,35.86,0,0,1,1,5.6c.21,2.13.28,4.48.29,7,0,4.93-.29,9.38-.34,12.61,0,.8,0,1.53,0,2.17s0,1.19,0,1.64,0,.77,0,1a2.21,2.21,0,0,1,0,.37,2.24,2.24,0,0,1,0-.37c0-.26,0-.61-.07-1s0-1-.06-1.65,0-1.37,0-2.18c0-3.23.23-7.68.25-12.6,0-2.46-.07-4.8-.26-6.92a37.13,37.13,0,0,0-.89-5.58q-.14-.59-.27-1.11l-.32-1a12.87,12.87,0,0,0-.57-1.54l-.41-.95A1.55,1.55,0,0,1,91.39,195.52Z" style="fill:#263238"></path><path d="M92.59,237.86a3.08,3.08,0,0,1-.62.37c-.4.21-1,.55-1.67,1a28.43,28.43,0,0,0-2.36,1.65,30.34,30.34,0,0,0-2.63,2.35A29.73,29.73,0,0,0,83,245.9c-.65.87-1.2,1.68-1.62,2.38s-.74,1.29-1,1.7a3.47,3.47,0,0,1-.36.62,3,3,0,0,1,.26-.67,16.69,16.69,0,0,1,.88-1.75,22.83,22.83,0,0,1,1.58-2.44A26,26,0,0,1,85.11,243a27.92,27.92,0,0,1,2.67-2.36A24.25,24.25,0,0,1,90.19,239a19.54,19.54,0,0,1,1.73-.91A3.53,3.53,0,0,1,92.59,237.86Z" style="fill:#263238"></path><path d="M133,247.46a.67.67,0,0,1,.05-.12l.19-.34c.16-.3.4-.74.73-1.3.64-1.13,1.62-2.73,2.84-4.7a13.18,13.18,0,0,0,1.58-3.4,34.25,34.25,0,0,0,1-4.21,43.42,43.42,0,0,0,.56-4.76c.08-1.65.09-3.38.07-5.15a89.69,89.69,0,0,0-2.1-17.92c-.5-2.26-1-4.07-1.33-5.32-.18-.61-.31-1.08-.41-1.44l-.1-.37,0-.13s0,0,.06.12l.12.37c.12.34.27.82.46,1.42.38,1.24.9,3,1.43,5.3a85.71,85.71,0,0,1,2.19,18c0,1.77,0,3.49-.08,5.17a41.12,41.12,0,0,1-.58,4.78,33.8,33.8,0,0,1-1,4.24,13.72,13.72,0,0,1-1.64,3.44c-1.24,2-2.24,3.54-2.91,4.65L133.3,247c-.09.13-.15.24-.21.33Z" style="fill:#263238"></path><path d="M184.89,231.76c2-6.6,8.34-9,12.31-11.62,2.79,2.34-2.41,5.41-3.77,6.53-.49,5.12,7.73.7,8.64.8.19.14,2.21-2.3,4.39-5,1.15-1,3.21.17,2.45,1.69,1.7-.1,1.7,1.5.72,3.41.34,1,.56,3.72-.76,4.92,0,.2-.3,4.53-1.59,5.8-7.82,4.8-19.75,7.84-19.75,7.84l-49.39.34,6.84-16.2,39.89,1.49" style="fill:#ffbe9d"></path><path d="M198.12,233.23s.21,0,.59,0a8.09,8.09,0,0,0,1.6-.3,12.57,12.57,0,0,0,8-6.73,8.58,8.58,0,0,0,.55-1.52,1.85,1.85,0,0,0,.11-.59c-.08,0-.31.79-.94,2a13.59,13.59,0,0,1-3.25,4,13.93,13.93,0,0,1-4.52,2.54C199,233.06,198.11,233.15,198.12,233.23Z" style="fill:#eb996e"></path><path d="M200,236.36a5.23,5.23,0,0,0,2-.38,11.55,11.55,0,0,0,6.94-6.6,5.21,5.21,0,0,0,.48-2c-.07,0-.25.73-.76,1.85a12.67,12.67,0,0,1-6.77,6.43C200.78,236.15,200,236.29,200,236.36Z" style="fill:#eb996e"></path><path d="M199.75,239.33a6,6,0,0,0,1.71-.37,14.68,14.68,0,0,0,3.89-1.7,8.89,8.89,0,0,0,2.89-3.12,3.53,3.53,0,0,0,.63-1.64c-.06,0-.29.6-.89,1.48a9.92,9.92,0,0,1-2.87,2.91,18.82,18.82,0,0,1-3.75,1.77A8.33,8.33,0,0,0,199.75,239.33Z" style="fill:#eb996e"></path><path d="M192.73,239.41A3.92,3.92,0,0,0,194.1,238a7.33,7.33,0,0,0,1.09-4.7,8.33,8.33,0,0,0-.76-2.57,7.16,7.16,0,0,1-.62-2,3.53,3.53,0,0,1,.35-1.86s-.18.1-.35.41a2.76,2.76,0,0,0-.3,1.47,6.39,6.39,0,0,0,.55,2.13,9,9,0,0,1,.7,2.47,7.71,7.71,0,0,1-.92,4.49C193.25,238.85,192.68,239.36,192.73,239.41Z" style="fill:#eb996e"></path><rect x="139.42" y="219.57" width="67.58" height="10.91" rx="4.39" style="fill:#263238"></rect><rect x="140.12" y="208.66" width="67.58" height="10.91" rx="4.39" style="fill:#263238"></rect><path d="M152.93,219.57c0-.07,11.25-.14,25.12-.14s25.12.07,25.12.14-11.25.15-25.12.15S152.93,219.65,152.93,219.57Z" style="fill:#263238"></path><path d="M162.69,230.54a6.43,6.43,0,0,1-.45-1.5,18.39,18.39,0,0,1-.42-3.76,18.2,18.2,0,0,1,.35-3.76,6.27,6.27,0,0,1,.42-1.51,11.53,11.53,0,0,1-.22,1.54,23.66,23.66,0,0,0,.07,7.45A13.66,13.66,0,0,1,162.69,230.54Z" style="fill:#fff"></path><path d="M172.79,230.75a7.17,7.17,0,0,1-.39-1.56,22.9,22.9,0,0,1-.36-3.88,23.89,23.89,0,0,1,.29-3.89,6.23,6.23,0,0,1,.37-1.57,14.64,14.64,0,0,1-.17,1.6,31.66,31.66,0,0,0,.07,7.7A10.78,10.78,0,0,1,172.79,230.75Z" style="fill:#fff"></path><path d="M183.18,230.76a7,7,0,0,1-.34-1.59,28.83,28.83,0,0,1-.07-7.8,7.68,7.68,0,0,1,.3-1.59,10,10,0,0,1-.1,1.61c-.08,1-.16,2.36-.14,3.88s.12,2.89.22,3.88A13.56,13.56,0,0,1,183.18,230.76Z" style="fill:#fff"></path><path d="M194.79,230.36a7.17,7.17,0,0,1-.24-1.52c-.11-.94-.23-2.24-.31-3.68s-.13-2.75-.14-3.7a8.21,8.21,0,0,1,.06-1.54,8.7,8.7,0,0,1,.15,1.53c.06,1,.13,2.3.21,3.69s.16,2.65.23,3.69A9.43,9.43,0,0,1,194.79,230.36Z" style="fill:#fff"></path><path d="M200,219.61a50.23,50.23,0,0,1-.25-5.36,50.54,50.54,0,0,1,.05-5.37,48.85,48.85,0,0,1,.24,5.36A52.37,52.37,0,0,1,200,219.61Z" style="fill:#fff"></path><path d="M188.25,219.38a6.29,6.29,0,0,1-.3-1.58,28,28,0,0,1-.21-3.88,26.35,26.35,0,0,1,.36-3.87,6.73,6.73,0,0,1,.36-1.57,12.94,12.94,0,0,1-.16,1.6c-.12,1-.24,2.34-.27,3.85s0,2.86.12,3.85A13.78,13.78,0,0,1,188.25,219.38Z" style="fill:#fff"></path><path d="M176.71,219.69a7.79,7.79,0,0,1-.24-1.62,29.77,29.77,0,0,1,.37-7.92,7.12,7.12,0,0,1,.39-1.6,13.09,13.09,0,0,1-.19,1.63c-.13,1-.29,2.39-.36,3.93s-.05,2.93,0,3.94A10.81,10.81,0,0,1,176.71,219.69Z" style="fill:#fff"></path><path d="M166.15,219.77a7,7,0,0,1-.4-1.58,22.07,22.07,0,0,1,0-7.83,7,7,0,0,1,.4-1.58,12,12,0,0,1-.2,1.61,29.16,29.16,0,0,0,0,7.77A12,12,0,0,1,166.15,219.77Z" style="fill:#fff"></path><path d="M154.21,219.36s-.09-.13-.2-.38a10.83,10.83,0,0,1-.38-1.12A14.91,14.91,0,0,1,153,214a15.08,15.08,0,0,1,.44-3.86,9.39,9.39,0,0,1,.34-1.12,1.33,1.33,0,0,1,.19-.4s-.14.6-.33,1.57a17.4,17.4,0,0,0,.14,7.6C154.05,218.77,154.26,219.35,154.21,219.36Z" style="fill:#fff"></path><path d="M152.27,230a5.19,5.19,0,0,1-.7-1.36,13,13,0,0,1-.87-3.59,13.63,13.63,0,0,1,.17-3.7,5.34,5.34,0,0,1,.44-1.47s-.1.58-.23,1.51a15.27,15.27,0,0,0,.68,7.18C152.06,229.43,152.31,230,152.27,230Z" style="fill:#fff"></path><path d="M145.37,229.59a4.3,4.3,0,0,1-.65-1.33,12.13,12.13,0,0,1-.59-3.5,21.71,21.71,0,0,1,.22-3.54,6.68,6.68,0,0,1,.27-1.45,8.49,8.49,0,0,1-.07,1.47,34.73,34.73,0,0,0-.13,3.51,13.84,13.84,0,0,0,.5,3.45C145.16,229.06,145.41,229.57,145.37,229.59Z" style="fill:#fff"></path><path d="M147.1,208.66c.05,0-.26.58-.59,1.54a11.79,11.79,0,0,0-.64,3.87,17.15,17.15,0,0,0,.52,3.91c.24,1,.43,1.59.39,1.6s-.09-.13-.2-.4-.24-.66-.39-1.15a14.12,14.12,0,0,1-.6-4,10.52,10.52,0,0,1,.73-3.94,7.16,7.16,0,0,1,.53-1.1A1.71,1.71,0,0,1,147.1,208.66Z" style="fill:#fff"></path><rect x="150.7" y="200.57" width="50.01" height="8.08" rx="3.25" style="fill:#455a64"></rect><rect x="151.22" y="192.5" width="50.01" height="8.08" rx="3.25" style="fill:#455a64"></rect><path d="M160.44,200.48c0-.07,8.33-.14,18.59-.14s18.59.07,18.59.14-8.32.15-18.59.15S160.44,200.56,160.44,200.48Z" style="fill:#263238"></path><path d="M161,192.74a8.09,8.09,0,0,1-1.26.84l-3.11,1.94-3.07,2a9.86,9.86,0,0,1-1.3.79,6.92,6.92,0,0,1,1.18-1c.76-.55,1.83-1.29,3-2.06s2.33-1.42,3.15-1.87A8.12,8.12,0,0,1,161,192.74Z" style="fill:#fff"></path><path d="M172.52,192.82c0,.06-2.46,1.82-5.6,3.92s-5.7,3.75-5.75,3.68,2.46-1.82,5.59-3.92S172.47,192.75,172.52,192.82Z" style="fill:#fff"></path><path d="M184.55,192.82c0,.06-2.46,1.82-5.59,3.92s-5.71,3.75-5.76,3.68,2.46-1.82,5.6-3.92S184.5,192.75,184.55,192.82Z" style="fill:#fff"></path><path d="M168.56,200.68c0,.06-2.46,1.82-5.59,3.92s-5.71,3.75-5.76,3.68,2.46-1.82,5.6-3.92S168.52,200.61,168.56,200.68Z" style="fill:#fff"></path><path d="M182.36,200.68c0,.06-2.46,1.82-5.6,3.92s-5.7,3.75-5.75,3.68,2.46-1.82,5.59-3.92S182.31,200.61,182.36,200.68Z" style="fill:#fff"></path><path d="M196.15,200.68c0,.06-2.46,1.82-5.59,3.92s-5.71,3.75-5.75,3.68,2.46-1.82,5.59-3.92S196.11,200.61,196.15,200.68Z" style="fill:#fff"></path><path d="M196.58,192.82c0,.06-2.46,1.82-5.59,3.92s-5.71,3.75-5.76,3.68,2.46-1.82,5.6-3.92S196.53,192.75,196.58,192.82Z" style="fill:#fff"></path><path d="M99.77,257c11.49-6.52,29.86-21.13,29.86-21.13l-5-10.13-24.7,12.34a25.54,25.54,0,0,0-12.19,13.08l-2.93,7.07h0A17.94,17.94,0,0,0,99.77,257Z" style="fill:#ffbe9d"></path><rect x="139.81" y="230.28" width="67.58" height="10.91" rx="4.39" style="fill:#455a64"></rect><path d="M202.93,230.36c0,.08-13.07.14-29.19.14s-29.2-.06-29.2-.14,13.07-.15,29.2-.15S202.93,230.28,202.93,230.36Z" style="fill:#263238"></path><path d="M203.62,240.09h-.16L203,240l-1.74-.26-6.38-1c-5.39-.82-12.84-1.93-21.08-3.1s-15.7-2.18-21.11-2.89l-6.4-.85-1.74-.24-.45-.07-.15,0h.15l.46,0,1.75.19,6.41.76c5.41.66,12.88,1.63,21.12,2.8s15.69,2.32,21.07,3.19l6.37,1.05L203,240l.45.09Z" style="fill:#263238"></path><path d="M200.2,230.31a5,5,0,0,1-.86.25l-2.35.59c-2,.48-4.73,1.17-7.75,2s-5.74,1.58-7.71,2.14l-2.33.66a4.3,4.3,0,0,1-.87.21,5.65,5.65,0,0,1,.84-.31c.54-.19,1.33-.45,2.3-.75,2-.62,4.67-1.42,7.7-2.23s5.77-1.45,7.78-1.89l2.37-.5A5,5,0,0,1,200.2,230.31Z" style="fill:#263238"></path><polygon points="206.18 249.76 218.31 261.87 225.02 255.17 212.88 243.07 206.18 249.76" style="fill:#455a64"></polygon><path d="M216.27,255.47l-.16.47a2.71,2.71,0,0,1-1.3-.69l-.49.72-.26-.26.49-.72c-.76-.85-.92-1.83-.24-2.49s1.26-.27,1.89.07l1.14-1.66a2.32,2.32,0,0,0-1.48-.63l.12-.49a2.6,2.6,0,0,1,1.63.72l.49-.73.26.26-.49.73c.81.87,1,1.86.29,2.54s-1.28.22-1.93-.14l-1.15,1.68A2.45,2.45,0,0,0,216.27,255.47Zm-1.62-2.55c-.43.42-.34,1.06.17,1.67l1.1-1.6C215.43,252.74,215,252.58,214.65,252.92Zm3.18,0c.45-.43.32-1.09-.23-1.7l-1.08,1.58C217,253,217.48,253.22,217.83,252.87Z" style="fill:#fff"></path><path d="M212.48,248a4.36,4.36,0,0,1-1.9-.58,9.86,9.86,0,0,1-5.43-7.58,4.52,4.52,0,0,1,0-2c.09,0,.08.75.31,1.93a10.76,10.76,0,0,0,5.24,7.31C211.79,247.69,212.51,247.92,212.48,248Z" style="fill:#263238"></path><path d="M211.86,244.47c-.13.08-1-1.37-2.45-2.83s-2.86-2.37-2.78-2.5a9.67,9.67,0,0,1,5.23,5.33Z" style="fill:#263238"></path><polygon points="206.94 223.73 219.07 235.83 225.78 229.14 213.65 217.03 206.94 223.73" style="fill:#455a64"></polygon><path d="M217,229.43l-.15.48a2.72,2.72,0,0,1-1.31-.7l-.49.73-.26-.26.49-.72c-.76-.85-.91-1.83-.24-2.5s1.27-.27,1.89.07l1.14-1.66a2.36,2.36,0,0,0-1.48-.62l.12-.5a2.69,2.69,0,0,1,1.63.72l.5-.72.26.26-.49.72c.8.87,1,1.86.28,2.55s-1.28.21-1.93-.15l-1.15,1.68A2.41,2.41,0,0,0,217,229.43Zm-1.61-2.55c-.43.42-.35,1.06.17,1.67l1.09-1.59C216.2,226.71,215.76,226.55,215.42,226.88Zm3.17,0c.45-.43.32-1.08-.23-1.7l-1.08,1.59C217.77,227,218.24,227.18,218.59,226.83Z" style="fill:#fff"></path><path d="M213.25,222a4.63,4.63,0,0,1-1.9-.59,9.8,9.8,0,0,1-5.44-7.58,4.43,4.43,0,0,1,.06-2c.08,0,.07.76.31,1.93a10.62,10.62,0,0,0,5.24,7.31C212.55,221.65,213.27,221.89,213.25,222Z" style="fill:#263238"></path><path d="M212.63,218.43c-.14.08-1-1.37-2.46-2.83s-2.86-2.36-2.78-2.5a9.65,9.65,0,0,1,5.24,5.33Z" style="fill:#263238"></path><path d="M124.62,225.73l9.27-8.53,10.57-4.45a2.44,2.44,0,0,1-.61,2.86,45.19,45.19,0,0,1-5.15,3.89c-1,.75-1.85,1.46-1.3,3,.26.71,1.35,1.4,3.89,1.68s8.26,0,8.62,1.54-1.45,1.91-1.45,1.91l-7.54.45s-1.54-.45-1.18.73a6.33,6.33,0,0,0,1.18,2.08s9.63,4.63,10.26,6.27.36,2.35,0,2.26-8.82-3.44-8.82-3.44,10.09,5.89,9.91,6.8-.55,1.27-1.63,1.18-8.45-4.3-8.45-4.3,5.72,4.3,5.81,4.94-.63,1-1.36.72-8.4-4.4-8.4-4.4l-10.59-5.49Z" style="fill:#ffbe9d"></path><path d="M142.36,236a3.83,3.83,0,0,1,.78.36c.5.26,1.22.65,2.13,1.18a42.4,42.4,0,0,1,7.15,5.1l.07.07v.11a1.54,1.54,0,0,1-.71,1.29,2,2,0,0,1-1.51,0c-.91-.4-1.71-.87-2.62-1.32l-5.58-2.91.28-.42,2.11,1.78,3.71,3.15.06.06,0,.06a1.34,1.34,0,0,1,0,.67.72.72,0,0,1-.57.51,2.43,2.43,0,0,1-1.16-.14h0l-12.46-6.63-3.61-2a9.06,9.06,0,0,1-1.27-.76,10.25,10.25,0,0,1,1.35.61l3.67,1.84,12.55,6.47h0a2,2,0,0,0,.88.11c.13,0,.17-.06.19-.14a.81.81,0,0,0,0-.39l.08.12-3.72-3.14-2.1-1.79-1.79-1.52,2.08,1.09,5.56,2.93c.88.45,1.76.95,2.54,1.32a1.55,1.55,0,0,0,1.16,0,1.1,1.1,0,0,0,.48-.93l.07.18a46.71,46.71,0,0,0-7-5.21l-2.06-1.28A4.52,4.52,0,0,1,142.36,236Z" style="fill:#eb996e"></path><path d="M125.68,232.72a4.45,4.45,0,0,0-1.38.91,16.26,16.26,0,0,1-1.37,1.32,2.53,2.53,0,0,1-1.1.5c-.43.08-.84,0-1.16.1-.61.13-.87,1-1.35,1.56a6.55,6.55,0,0,1-1.39,1.33,3.31,3.31,0,0,1-1.6.73c0-.08.57-.35,1.37-1a7.25,7.25,0,0,0,1.24-1.32c.2-.28.37-.58.58-.92a1.71,1.71,0,0,1,1-.87c.47-.11.87,0,1.2-.09a2.13,2.13,0,0,0,.9-.39c.54-.39,1-.86,1.4-1.21a3,3,0,0,1,1.15-.63C125.51,232.65,125.68,232.7,125.68,232.72Z" style="fill:#eb996e"></path><path d="M97.75,143.37l-.17-3.4,20.31-4.52c6.28-.86,13.29,5.24,13.88,11.55.66,7,1.19,15.6.52,20.86-1.34,10.59-9.38,12.19-9.38,12.19l.29,6.76a11,11,0,0,1-10.54,11.49h0a11,11,0,0,1-11.48-10.18Z" style="fill:#ffbe9d"></path><path d="M129,155.21a1.34,1.34,0,0,1-1.26,1.4,1.29,1.29,0,0,1-1.43-1.17,1.36,1.36,0,0,1,1.26-1.41A1.3,1.3,0,0,1,129,155.21Z" style="fill:#263238"></path><path d="M129.68,151.55c-.16.18-1.21-.55-2.66-.5s-2.5.81-2.66.64.08-.4.53-.75a3.64,3.64,0,0,1,2.13-.73,3.49,3.49,0,0,1,2.12.61C129.6,151.15,129.76,151.47,129.68,151.55Z" style="fill:#263238"></path><path d="M115.43,155.45a1.36,1.36,0,0,1-1.27,1.4,1.29,1.29,0,0,1-1.43-1.17,1.36,1.36,0,0,1,1.26-1.41A1.31,1.31,0,0,1,115.43,155.45Z" style="fill:#263238"></path><path d="M115.39,152.26c-.16.18-1.21-.54-2.66-.49s-2.5.81-2.66.63.08-.4.53-.75a3.78,3.78,0,0,1,2.13-.73,3.54,3.54,0,0,1,2.12.62C115.31,151.87,115.47,152.18,115.39,152.26Z" style="fill:#263238"></path><path d="M121,162.88a9.94,9.94,0,0,1,2.35-.49c.37,0,.72-.14.77-.39a1.92,1.92,0,0,0-.28-1.1c-.38-.89-.77-1.82-1.19-2.79-1.65-4-2.86-7.26-2.69-7.32s1.62,3.1,3.27,7.08l1.14,2.82a2.06,2.06,0,0,1,.24,1.45.93.93,0,0,1-.59.56,2.79,2.79,0,0,1-.63.11A9,9,0,0,1,121,162.88Z" style="fill:#263238"></path><path d="M122.91,180.07a28,28,0,0,1-14.6-3.33s3.79,7.27,14.67,6Z" style="fill:#eb996e"></path><path d="M120.5,166.41a2.59,2.59,0,0,0-2.38-.9,2.36,2.36,0,0,0-1.62.94,1.51,1.51,0,0,0-.07,1.73,1.79,1.79,0,0,0,1.93.43,5.61,5.61,0,0,0,1.82-1.17,1.67,1.67,0,0,0,.4-.44.48.48,0,0,0,0-.55" style="fill:#eb996e"></path><path d="M116.76,164c.23,0,.29,1.56,1.67,2.64s3.06.85,3.08,1.07-.36.32-1.07.36a3.9,3.9,0,0,1-2.57-.8,3.41,3.41,0,0,1-1.3-2.22C116.49,164.41,116.65,164,116.76,164Z" style="fill:#263238"></path><path d="M115.59,148.14c-.13.4-1.59.26-3.29.52s-3.06.77-3.3.42c-.11-.17.12-.55.67-1a5.42,5.42,0,0,1,2.43-.93,5.49,5.49,0,0,1,2.59.22C115.32,147.65,115.65,148,115.59,148.14Z" style="fill:#e0e0e0"></path><path d="M129.48,146.56c-.24.34-1.26,0-2.46.05s-2.22.29-2.46-.05c-.11-.16,0-.5.47-.83a3.58,3.58,0,0,1,4,0C129.44,146.06,129.59,146.4,129.48,146.56Z" style="fill:#e0e0e0"></path><path d="M135.18,137.45a6.57,6.57,0,0,0,2.34-6.84,7.5,7.5,0,0,0-5.24-5.13,8.72,8.72,0,0,0-7.29,1.46,2.74,2.74,0,0,0-2.09-2.53,5.07,5.07,0,0,0-3.43.44,9.06,9.06,0,0,0-4.35,4.31,5.56,5.56,0,0,0-9.8.71,18.29,18.29,0,0,1-.9,2.19,2.79,2.79,0,0,1-2.29,1.11h0a7.41,7.41,0,0,0-3.69,1.47,9.39,9.39,0,0,0-3.79,7.23c.07,7.12,2.3,10.77,2.5,17.59a2.5,2.5,0,0,0,.29,1.31c.66,1,2.2.49,3.09-.27a12.68,12.68,0,0,0,3.83-7.45c.55-2.79.61-5.66,1.13-8.46a1.06,1.06,0,0,0,0-.19,7.74,7.74,0,0,1,1.41-3.21,20.5,20.5,0,0,0,2.58,1.55,8.39,8.39,0,0,0,9.7-2.24,12.32,12.32,0,0,0,7.92,2.61,11.85,11.85,0,0,0,7.75-2.58,4,4,0,0,0,1.18-1.81A1.21,1.21,0,0,0,135.18,137.45Z" style="fill:#e0e0e0"></path><path d="M99.88,157c-.14-.07-5.73-2-5.81,3.8s5.74,4.68,5.75,4.51S99.88,157,99.88,157Z" style="fill:#ffbe9d"></path><path d="M98.08,163.07s-.1.07-.27.15a1,1,0,0,1-.75,0A2.48,2.48,0,0,1,95.94,161a3.31,3.31,0,0,1,.3-1.44,1.17,1.17,0,0,1,.77-.77.53.53,0,0,1,.59.29c.08.16,0,.28.07.29s.12-.1.08-.34a.64.64,0,0,0-.22-.36.75.75,0,0,0-.56-.16,1.43,1.43,0,0,0-1.06.88,3.51,3.51,0,0,0-.38,1.61A2.6,2.6,0,0,0,97,163.49a1.06,1.06,0,0,0,.92-.14C98.07,163.21,98.1,163.08,98.08,163.07Z" style="fill:#eb996e"></path><path d="M133.25,131.46a8.19,8.19,0,0,0-2.1-.36,7.71,7.71,0,0,0-2.45.33,8.1,8.1,0,0,0-1.43.6,7.46,7.46,0,0,0-1.41,1,7,7,0,0,0-1.22,1.45,3.34,3.34,0,0,0-.52,1.92,1.42,1.42,0,0,0,.39.92,1.11,1.11,0,0,0,.93.35,1.75,1.75,0,0,0,1.52-1.4,3.29,3.29,0,0,0-.51-2.29,5.44,5.44,0,0,0-1.78-1.79,6.46,6.46,0,0,0-5.15-.73,4.92,4.92,0,0,0-2.28,1.39,2.57,2.57,0,0,0-.73,2.34,1.86,1.86,0,0,0,1.88,1.25,2.1,2.1,0,0,0,1.92-1.12,2.88,2.88,0,0,0,.11-2.21,3.25,3.25,0,0,0-1.31-1.68,5.06,5.06,0,0,0-3.79-.57,6.64,6.64,0,0,0-2.91,1.44,7.28,7.28,0,0,0-1.59,1.9,9.06,9.06,0,0,0-.78,2,.72.72,0,0,1,0-.14c0-.09,0-.23.08-.41a6.92,6.92,0,0,1,.58-1.48,7.19,7.19,0,0,1,1.58-2,6.85,6.85,0,0,1,3-1.52,5.25,5.25,0,0,1,4,.57,3.48,3.48,0,0,1,1.42,1.79,3.18,3.18,0,0,1-.11,2.42,2.18,2.18,0,0,1-.89.94,2.58,2.58,0,0,1-2.58,0,1.92,1.92,0,0,1-.85-1.1,2.31,2.31,0,0,1,.07-1.4,3.41,3.41,0,0,1,.73-1.21,4.51,4.51,0,0,1,1.09-.9c.2-.13.43-.22.64-.33l.67-.25a6.78,6.78,0,0,1,5.39.77,5.6,5.6,0,0,1,1.86,1.89,3.56,3.56,0,0,1,.54,2.49,2,2,0,0,1-1.76,1.59,1.39,1.39,0,0,1-1.13-.43,1.71,1.71,0,0,1-.45-1.07,3.69,3.69,0,0,1,.57-2.06,7.17,7.17,0,0,1,1.28-1.49,7.33,7.33,0,0,1,2.93-1.59,7.33,7.33,0,0,1,2.5-.29,7,7,0,0,1,.91.1c.26.07.49.11.66.17l.39.14C133.21,131.43,133.25,131.45,133.25,131.46Z" style="fill:#fff"></path><path d="M104.68,185.72s.11-.17.15-.47a2.11,2.11,0,0,0-.32-1.25,8.92,8.92,0,0,1-.45-.88,1.74,1.74,0,0,1-.07-1.24,3.92,3.92,0,0,0,.34-1.07c0-.29-.33-.49-.73-.78a1.3,1.3,0,0,1-.49-.66,1.2,1.2,0,0,1,.11-.81,6.65,6.65,0,0,0,.57-1c.16-.62-.29-1.25-.52-1.81a1.85,1.85,0,0,1-.06-1.47c.17-.34.4-.39.41-.36s-.14.14-.22.43a1.8,1.8,0,0,0,.21,1.25c.13.25.31.53.46.86a1.88,1.88,0,0,1,.19,1.23,7,7,0,0,1-.57,1.13.59.59,0,0,0,.23.84,5.4,5.4,0,0,1,.55.42,1.1,1.1,0,0,1,.37.74,3.4,3.4,0,0,1-.4,1.25c-.24.63.17,1.27.4,1.81a2,2,0,0,1,.18,1.46C104.9,185.65,104.69,185.74,104.68,185.72Z" style="fill:#eb996e"></path><path d="M107.63,184.31s-.54-.48-.69-1.57a3.93,3.93,0,0,1,.24-1.87.64.64,0,0,0-.13-.75c-.21-.23-.58-.38-.91-.73a1.12,1.12,0,0,1-.28-.7,2.37,2.37,0,0,1,.11-.64,1.42,1.42,0,0,0,.09-.91c-.16-.57-.64-1-.83-1.58a1.22,1.22,0,0,1,.18-1.3c.25-.24.46-.2.46-.17s-.16.08-.3.3a1,1,0,0,0,0,1,13.51,13.51,0,0,1,1,1.58,1.89,1.89,0,0,1-.06,1.2c-.1.36-.13.63.07.84s.58.41.89.72a1.05,1.05,0,0,1,.31.63,1.48,1.48,0,0,1-.09.62,3.89,3.89,0,0,0-.34,1.7A9.68,9.68,0,0,0,107.63,184.31Z" style="fill:#eb996e"></path><path d="M117.53,163.6c0,.15-.52.23-1,.52s-.89.64-1,.57.09-.68.77-1S117.55,163.46,117.53,163.6Z" style="fill:#eb996e"></path><path d="M114.79,151c-.05.06-.35-.14-.87-.33a3.81,3.81,0,0,0-4,.72c-.42.37-.63.66-.7.62s0-.4.43-.87a3.61,3.61,0,0,1,2.06-1.19,3.58,3.58,0,0,1,2.34.38C114.61,150.63,114.83,151,114.79,151Z" style="fill:#eb996e"></path><path d="M110.38,154.72c.06.13-.49.46-1.23.33s-1.14-.65-1-.75.54.13,1.13.23S110.33,154.59,110.38,154.72Z" style="fill:#eb996e"></path><path d="M110.22,155.7c0,.15-.48.32-1,.63s-1,.64-1.08.55.17-.64.83-1S110.22,155.56,110.22,155.7Z" style="fill:#eb996e"></path><path d="M131.5,153.82c.12.06,0,.53-.53.8s-1,.12-.95,0,.35-.24.71-.44S131.37,153.74,131.5,153.82Z" style="fill:#eb996e"></path><path d="M132,155.54c0,.14-.48.18-1,.08s-.93-.28-.91-.42.47-.18,1-.09S132,155.39,132,155.54Z" style="fill:#eb996e"></path><path d="M129.26,150.22a9.14,9.14,0,0,0-2.64-.54,9.67,9.67,0,0,0-2.61.68c0-.05.16-.32.61-.62a4,4,0,0,1,2-.59,3.93,3.93,0,0,1,2,.49C129.1,149.9,129.3,150.17,129.26,150.22Z" style="fill:#eb996e"></path><polygon points="99.88 183.88 114.08 195.52 124.02 183.5 125.68 192.74 114.79 202.12 106.17 200.67 98.06 193.72 99.88 183.88" style="fill:#00E674"></polygon></g><g id="freepik--Floor--inject-13"><path d="M719.81,459.21c0,.14-154.39.26-344.79.26s-344.83-.12-344.83-.26S184.55,459,375,459,719.81,459.07,719.81,459.21Z" style="fill:#263238"></path></g></svg>