<svg xmlns="http://www.w3.org/2000/svg" xmlns:xlink="http://www.w3.org/1999/xlink" width="332" height="411" viewBox="0 0 332 411">
  <defs>
    <clipPath id="clip-child">
      <rect width="332" height="411"/>
    </clipPath>
  </defs>
  <g id="child" clip-path="url(#clip-child)">
    <g id="Group_6" data-name="Group 6" transform="translate(0 -0.026)">
      <path id="Path_79" data-name="Path 79" d="M167.1,752.008c0,8.369,74.431,9.26,166.04,15.153,91.527,5.887,166.04-6.784,166.04-15.153s-74.861-25.207-166.04-15.153C241.53,746.957,167.1,743.639,167.1,752.008Z" transform="translate(-167.099 -357.644)" fill="#e6e6e6"/>
      <path id="Path_111" data-name="Path 111" d="M303.87,570.537a10.743,10.743,0,0,1-1.582-16.4l-4.167-93.018,21.215,2.381L318.1,554.485a10.8,10.8,0,0,1-14.234,16.048Z" transform="translate(-107.672 -342.575)" fill="#a0616a"/>
      <path id="Path_112" data-name="Path 112" d="M93.543,574.966l-12.075,2.123L69.534,531.525l15.821-3.133Z" transform="translate(65.574 -188.156)" fill="#a0616a"/>
      <path id="Path_113" data-name="Path 113" d="M0,14.886H38.531V0H14.887A14.887,14.887,0,0,0,0,14.887Z" transform="translate(123.299 389.574) rotate(-9.971)" fill="#2f2e41"/>
      <path id="Path_114" data-name="Path 114" d="M54.482,581.01H42.222L36.39,533.722H54.484Z" transform="translate(136.703 -188.156)" fill="#a0616a"/>
      <path id="Path_115" data-name="Path 115" d="M0,14.887H38.531V0H14.887A14.887,14.887,0,0,0,0,14.887H0Z" transform="translate(155.493 389.352)" fill="#2f2e41"/>
      <path id="Path_116" data-name="Path 116" d="M340.809,717.09a4.715,4.715,0,0,0,.572-.034l14.43-1.187a4.881,4.881,0,0,0,4.243-5.659l-14.325-70.681,9-47.474a1.627,1.627,0,0,1,3.219.16l13.261,120.627a4.924,4.924,0,0,0,5.21,4.437l13.6-.506a4.888,4.888,0,0,0,4.536-4.631l-1.086-145.768-70.481-8.81-4.924,76.041.02.081,17.991,79.675a4.886,4.886,0,0,0,4.739,3.729Z" transform="translate(-199.915 -341.186)" fill="#2f2e41"/>
      <ellipse id="Ellipse_16" data-name="Ellipse 16" cx="24.561" cy="24.561" rx="24.561" ry="24.561" transform="translate(145.253 8.148)" fill="#a0616a"/>
      <path id="Path_117" data-name="Path 117" d="M330.612,577.467a20.111,20.111,0,0,0,10.857-3.106c11.9-7.436,25.411-4.481,32.407-2.057a4.88,4.88,0,0,0,4.221-.481,4.811,4.811,0,0,0,2.224-3.552l12.721-113.625c2.132-19.038-9.336-36.937-27.268-42.56h0q-1.011-.317-2.055-.6a39.569,39.569,0,0,0-32.972,5.723,40.2,40.2,0,0,0-17.167,29.353L302.869,560.949a4.807,4.807,0,0,0,1.527,4.007C308.152,568.428,319.05,577.466,330.612,577.467Z" transform="translate(-183.738 -342.744)" fill="#6c63ff"/>
      <path id="Path_118" data-name="Path 118" d="M299.343,479.012l28.7-3.156a5.717,5.717,0,0,0,4.9-7.134l-7.306-27.846a15.879,15.879,0,1,0-31.557,3.563L293,473.114a5.718,5.718,0,0,0,6.338,5.9Z" transform="translate(-114.793 -343.043)" fill="#6c63ff"/>
      <path id="Path_119" data-name="Path 119" d="M368.533,566.554a10.743,10.743,0,0,1,.406-16.468l7.073-92.842,20.789,4.68-12.2,90.414a10.8,10.8,0,0,1-16.064,14.216Z" transform="translate(-248.299 -342.602)" fill="#a0616a"/>
      <path id="Path_120" data-name="Path 120" d="M393.413,473.176a5.711,5.711,0,0,0,1.818-4.4L394.146,440.1a15.878,15.878,0,1,0-31.556-3.563l-7.306,27.846a5.717,5.717,0,0,0,4.905,7.134l28.7,3.156a5.711,5.711,0,0,0,4.52-1.5Z" transform="translate(-237.091 -343.072)" fill="#6c63ff"/>
      <path id="Path_121" data-name="Path 121" d="M340.138,401.771a5.683,5.683,0,0,0,1.3-.151l.125-.03c21.594-3.3,26.367-15.812,27.414-21.035,1.084-5.408-.15-10.628-2.94-12.656,1.521-4.8,1.277-9.061-.727-12.662-3.5-6.28-11.081-8.4-12.1-8.664-6.058-4.469-13.306-1.486-14.625-.881-11.719-4.335-16.2-.727-17.008.079-5.238.941-8.431,2.964-9.491,6.016-1.991,5.731,4.3,12.86,4.574,13.161l.14.156,9.38.447a6.358,6.358,0,0,1,5.981,7.317h0a29.609,29.609,0,0,1-.96,3.355c-1.6,5.006-2.8,9.283-1.254,10.909a2.51,2.51,0,0,0,2.625.455c1.467-.392,2.462-.31,2.958.245.77.859.535,3.035-.662,6.125a5.739,5.739,0,0,0,1.046,5.847,5.568,5.568,0,0,0,4.226,1.967Z" transform="translate(-168.928 -343.597)" fill="#2f2e41"/>
    </g>
  </g>
</svg>
