<svg xmlns="http://www.w3.org/2000/svg" xmlns:xlink="http://www.w3.org/1999/xlink" width="538" height="538" viewBox="0 0 538 538">
  <defs>
    <clipPath id="clip-dh">
      <rect width="538" height="538"/>
    </clipPath>
  </defs>
  <g id="dh" clip-path="url(#clip-dh)">
    <g id="dh-2" data-name="dh" transform="translate(10.136 23.557)">
      <rect id="Rectangle_3" data-name="Rectangle 3" width="518" height="491" transform="translate(-0.136 0.443)" fill="none"/>
      <g id="_396465" data-name="396465" transform="translate(7.511 8.04)">
        <path id="Path_12" data-name="Path 12" d="M-198.14,198.51h0q-36.08,0-53.18-30.17t-7.78-81.79h0q8.71-46.03,32.04-79.62a160.525,160.525,0,0,1,58.78-51.94q35.45-18.35,79.61-18.35H-50.1l-5.6,34.21H-86.18q-52.87,0-89.26,31.1t-46.34,84.6h0q-6.22,36.07,2.8,56.91t27.06,20.84h0q25.5,0,55.67-45.1T-76.85-4.27h0l-8.71,82.73q-21.77,60.33-52.56,90.19T-198.14,198.51Zm108.23-3.11h0a19.669,19.669,0,0,1-14-5.6q-5.91-5.6-4.66-15.55h0L-30.2-271.1q1.87-8.09,7.78-11.2a21.046,21.046,0,0,1,12.12-2.49h0a20.464,20.464,0,0,1,13.38,5.91q5.28,5.29,4.04,14h0L-72.5,179.85q-1.24,8.08-6.22,11.81A18.143,18.143,0,0,1-89.91,195.4Z" transform="translate(262.392 284.893)"/>
        <path id="Path_13" data-name="Path 13" d="M23.91,195.4h0q-11.81,0-14.3-6.22T7.74,178.6h0L84.87-264.88q1.87-10.58,7.78-15.24t17.1-4.67h0q9.33,0,12.13,5.29t.93,14.62h0L45.06,178.6a78.116,78.116,0,0,1-3.73,9.64Q38.22,195.4,23.91,195.4Zm166.08,0h0q-11.82,0-14.31-6.85t-1.86-11.19h0L201.18,23.1a73.417,73.417,0,0,0,.63-25.19,39.015,39.015,0,0,0-9.96-21.46q-8.08-8.71-24.88-8.71h0q-23.01,0-49.13,22.71T56.88,66.64h0l7.46-52.87q25.51-40.43,50.08-60.33t55.04-19.91h0q26.75,0,43.23,13.07t23.02,34.21q6.53,21.14,2.17,44.78h0L210.51,179.85a73.041,73.041,0,0,1-3.42,9.01Q204.29,195.4,189.99,195.4Z" transform="translate(262.392 284.893)"/>
      </g>
    </g>
  </g>
</svg>
