<svg xmlns="http://www.w3.org/2000/svg" xmlns:xlink="http://www.w3.org/1999/xlink" version="1.1" width="940" height="788" viewBox="0 0 940 788" xml:space="preserve">
<desc>Created with Fabric.js 3.5.0</desc>
<defs>
</defs>
<rect x="0" y="0" width="100%" height="100%" fill="#ffffff"/>
<g transform="matrix(4.7597 0 0 4.7597 470 394.0001)" id="796551">
<path style="stroke: rgb(0,230,118); stroke-width: 5; stroke-dasharray: none; stroke-linecap: butt; stroke-dashoffset: 0; stroke-linejoin: miter; stroke-miterlimit: 4; is-custom-font: none; font-file-url: none; fill: none; fill-rule: nonzero; opacity: 1;" vector-effect="non-scaling-stroke" transform=" translate(-78.9999, -70.9997)" d="M 122.502 9.9941 L 122.504 9.99727 L 153.591 63.9445 C 153.591 63.9452 153.592 63.9459 153.592 63.9466 C 156.136 68.4014 156.136 73.8687 153.592 78.3231 C 153.592 78.3238 153.591 78.3245 153.591 78.3252 L 122.516 132.251 C 119.896 136.585 115.186 139.219 110.12 139.181 L 110.111 139.181 H 110.102 H 47.9186 H 47.9178 C 42.8114 139.183 38.0886 136.473 35.5131 132.064 C 35.512 132.062 35.511 132.06 35.5099 132.058 L 4.4249 78.1148 L 4.42386 78.113 C 1.85855 73.6698 1.85855 68.1953 4.42386 63.7521 L 4.4249 63.7503 L 35.5087 9.80891 C 38.1034 5.44291 42.8207 2.78128 47.9003 2.81838 L 47.9094 2.81844 H 47.9186 L 110.102 2.81844 L 110.103 2.81844 C 115.222 2.8171 119.952 5.5542 122.502 9.9941 Z" stroke-linecap="round"/>
</g>
<g transform="matrix(4.1873 0 0 4.1873 470.0011 394.001)" id="152440" clip-path="url(#CLIPPATH_8)">
<clipPath id="CLIPPATH_8">
	<rect transform="matrix(1 0 0 1 0 0.0003)" id="clip0_302_60" x="-79" y="-79" rx="0" ry="0" width="158" height="158"/>
</clipPath>
<path style="stroke: none; stroke-width: 1; stroke-dasharray: none; stroke-linecap: butt; stroke-dashoffset: 0; stroke-linejoin: miter; stroke-miterlimit: 4; is-custom-font: none; font-file-url: none; fill: rgb(0,230,118); fill-rule: nonzero; opacity: 1;" vector-effect="non-scaling-stroke" transform=" translate(-79, -78.9997)" d="M 155.762 70.7044 L 124.67 16.7491 C 121.674 11.5327 116.117 8.31686 110.102 8.31844 H 47.9186 C 41.9447 8.27481 36.3974 11.4081 33.3507 16.5467 L 2.25885 70.5021 C -0.753053 75.7188 -0.753053 82.1463 2.25885 87.363 L 33.3507 141.318 C 36.3737 146.499 41.9207 149.683 47.9186 149.681 H 110.102 C 116.058 149.725 121.596 146.623 124.67 141.521 L 155.762 87.5654 C 158.746 82.3414 158.746 75.9287 155.762 70.7044 Z" stroke-linecap="round"/>
</g>
<g transform="matrix(1 0 0 1 470 394)" style="" id="4754">
		
<path xml:space="preserve" font-family="EduVICWANTBeginner VariableFont wght" font-size="566" font-weight="normal" style="stroke: none; stroke-width: 0; stroke-dasharray: none; stroke-linecap: butt; stroke-dashoffset: 0; stroke-linejoin: miter; stroke-miterlimit: 4; is-custom-font: true; font-file-url: https://cdn.pixelied.com/user-assets/fonts/6b672ebc-7eb4-4579-82ad-663bd93916c7.ttf; fill: rgb(255,255,255); fill-rule: nonzero; opacity: 1; white-space: pre;" d="M-180.46 180.63L-180.46 180.63Q-213.29 180.63-228.85 153.18Q-244.42 125.73-235.93 78.75L-235.93 78.75Q-228.00 36.87-206.78 6.31Q-185.55-24.26-153.29-40.96Q-121.03-57.65-80.84-57.65L-80.84-57.65L-45.75-57.65L-50.85-26.52L-78.58-26.52Q-126.69-26.52-159.80 1.78Q-192.91 30.08-201.97 78.75L-201.97 78.75Q-207.63 111.58-199.42 130.54Q-191.21 149.50-174.80 149.50L-174.80 149.50Q-151.59 149.50-124.14 108.47Q-96.69 67.43-70.09-3.88L-70.09-3.88L-78.01 71.40Q-97.82 126.30-125.84 153.47Q-153.86 180.63-180.46 180.63ZM-81.98 177.80L-81.98 177.80Q-89.33 177.80-94.71 172.71Q-100.09 167.62-98.96 158.56L-98.96 158.56L-27.64-246.70Q-25.94-254.05-20.57-256.88Q-15.19-259.71-9.53-259.15L-9.53-259.15Q-2.17-258.58 2.64-253.77Q7.45-248.96 6.32-241.04L6.32-241.04L-66.13 163.65Q-67.26 171.01-71.79 174.41Q-76.32 177.80-81.98 177.80Z"/><path xml:space="preserve" font-family="EduVICWANTBeginner VariableFont wght" font-size="566" font-weight="normal" style="stroke: none; stroke-width: 0; stroke-dasharray: none; stroke-linecap: butt; stroke-dashoffset: 0; stroke-linejoin: miter; stroke-miterlimit: 4; is-custom-font: true; font-file-url: https://cdn.pixelied.com/user-assets/fonts/6b672ebc-7eb4-4579-82ad-663bd93916c7.ttf; fill: rgb(255,255,255); fill-rule: nonzero; opacity: 1; white-space: pre;" d="M21.60 177.80L21.60 177.80Q10.85 177.80 8.58 172.14Q6.32 166.48 6.89 162.52L6.89 162.52L77.07-241.04Q78.77-250.66 84.14-254.90Q89.52-259.15 99.71-259.15L99.71-259.15Q108.20-259.15 110.75-254.34Q113.29-249.53 111.60-241.04L111.60-241.04L40.85 162.52Q40.28 164.79 37.45 171.29Q34.62 177.80 21.60 177.80ZM172.72 177.80L172.72 177.80Q161.97 177.80 159.71 171.58Q157.44 165.35 158.01 161.39L158.01 161.39L182.91 21.02Q185.18 9.70 183.48-1.90Q181.78-13.50 174.42-21.43Q167.06-29.35 151.78-29.35L151.78-29.35Q130.84-29.35 107.07-8.69Q83.30 11.97 51.60 60.64L51.60 60.64L58.39 12.53Q81.60-24.26 103.95-42.37Q126.31-60.48 154.05-60.48L154.05-60.48Q178.38-60.48 193.38-48.60Q208.38-36.71 214.32-17.47Q220.27 1.78 216.31 23.29L216.31 23.29L191.40 163.65Q190.84 165.92 188.29 171.86Q185.74 177.80 172.72 177.80Z"/></g>
</svg>