<svg xmlns="http://www.w3.org/2000/svg" xmlns:xlink="http://www.w3.org/1999/xlink" width="1051" height="704" viewBox="0 0 1051 704">
  <defs>
    <clipPath id="clip-dp-about">
      <rect width="1051" height="704"/>
    </clipPath>
  </defs>
  <g id="dp-about" clip-path="url(#clip-dp-about)">
    <rect width="1051" height="704" fill="#fff"/>
    <g id="about" transform="translate(16.07 -0.353)">
      <path id="Path_182" data-name="Path 182" d="M1125.43,472.176c0,142.47-90.3,263.86-216.78,310.05a326.339,326.339,0,0,1-59.32,15.57,332.228,332.228,0,0,1-165.72-15.05c-127.28-45.81-218.24-167.61-218.18-310.64,0-182.18,147.75-329.93,330-329.93a328.565,328.565,0,0,1,192.01,61.6C1070.99,263.636,1125.43,361.546,1125.43,472.176Z" transform="translate(-74.569 -97.824)" fill="#e5e5e5"/>
      <path id="Path_183" data-name="Path 183" d="M908.651,782.226a326.35,326.35,0,0,1-59.32,15.57,332.229,332.229,0,0,1-165.72-15.05l15.24-61.15.92-3.67,31.1.12,156.24.56,2,5.91Z" transform="translate(-74.569 -97.824)" fill="#2f2e41"/>
      <rect id="Rectangle_25" data-name="Rectangle 25" width="286.651" height="324.355" fill="#e6e6e6"/>
      <rect id="Rectangle_25-2" data-name="Rectangle 25-2" width="275.928" height="310.632" transform="translate(5.111 6.862)" fill="#fff"/>
      <circle id="Ellipse_116" data-name="Ellipse 116" cx="15.467" cy="15.467" r="15.467" transform="translate(127.859 275.515)" fill="#e6e6e6"/>
      <rect id="Rectangle_31" data-name="Rectangle 31" width="88.837" height="9.088" transform="translate(51.876 116.819)" fill="#e6e6e6"/>
      <rect id="Rectangle_32" data-name="Rectangle 32" width="134.079" height="9.088" transform="translate(51.876 144.052)" fill="#6c63ff"/>
      <rect id="Rectangle_38" data-name="Rectangle 38" width="120.918" height="9.088" transform="translate(51.876 171.456)" fill="#e6e6e6"/>
      <rect id="Rectangle_39" data-name="Rectangle 39" width="186.723" height="9.088" transform="translate(51.876 198.136)" fill="#6c63ff"/>
      <rect id="Rectangle_40" data-name="Rectangle 40" width="152.175" height="9.088" transform="translate(53.817 223.545)" fill="#e6e6e6"/>
      <g id="Group_52" data-name="Group 52">
        <path id="Path_846" data-name="Path 846" d="M482.178,625.614a29.763,29.763,0,0,1,2.991,3.6l140.109-3.428,16.345-29.868,48.3,18.776-23.8,55.687a22.609,22.609,0,0,1-23.5,13.561l-158.3-19.123a29.665,29.665,0,1,1-2.15-39.211Z" transform="translate(-74.569 -97.824)" fill="#9f616a"/>
        <path id="Path_852" data-name="Path 852" d="M670.758,455.065l65.569-21.489,19.258-26.411,93.716,5.546,13.759,30.82,49.972,23.613-7.68,142.624L892.214,743.245c-67.558-34.983-193.639-8.312-194.743-7.878Z" transform="translate(-74.569 -97.824)" fill="#6c63ff"/>
        <path id="Path_853" data-name="Path 853" d="M684.775,648.114,618.081,621.43l.284-1.187c.286-1.2,28.672-119.817,32.441-138.879,3.926-19.859,18.271-25.35,18.88-25.573l.445-.164,26.394,8.034,11.592,91.081Z" transform="translate(-74.569 -97.824)" fill="#6c63ff"/>
        <path id="Path_855" data-name="Path 855" d="M828.78,737.377a29.72,29.72,0,0,1,4.677.258L926.2,632.563l-10.788-32.286,46.608-22.652,24.655,55.313a22.608,22.608,0,0,1-6.034,26.453L859,762.464a29.665,29.665,0,1,1-30.215-25.087Z" transform="translate(-74.569 -97.824)" fill="#9f616a"/>
        <path id="Path_856" data-name="Path 856" d="M918.8,642.791l-38.689-91.006,15.09-63.391,16.259-20.541a9.366,9.366,0,0,1,7.524.07c6,2.413,11.1,9.81,15.177,21.984l36.259,103.279Z" transform="translate(-74.569 -97.824)" fill="#6c63ff"/>
        <path id="Path_857" data-name="Path 857" d="M718.072,373.442v-68.61a91.938,91.938,0,0,1,183.875-.609q0,.3,0,.609v68.61a12.364,12.364,0,0,1-12.35,12.35H730.422A12.364,12.364,0,0,1,718.072,373.442Z" transform="translate(-74.569 -97.824)" fill="#2f2e41"/>
        <circle id="Ellipse_148" data-name="Ellipse 148" cx="67.405" cy="67.405" r="67.405" transform="translate(649.143 151.56)" fill="#9f616a"/>
        <path id="Path_858" data-name="Path 858" d="M696.322,310.321a72.809,72.809,0,0,1,72.727-72.727h13.723A72.808,72.808,0,0,1,855.5,310.321v1.372h-29l-9.891-27.7-1.978,27.7H799.643l-4.99-13.974-1,13.974H696.322Z" transform="translate(-74.569 -97.824)" fill="#2f2e41"/>
        <path id="Path_859" data-name="Path 859" d="M784.484,393.508a12.167,12.167,0,0,1-.967-12.918c14.541-27.658,34.9-78.765,7.877-110.283l-1.938-2.262h78.456v117.79L796.641,398.41a12.6,12.6,0,0,1-2.185.193,12.3,12.3,0,0,1-9.967-5.092Z" transform="translate(-74.569 -97.824)" fill="#2f2e41"/>
      </g>
      <g id="Group_51" data-name="Group 51">
        <path id="Path_341" data-name="Path 341" d="M217.646,123.086a32.891,32.891,0,1,0,32.889,32.891h0a32.891,32.891,0,0,0-32.891-32.891Zm0,9.866a9.866,9.866,0,1,1-9.866,9.866h0a9.867,9.867,0,0,1,9.867-9.867Zm0,47.5a23.961,23.961,0,0,1-19.734-10.532c.158-6.578,13.156-10.2,19.734-10.2s19.576,3.621,19.735,10.2a24,24,0,0,1-19.735,10.531Z" transform="translate(-74.569 -97.824)" fill="#6c63ff"/>
      </g>
      <path id="Path_842" data-name="Path 842" d="M218.028,394.735c13.55-24.831,46.01-40.556,72.563-26.382,11.952,6.379,21.453,17.663,24.469,31,3.5,15.493-3.875,30.266-11.488,43.282-4.132,7.065-8.66,13.986-12.08,21.438-3.541,7.717-6.072,16.636-3.406,25.031,2.4,7.563,8.418,13.064,15.008,17.107a111.828,111.828,0,0,0,23.061,10.3,135.744,135.744,0,0,0,51.485,6.661,140.8,140.8,0,0,0,25.66-4.148c8.943-2.28,17.719-5.17,26.677-7.4,14.956-3.715,32.009-5.562,46.191,1.9,13.778,7.252,19.944,22.419,21.851,37.174,3.522,27.246-7.281,55.52-26.786,74.6-9.358,9.154-21.134,16.717-33.96,19.811-11.191,2.7-25.561,2.527-34.467-5.839-9.938-9.337-7.6-24.309.293-34.16,10.075-12.569,27.143-15.588,42.374-15.894,17.326-.348,34.636,2.232,51.952.628a79.8,79.8,0,0,0,24.568-5.926,62.259,62.259,0,0,0,18.515-12.529c10.69-10.386,17.9-24.222,21.485-38.608,4.317-17.3,3.376-35.482.025-52.859a238.37,238.37,0,0,0-6.888-26.507c-1.157-3.67-6.952-2.1-5.786,1.6,10.32,32.724,16.074,70.563-3.865,100.946a60.107,60.107,0,0,1-35.943,25.873c-17.257,4.289-35.365,2.169-52.909,1.531-16.682-.607-35,.048-49.3,9.764-11.731,7.969-19.936,23.127-16.39,37.437,3.419,13.8,16.681,20.8,29.945,21.878,13.917,1.134,27.612-3.537,39.3-10.841,24.313-15.193,40.479-41.913,43.862-70.242,1.763-14.761-.031-30.661-6.725-44.059a43.133,43.133,0,0,0-15.847-17.661c-6.81-4.175-14.676-6.23-22.576-6.957-17.948-1.653-35.192,4.509-52.218,9.223a144.8,144.8,0,0,1-26.628,5.083,132.979,132.979,0,0,1-26.272-.428,129.362,129.362,0,0,1-25.457-5.65,101.9,101.9,0,0,1-23.108-10.447c-6.385-4.083-11.907-9.931-12.221-17.9-.341-8.641,4.016-16.724,8.16-24.009,8.187-14.391,18.3-28.467,20.435-45.314,1.87-14.737-4.06-29.262-14.3-39.773a53.771,53.771,0,0,0-39.737-16.485c-15.193.435-29.74,7.042-40.915,17.189a67.358,67.358,0,0,0-13.8,17.53c-1.851,3.391,3.328,6.422,5.181,3.028Z" transform="translate(-74.569 -97.824)" fill="#3f3d56"/>
    </g>
    <text id="Give_your_Feedback" data-name="Give your Feedback" transform="translate(16 480)" font-size="36" font-family="Sitka Banner" font-weight="700"><tspan x="0" y="0">Give your Feedback</tspan></text>
  </g>
</svg>
