<svg xmlns="http://www.w3.org/2000/svg" xmlns:xlink="http://www.w3.org/1999/xlink" width="731" height="633" viewBox="0 0 731 633">
  <defs>
    <clipPath id="clip-dp-home">
      <rect width="731" height="633"/>
    </clipPath>
  </defs>
  <g id="dp-home" clip-path="url(#clip-dp-home)">
    <rect width="731" height="633" fill="#fff"/>
    <g id="donated" transform="translate(0 3.728)">
      <path id="Path_1" data-name="Path 1" d="M538.567,682.174l7.985-26a87.77,87.77,0,0,0-35.084-23.506c13.124,21.743.407,50.108,5.706,74.946a52.794,52.794,0,0,0,28.277,35.978L557.569,758.6a88.466,88.466,0,0,0,6.5-73.787,85.453,85.453,0,0,0-9.894-19.018C546.976,674.261,538.567,682.174,538.567,682.174Z" transform="translate(-234.462 -135.193)" fill="#f2f2f2"/>
      <path id="Path_2" data-name="Path 2" d="M494.662,685.5l-4.451-26.836a87.771,87.771,0,0,0-41.885-5.392c21.444,13.608,22.711,44.667,38.532,64.535a52.794,52.794,0,0,0,41.355,19.591l17.541,8.034a88.466,88.466,0,0,0-27.088-68.942,85.453,85.453,0,0,0-17.337-12.609C498.659,674.664,494.662,685.5,494.662,685.5Z" transform="translate(-234.462 -135.193)" fill="#f2f2f2"/>
      <path id="Path_3" data-name="Path 3" d="M521.537,616.734h-12.3l-5.851-47.44h18.153Z" fill="#ffb6b6"/>
      <path id="Path_4" data-name="Path 4" d="M759.135,763.849H719.477v-.5a15.437,15.437,0,0,1,15.435-15.436h0l7.244-5.5,13.516,5.5h3.462Z" transform="translate(-234.462 -135.193)" fill="#2f2e41"/>
      <path id="Path_5" data-name="Path 5" d="M720.217,571.872l-8.386,9L673.137,552.8l12.377-13.278Z" fill="#ffb6b6"/>
      <path id="Path_6" data-name="Path 6" d="M965.538,712.9l-27.04,29.01-.367-.342a15.437,15.437,0,0,1-.768-21.816h0l.919-9.046,13.236-6.14,2.36-2.532Z" transform="translate(-234.462 -135.193)" fill="#2f2e41"/>
      <path id="Path_7" data-name="Path 7" d="M936.479,680.4l-13,27.189L843.65,654.738l-11.613-15.823-38.079-51.883-15.479,24.561-10.771,25.675h0a28.3,28.3,0,0,0-12.675,20.654l-.493,4.546,6.806,61.182-25.868,7.943L720.623,649.4l4.857-17.81,5-25,25.174-79h67.364l38.638,82.242,2.824,16.758,10.955,12.573Z" transform="translate(-234.462 -135.193)" fill="#2f2e41"/>
      <path id="Path_8" data-name="Path 8" d="M796.483,398.341l11.34,8.635,13.676,4.2s5.654,79.528,10.748,84.623.5,5.231,1.523,11.849,3.512,20.184,3.512,20.184c-34.387,18.2-64.032,18.691-87.845-2.609a5.931,5.931,0,0,1,3.236-6.695c4.432-2.352-4.086-13.328-.464-15.163s-1.472-17.755-1.472-17.755l3.342-33.216-2.64-5.31,6.443-32.489,11.18-4.083,4.466-10.76Z" transform="translate(-234.462 -135.193)" fill="#3f3d56"/>
      <path id="Path_9" data-name="Path 9" d="M803.587,539.69a9.83,9.83,0,0,1,11.207-10.08l15.982-31.064,8.9,15.82-16.541,27.073a9.884,9.884,0,0,1-19.551-1.749Z" transform="translate(-234.462 -135.193)" fill="#ffb6b6"/>
      <path id="Path_10" data-name="Path 10" d="M830.5,532.091l34.278-53.127-.113-.244c-.129-.28-7.892-17.045-15.413-32.4-1.158-2.365-2.311-4.7-3.429-6.928q-.724-1.445-1.426-2.83c-3.159-6.228-5.919-11.375-7.566-13.82a29.015,29.015,0,0,0-15.375-11.664l-.159-.041-.151.063a14.724,14.724,0,0,0-8.763,16.2,104.3,104.3,0,0,0,19.353,43.755l5.557,7.325-19.312,41.985Z" transform="translate(-234.462 -135.193)" fill="#3f3d56"/>
      <path id="Path_11" data-name="Path 11" d="M712.628,328.445a9.83,9.83,0,0,1-2.359,14.888l7.146,34.2-16.879-6.683-4.2-31.448a9.884,9.884,0,0,1,16.29-10.953Z" transform="translate(-234.462 -135.193)" fill="#ffb6b6"/>
      <path id="Path_12" data-name="Path 12" d="M696.505,351.3l6.826,62.857.242.119c.2.1,8.847,4.339,19.461,9.391,1.791.852,1.534,4.543,3.405,5.426,1.289.608,4.693-1.6,6-.988,11.6,5.426,23.334,10.7,28.01,12.131a29.016,29.016,0,0,0,19.289-.621l.149-.068.078-.144a14.724,14.724,0,0,0-3.392-18.1,104.3,104.3,0,0,0-42.586-21.8l-8.929-2.191-11.436-44.776Z" transform="translate(-234.462 -135.193)" fill="#3f3d56"/>
      <circle id="Ellipse_1" data-name="Ellipse 1" cx="22.431" cy="22.431" r="22.431" transform="translate(527.5 214.725)" fill="#ffb6b6"/>
      <path id="Path_13" data-name="Path 13" d="M762.123,357.318c1.845-5.367,11.027-9.089,25.914-9.606S806.7,364.738,806.7,364.738c9.938,8.062-10.612,29.645-11.606,28.868l.447-4.055c.74-6.717,3.885-11.957-.115-18.957l-3.841.044L776.7,373.5l5.873-5.171-.166-.256a22.727,22.727,0,0,1-8.017,2.434c-3.156.186-6.607-1.071-8.119-3.848a6.466,6.466,0,0,1-.725-2.46c-4.256,1.7-6.2,6.948-6.2,6.948S760.278,362.685,762.123,357.318Z" transform="translate(-234.462 -135.193)" fill="#2f2e41"/>
      <path id="Path_14" data-name="Path 14" d="M324.835,358.664a12.021,12.021,0,0,0-.981-1.1c.085-.117.171-.245.256-.363Z" transform="translate(-234.462 -135.193)" fill="#2f2e41"/>
      <path id="Path_15" data-name="Path 15" d="M329.2,448.88c-3.669,6.517-11,10.154-18.261,11.936a45.629,45.629,0,0,1-24.82-.48c-1.024-.331-2.048-.715-3.04-1.141a26.192,26.192,0,0,0,1.131-3.893,26.7,26.7,0,0,0,.555-5.45,17.206,17.206,0,0,1-3.1,4.277,15.7,15.7,0,0,1-3.253,2.613,31.947,31.947,0,0,1-9.44-8.768c.16-.395.32-.789.469-1.184a42.554,42.554,0,0,0,1.835-6.336,43.323,43.323,0,0,0,.907-8.864,27.851,27.851,0,0,1-5.056,6.954,22.673,22.673,0,0,1-1.941,1.845,25.523,25.523,0,0,1,1.536-19.637c4.224-7.808,12.416-12.448,19.711-17.493s14.613-11.872,15.232-20.735c.416-5.984-2.357-11.978-1.248-17.866a13.8,13.8,0,0,1,23.444-7.093c-4.139,5.866-8.256,11.936-9.93,18.911-1.707,7.1-.309,15.434,5.291,20.138,1.92,1.621,4.277,2.773,5.76,4.8,1.973,2.688,1.984,6.272,2.3,9.578.64,6.432,2.741,12.618,3.872,18.986S332.355,443.237,329.2,448.88Z" transform="translate(-234.462 -135.193)" fill="#2f2e41"/>
      <path id="Path_16" data-name="Path 16" d="M19.519,578.2l9.735,7.521L62.9,551.747l-14.368-11.1Z" fill="#a0616a"/>
      <path id="Path_17" data-name="Path 17" d="M254.4,706.039l16.1,10.972L265.4,723.6l6.823,21.409a5.2,5.2,0,0,1-8.141,5.7l-18.32-14.156,1.881-8.961-6.272,5.569-6.907-5.337Z" transform="translate(-234.462 -135.193)" fill="#2f2e41"/>
      <path id="Path_18" data-name="Path 18" d="M303.369,377.614A23.236,23.236,0,1,0,343.335,361.5l-.112-.111c-.186-.2-.372-.39-.567-.576a.009.009,0,0,1-.009-.009c-.242-.223-.483-.446-.734-.66-4.09-3.588-9.837-7.482-15.7-7.482C313.375,352.659,303.369,364.778,303.369,377.614Z" transform="translate(-234.462 -135.193)" fill="#2f2e41"/>
      <path id="Path_19" data-name="Path 19" d="M435.811,365.681a8.511,8.511,0,0,1-9.217,9.24l-57.538,51.951-9.9-15.638,59.672-46.149a8.557,8.557,0,0,1,16.985.6Z" transform="translate(-234.462 -135.193)" fill="#a0616a"/>
      <path id="Path_20" data-name="Path 20" d="M344.465,442.554s2.141,3.954,9.454-2.151c5.854-4.888,33.9-26.107,39.945-34.8a6.686,6.686,0,0,0,7.872-2.286l-16.556-14.5c-4.954.57-4.847,3.9-4.332,5.787L368.36,400.26l-32.25,20.61,6.756,18.854Z" transform="translate(-234.462 -135.193)" fill="#6c63ff"/>
      <path id="Path_21" data-name="Path 21" d="M78.761,343.789l-1.206,5.743-1.024,21.184,45.084,2.478-1.4-32.582-4.37-7.18Z" fill="#a0616a"/>
      <circle id="Ellipse_2" data-name="Ellipse 2" cx="19.485" cy="19.485" r="19.485" transform="translate(78.384 228.313)" fill="#a0616a"/>
      <path id="Path_22" data-name="Path 22" d="M297.737,454.858l-.12-16.2a25.776,25.776,0,0,1,19.962-25.124l.074-.017,3.853-5.191,15.653,1.566,2.869,5.864,11.343,6.754,4.367,14.039a16.6,16.6,0,0,1,7.174,11.119c1.483,9.471-5.148,18.947-5.937,20.033l-2.032,11.446-44.21,7.8-.359.045Z" transform="translate(-234.462 -135.193)" fill="#6c63ff"/>
      <path id="Path_23" data-name="Path 23" d="M356.173,379.517a66.432,66.432,0,0,1-7.061,3.893,40.633,40.633,0,0,1-7.7,2.784,26.617,26.617,0,0,0-2.773-4.725,17.183,17.183,0,0,1,.021,5.28,27.507,27.507,0,0,1-13.13-1.077l-3.669-6.154-.277,6.869c-3.04.555-6.069,1.077-9.109,1.621-.181.021-.363.064-.533.1-1.888-8.512.789-17.887,6.741-23.562a21.445,21.445,0,0,1,22.527-4.373c.48.192.971.405,1.44.629a.01.01,0,0,0,0,.008.01.01,0,0,0,.008,0c.277.139.512.469.821.437C356.791,359.763,357.218,370.087,356.173,379.517Z" transform="translate(-234.462 -135.193)" fill="#2f2e41"/>
      <path id="Path_24" data-name="Path 24" d="M89.3,553.071l9.75,7.5,33.576-34.037-14.39-11.071Z" fill="#a0616a"/>
      <path id="Path_25" data-name="Path 25" d="M325.042,681.594l16.12,10.939-5.081,6.6,6.866,21.395a5.2,5.2,0,0,1-8.129,5.715l-18.349-14.119,1.863-8.965-6.261,5.581-6.918-5.323Z" transform="translate(-234.462 -135.193)" fill="#2f2e41"/>
      <path id="Path_26" data-name="Path 26" d="M292.12,646.722v-.127l4.621-7.963-4.718-10.365-.142-26.631.765-4a33.631,33.631,0,0,0-.872-16.159h0l-.086-16.21c-.166-4.061,6.125-7.632,4.658-11.018-13.866-32,14.16-56.41,14.349-56.606l.573-.6,3.107,2.354,2.958,0,39.912,7.273.288.537c1.57,2.944,4.6,13.093,4.779,17.686,1.989,2.3,24.647,28.521,26.661,30.343,13.611,12.315,21.4,32.7,24.837,43.753a17.555,17.555,0,0,1-3.006,16.143l-51.527,56.439-13.866-12.8,27.881-50.805-2.01-5.155a15.843,15.843,0,0,1-9.237-5.366l-5.646-6.7a12.529,12.529,0,0,1-2.86-6.517l-3.424-.412L337.851,570.95,329.343,648l-2.313,6.087-40.284,47.359-17.067-10.667Z" transform="translate(-234.462 -135.193)" fill="#2f2e41"/>
      <path id="Path_27" data-name="Path 27" d="M285.968,315.87a8.511,8.511,0,0,0,2.623,12.785l-12.809,37.922,10.46,40.187,16.866-7.625L292.7,368.827l7.787-44.122a8.557,8.557,0,0,0-14.519-8.835Z" transform="translate(-234.462 -135.193)" fill="#a0616a"/>
      <path id="Path_28" data-name="Path 28" d="M301.407,439.876s-3.961,2.127-6.716-6.992c-2.206-7.3-17.215-46.94-17.486-57.526a6.686,6.686,0,0,1-5.321-6.236l21.8-3.017c3.825,3.2,1.908,5.92.439,7.215l7.425,12.577,15.519,33.953L304.3,438.389Z" transform="translate(-234.462 -135.193)" fill="#6c63ff"/>
      <path id="Path_29" data-name="Path 29" d="M312.468,388.005a39.634,39.634,0,0,1,30.514-26.517c.028-.009.121-.046.242-.1.074-.047.167-.093.26-.139-.279-.158-.548-.3-.827-.437a.009.009,0,0,1-.009-.009c-.242-.223-.483-.446-.734-.66l-.706.028S316.381,356.237,312.468,388.005Z" transform="translate(-234.462 -135.193)" fill="#fd6584"/>
      <ellipse id="Ellipse_3" data-name="Ellipse 3" cx="8.857" cy="10.195" rx="8.857" ry="10.195" transform="translate(376.464 466.022) rotate(-56.364)" fill="#f2f2f2"/>
      <ellipse id="Ellipse_4" data-name="Ellipse 4" cx="8.857" cy="10.195" rx="8.857" ry="10.195" transform="translate(321.465 314.021) rotate(-56.364)" fill="#f2f2f2"/>
      <ellipse id="Ellipse_5" data-name="Ellipse 5" cx="8.857" cy="10.195" rx="8.857" ry="10.195" transform="translate(551.465 548.023) rotate(-56.364)" fill="#f2f2f2"/>
      <ellipse id="Ellipse_6" data-name="Ellipse 6" cx="8.857" cy="10.195" rx="8.857" ry="10.195" transform="translate(86.464 59.019) rotate(-56.364)" fill="#f2f2f2"/>
      <ellipse id="Ellipse_7" data-name="Ellipse 7" cx="8.857" cy="10.195" rx="8.857" ry="10.195" transform="translate(303.465 11.019) rotate(-56.364)" fill="#f2f2f2"/>
      <ellipse id="Ellipse_8" data-name="Ellipse 8" cx="8.857" cy="10.195" rx="8.857" ry="10.195" transform="translate(200.763 413.735) rotate(-56.364)" fill="#e6e6e6"/>
      <path id="Path_30" data-name="Path 30" d="M904.729,764.807H254.435a1.191,1.191,0,1,1,0-2.381H904.729a1.191,1.191,0,0,1,0,2.381Z" transform="translate(-234.462 -135.193)" fill="#ccc"/>
      <path id="Path_31" data-name="Path 31" d="M375.47,369.355a22.24,22.24,0,0,1-22.045-19.831l-12.7-117.906a22.23,22.23,0,0,1,19.7-24.455l376.954-40.588a22.23,22.23,0,0,1,24.456,19.7l12.7,117.906a22.231,22.231,0,0,1-19.7,24.456l-.054-.5.054.5L377.881,369.225A22.5,22.5,0,0,1,375.47,369.355Z" transform="translate(-234.462 -135.193)" fill="#e6e6e6"/>
      <path id="Path_32" data-name="Path 32" d="M733.233,172.048a19.856,19.856,0,0,0-2.12.114L367.749,211.287a19.459,19.459,0,0,0-17.264,21.431l6.419,59.615a73.811,73.811,0,0,0,81.29,65.486L693.7,330.308a73.588,73.588,0,0,0,65.287-81.043l-6.443-59.838a19.463,19.463,0,0,0-19.31-17.378Z" transform="translate(-234.462 -135.193)" fill="#fff"/>
      <path id="Path_34" data-name="Path 34" d="M659.634,261.213,456.546,283.08a4.444,4.444,0,0,1-.952-8.838l203.088-21.867a4.444,4.444,0,0,1,.952,8.838Z" transform="translate(-234.462 -135.193)" fill="#6c63ff"/>
      <path id="Path_35" data-name="Path 35" d="M483.133,307.654,459.466,310.2a4.444,4.444,0,1,1-.952-8.838l23.667-2.548a4.444,4.444,0,0,1,.952,8.838Z" transform="translate(-234.462 -135.193)" fill="#6c63ff"/>
      <circle id="Ellipse_9" data-name="Ellipse 9" cx="8" cy="8" r="8" transform="translate(125.018 85.4)" fill="#3f3d56"/>
      <circle id="Ellipse_10" data-name="Ellipse 10" cx="8" cy="8" r="8" transform="translate(483.018 45.4)" fill="#3f3d56"/>
      <path id="Path_36" data-name="Path 36" d="M617.323,360.829a6.587,6.587,0,0,1-2.236-5.2,87.659,87.659,0,0,0-5.63-34.077,6.587,6.587,0,0,1,.446-5.639,6.439,6.439,0,0,1,4.449-3.13c9.3-5.611,18.831-7.187,28.338-4.681a6.515,6.515,0,0,1,7.163,4.491,144.982,144.982,0,0,1,6.365,38.525,6.514,6.514,0,0,1-5.446,6.575l-28.133,4.648A6.438,6.438,0,0,1,617.323,360.829Z" transform="translate(-234.462 -135.193)" fill="#6c63ff"/>
      <path id="Path_37" data-name="Path 37" d="M619.821,326.974l23.679-3.912a1.5,1.5,0,0,0-.489-2.96l-23.679,3.912a1.5,1.5,0,0,0,.489,2.96Z" transform="translate(-234.462 -135.193)" fill="#fff"/>
      <path id="Path_38" data-name="Path 38" d="M621.777,338.813l23.679-3.912a1.5,1.5,0,0,0-.489-2.96l-23.679,3.912a1.5,1.5,0,0,0,.489,2.96Z" transform="translate(-234.462 -135.193)" fill="#fff"/>
      <path id="Path_39" data-name="Path 39" d="M623.733,350.653l23.679-3.912a1.5,1.5,0,1,0-.489-2.96l-23.679,3.912a1.5,1.5,0,0,0,.489,2.96Z" transform="translate(-234.462 -135.193)" fill="#fff"/>
    </g>
    <text id="I_have_donated_" data-name="I have donated!" transform="matrix(0.995, -0.105, 0.105, 0.995, 214.219, 123.34)" font-size="36" font-family="Sitka Banner" font-weight="700"><tspan x="0" y="0">I have donated!</tspan></text>
  </g>
</svg>
