<svg xmlns="http://www.w3.org/2000/svg" xmlns:xlink="http://www.w3.org/1999/xlink" width="850" height="718" viewBox="0 0 850 718">
  <defs>
    <clipPath id="clip-dp-home">
      <rect width="850" height="718"/>
    </clipPath>
  </defs>
  <g id="dp-home" clip-path="url(#clip-dp-home)">
    <rect width="850" height="718" fill="#fff"/>
    <g id="dp-home-2" data-name="dp-home" transform="translate(0.032 0)">
      <path id="Path_40" data-name="Path 40" d="M827.735,757.233H442.841a9.01,9.01,0,0,1-9-9V485.411a9.01,9.01,0,0,1,9-9H827.735a9.01,9.01,0,0,1,9,9V748.233a9.01,9.01,0,0,1-9,9Z" transform="translate(-175.017 -90.821)" fill="#fff"/>
      <path id="Path_41" data-name="Path 41" d="M827.735,757.233H442.841a9.01,9.01,0,0,1-9-9V485.411a9.01,9.01,0,0,1,9-9H827.735a9.01,9.01,0,0,1,9,9V748.233a9.01,9.01,0,0,1-9,9ZM442.841,478.411a7.008,7.008,0,0,0-7,7V748.233a7.008,7.008,0,0,0,7,7H827.735a7.008,7.008,0,0,0,7-7V485.411a7.008,7.008,0,0,0-7-7Z" transform="translate(-175.017 -90.821)" fill="#3f3d56"/>
      <path id="Path_42" data-name="Path 42" d="M679.842,755.652H590.734V608.132a13.212,13.212,0,0,1,13.2-13.2h62.715a13.212,13.212,0,0,1,13.2,13.2Z" transform="translate(-175.017 -90.821)" fill="#e6e6e6"/>
      <path id="Path_43" data-name="Path 43" d="M806.743,420.388H755.856V335.344a9.01,9.01,0,0,1,9-9h32.888a9.01,9.01,0,0,1,9,9Z" transform="translate(-175.017 -90.821)" fill="#fff"/>
      <path id="Path_44" data-name="Path 44" d="M806.743,420.388H755.856V335.344a9.01,9.01,0,0,1,9-9h32.888a9.01,9.01,0,0,1,9,9Zm-48.888-2h46.888V335.344a7.008,7.008,0,0,0-7-7H764.856a7.008,7.008,0,0,0-7,7Z" transform="translate(-175.017 -90.821)" fill="#3f3d56"/>
      <circle id="Ellipse_11" data-name="Ellipse 11" cx="97.992" cy="97.992" r="97.992" transform="translate(246.829 169.395)" fill="#f2f2f2"/>
      <path id="Path_45" data-name="Path 45" d="M782.824,311.435c-8.825-.277-16.681-8.326-16.744-17.156s7.677-16.99,16.5-17.393c19.64-.9,35.719-21.975,31.4-41.154s-27.887-31.322-46.014-23.71C754.056,217.862,740,199.464,743.529,184.8s16.86-24.511,29.2-33.182,25.539-18.852,28.518-33.636-12.268-32.494-25.7-25.641" transform="translate(-175.017 -90.821)" fill="#e6e6e6"/>
      <path id="Path_46" data-name="Path 46" d="M553.1,637.787H477.826A11.337,11.337,0,0,1,466.5,626.462V564.408a11.337,11.337,0,0,1,11.324-11.324H553.1a11.337,11.337,0,0,1,11.324,11.324v62.054A11.337,11.337,0,0,1,553.1,637.787Z" transform="translate(-175.017 -90.821)" fill="#e6e6e6"/>
      <path id="Path_47" data-name="Path 47" d="M794.491,637.787H719.221A11.337,11.337,0,0,1,707.9,626.462V564.408a11.337,11.337,0,0,1,11.325-11.324h75.271a11.337,11.337,0,0,1,11.325,11.324v62.054a11.337,11.337,0,0,1-11.325,11.325Z" transform="translate(-175.017 -90.821)" fill="#e6e6e6"/>
      <path id="Path_48" data-name="Path 48" d="M405.105,481.817V441.38a17.622,17.622,0,0,1,8.877-15.3L638.658,297.667a17.622,17.622,0,0,1,18.22.442l200.448,127.85a17.622,17.622,0,0,1,8.146,14.857v41a17.622,17.622,0,0,1-17.622,17.622H422.726A17.622,17.622,0,0,1,405.1,481.818Z" transform="translate(-175.017 -90.821)" fill="#6c63ff"/>
      <path id="Path_49" data-name="Path 49" d="M847.85,481.435H422.726A17.622,17.622,0,0,1,405.1,463.813v16a17.622,17.622,0,0,0,17.622,17.622H847.85a17.622,17.622,0,0,0,17.622-17.621v-16a17.622,17.622,0,0,1-17.621,17.622Z" transform="translate(-175.017 -90.821)" opacity="0.2"/>
      <path id="Path_50" data-name="Path 50" d="M882.367,619.811c0-31.01,25.138-104.593,56.148-104.593s56.147,73.584,56.147,104.593a56.148,56.148,0,1,1-112.3,0Z" transform="translate(-175.017 -90.821)" fill="#f2f2f2"/>
      <path id="Path_51" data-name="Path 51" d="M938.514,756.04a1,1,0,0,1-1-1V553.429a1,1,0,0,1,2,0V755.04a1,1,0,0,1-1,1Z" transform="translate(-175.017 -90.821)" fill="#3f3d56"/>
      <path id="Path_52" data-name="Path 52" d="M938.514,642.835a1,1,0,0,1-.724-1.69l28.543-29.952a1,1,0,1,1,1.448,1.38l-28.543,29.952a1,1,0,0,1-.724.31Z" transform="translate(-175.017 -90.821)" fill="#3f3d56"/>
      <path id="Path_53" data-name="Path 53" d="M938.514,592.337a1,1,0,0,1-.675-.262l-24.666-22.552a1,1,0,0,1,1.35-1.476L939.189,590.6a1,1,0,0,1-.675,1.738Z" transform="translate(-175.017 -90.821)" fill="#3f3d56"/>
      <path id="Path_54" data-name="Path 54" d="M197.045,558.113c0-45.616,36.979-153.861,82.6-153.861s82.6,108.245,82.6,153.861a82.6,82.6,0,1,1-165.191,0Z" transform="translate(-175.017 -90.821)" fill="#6c63ff"/>
      <path id="Path_55" data-name="Path 55" d="M279.64,758.04a1,1,0,0,1-1-1V460.462a1,1,0,0,1,2,0V757.04A1,1,0,0,1,279.64,758.04Z" transform="translate(-175.017 -90.821)" fill="#3f3d56"/>
      <path id="Path_56" data-name="Path 56" d="M279.64,591.51a1,1,0,0,1-.724-1.69L320.9,545.76a1,1,0,0,1,1.448,1.38L280.364,591.2a1,1,0,0,1-.724.31Z" transform="translate(-175.017 -90.821)" fill="#3f3d56"/>
      <path id="Path_57" data-name="Path 57" d="M279.64,517.226a1,1,0,0,1-.675-.262l-36.285-33.175a1,1,0,0,1,1.35-1.476l36.285,33.175a1,1,0,0,1-.675,1.738Z" transform="translate(-175.017 -90.821)" fill="#3f3d56"/>
      <path id="Path_58" data-name="Path 58" d="M899.292,755.941c.095.073.194.139.29.211h81.31c1.593-6.455,2.156-12.917-.224-18.529-3.391-8-13.426-12.988-21.4-9.554a12.183,12.183,0,0,0-4.785,3.786c-3.118-5.581-8.71-9.789-15.166-9.784-8.088.006-14.812,6.62-17.007,14.259-3.534-5.965-10.513-10.133-17.336-8.34C893.561,730.988,889.957,748.726,899.292,755.941Z" transform="translate(-175.017 -90.821)" fill="#e6e6e6"/>
      <path id="Path_59" data-name="Path 59" d="M200.757,757.726c.191.148.393.281.586.425H365.486c3.216-13.031,4.352-26.076-.452-37.405-6.845-16.143-27.1-26.22-43.208-19.287a24.592,24.592,0,0,0-9.659,7.643c-6.294-11.266-17.584-19.761-30.616-19.752-16.327.012-29.9,13.363-34.331,28.786-7.133-12.041-21.224-20.456-35-16.836C189.188,707.354,181.912,743.162,200.757,757.726Z" transform="translate(-175.017 -90.821)" fill="#e6e6e6"/>
      <rect id="Rectangle_1" data-name="Rectangle 1" width="849.965" height="2" transform="translate(-0.001 666.027) rotate(-0.108)" fill="#3f3d56"/>
      <path id="Path_60" data-name="Path 60" d="M461.831,714.539a5.582,5.582,0,0,0-4.99-6.954l-31.757-39.7-7.858,7.324,33.548,37.927a5.612,5.612,0,0,0,11.057,1.408Z" transform="translate(-175.017 -90.821)" fill="#ffb8b8"/>
      <path id="Path_61" data-name="Path 61" d="M431.176,674.188l-10.036,7.686a2.5,2.5,0,0,1-3.71-.773l-6.114-11.021a6.951,6.951,0,1,1,11.062-8.42L431.4,670.4a2.5,2.5,0,0,1-.221,3.784Z" transform="translate(-175.017 -90.821)" fill="#3f3d56"/>
      <circle id="Ellipse_12" data-name="Ellipse 12" cx="12.762" cy="12.762" r="12.762" transform="translate(226.542 533.873)" fill="#ffb8b8"/>
      <path id="Path_62" data-name="Path 62" d="M266.547,712.182h6.371l-.607-11.923h-9.4Z" fill="#ffb8b8"/>
      <path id="Path_63" data-name="Path 63" d="M439.939,800.924h12.546a8,8,0,0,1,8,8v.26H439.939Z" transform="translate(-175.017 -90.821)" fill="#2f2e41"/>
      <path id="Path_64" data-name="Path 64" d="M198.626,703.163l5.42,3.348,5.75-10.463-6.558-4.1Z" fill="#ffb8b8"/>
      <path id="Path_65" data-name="Path 65" d="M373.353,791.361l10.673,6.593h0a8,8,0,0,1,2.6,11l-.137.221-17.476-10.795Z" transform="translate(-175.017 -90.821)" fill="#2f2e41"/>
      <path id="Path_66" data-name="Path 66" d="M441.1,799.508A2.334,2.334,0,0,1,438.922,798l-23.043-55.094a.78.78,0,0,0-1.377-.167l-31.656,49.869a2.33,2.33,0,0,1-2.93.815l-4.332-2.022a2.348,2.348,0,0,1-1.145-3.076l25.935-57.812c-.566-1.378-6.09-15.524,2.4-22.513l.059-.037L425.844,697.7l.58,17.654,22.938,79.588a2.338,2.338,0,0,1-1.652,2.909l-6.008,1.581a2.343,2.343,0,0,1-.6.079Z" transform="translate(-175.017 -90.821)" fill="#2f2e41"/>
      <path id="Path_67" data-name="Path 67" d="M426.192,671.874c-.876-3.517-2.119-7.062-3.783-8.7a21.077,21.077,0,0,1-1.722-1.9,12.613,12.613,0,0,0-4.132-3.385c.587-.326.93-.716.93-1.135,0-1.148-2.559-2.078-5.716-2.078s-5.716.931-5.716,2.078a1.014,1.014,0,0,0,.34.7,12.163,12.163,0,0,0-7.52,10.14c-.738,7.906-.954,18.013,1.633,24.406a23.534,23.534,0,0,1,.486,16.586,2.076,2.076,0,0,0,2.748,2.582l22.836-9.2a2.078,2.078,0,0,0,1.3-1.928V686.066a58.692,58.692,0,0,0-1.686-14.192Z" transform="translate(-175.017 -90.821)" fill="#3f3d56"/>
      <path id="Path_68" data-name="Path 68" d="M382.5,729.438a5.582,5.582,0,0,0,3.868-7.636l17.867-47.117-9.061-2.339-16.526,46.632a5.612,5.612,0,0,0,3.851,10.46Z" transform="translate(-175.017 -90.821)" fill="#ffb8b8"/>
      <path id="Path_69" data-name="Path 69" d="M404.161,683.625l-11.449-5.359a2.5,2.5,0,0,1-1.026-3.649l6.958-10.508a6.951,6.951,0,1,1,12.574,5.931l-3.6,12.036a2.5,2.5,0,0,1-3.459,1.549Z" transform="translate(-175.017 -90.821)" fill="#3f3d56"/>
      <path id="Path_70" data-name="Path 70" d="M426.044,634.315a2.911,2.911,0,0,0,1.674-.3c.941-.616.849-2.016.53-3.1a16.109,16.109,0,0,0-11.1-10.8c-1.817-.483-4.116-.464-5.155,1.1a13.124,13.124,0,0,0-16.98,2.086,17.781,17.781,0,0,0-3.986,8.493c-1.091,5.343-5.761,16.364-3.174,21.164,1.722,3.194,9.644.705,13,2.1a11.068,11.068,0,0,0,10.4-.84,8.488,8.488,0,0,0,3.264-9.569,29.608,29.608,0,0,0-2.024-3.685,5.929,5.929,0,0,1-.879-4.023C412.085,634.811,422.159,634.235,426.044,634.315Z" transform="translate(-175.017 -90.821)" fill="#2f2e41"/>
    </g>
    <path id="Path_71" data-name="Path 71" d="M361.117,308.059c-6.663-.023-12.248-5.982-12.97-13.84l-7.469-82.288c-.764-8.507,4.421-16.142,11.591-17.067l221.777-28.327c7.171-.907,13.608,5.244,14.389,13.749l7.469,82.287c.764,8.507-4.421,16.143-11.591,17.068l-.032-.347.032.347L362.535,307.968A11.181,11.181,0,0,1,361.117,308.059Z" transform="translate(-312.978 -83.218)" fill="#e6e6e6"/>
    <path id="Path_72" data-name="Path 72" d="M565.443,172.048a11.037,11.037,0,0,0-1.191.065L360.133,194.329a11.021,11.021,0,0,0-9.7,12.169l3.606,33.85a41.574,41.574,0,0,0,45.664,37.184l143.53-15.621a41.678,41.678,0,0,0,36.675-46.018l-3.619-33.977a10.978,10.978,0,0,0-10.848-9.868Z" transform="translate(-309.949 -70.877)" fill="#fff"/>
    <text id="Home_of_help_" data-name="Home of help!" transform="translate(51.313 163.035)" font-size="36" font-family="Sitka Banner" font-weight="700"><tspan x="0" y="0">Home of help!</tspan></text>
  </g>
</svg>
