<svg xmlns="http://www.w3.org/2000/svg" xmlns:xlink="http://www.w3.org/1999/xlink" width="897" height="581" viewBox="0 0 897 581">
  <defs>
    <clipPath id="clip-dp-inform">
      <rect width="897" height="581"/>
    </clipPath>
  </defs>
  <g id="dp-inform" clip-path="url(#clip-dp-inform)">
    <rect width="897" height="581" fill="#fff"/>
    <g id="inform" transform="translate(0 12.012)">
      <path id="Path_73" data-name="Path 73" d="M368.68,673.559l1-22.434a72.456,72.456,0,0,1,33.8-8.555c-16.231,13.27-14.2,38.851-25.208,56.7a43.582,43.582,0,0,1-31.959,20.14l-13.583,8.317a73.03,73.03,0,0,1,15.393-59.179A70.541,70.541,0,0,1,361.08,656.5C364.334,665.076,368.68,673.559,368.68,673.559Z" transform="translate(-151.341 -171.512)" fill="#f2f2f2"/>
      <path id="Path_74" data-name="Path 74" d="M948.262,208.065H315.939a1.015,1.015,0,1,1,0-2.031H948.262a1.015,1.015,0,1,1,0,2.031Z" transform="translate(-151.341 -171.512)" fill="#cacaca"/>
      <ellipse id="Ellipse_13" data-name="Ellipse 13" cx="10.925" cy="11.169" rx="10.925" ry="11.169" transform="translate(176.028 0)" fill="#3f3d56"/>
      <ellipse id="Ellipse_14" data-name="Ellipse 14" cx="10.925" cy="11.169" rx="10.925" ry="11.169" transform="translate(213.77 0)" fill="#3f3d56"/>
      <ellipse id="Ellipse_15" data-name="Ellipse 15" cx="10.925" cy="11.169" rx="10.925" ry="11.169" transform="translate(251.512 0)" fill="#3f3d56"/>
      <path id="Path_75" data-name="Path 75" d="M925.645,174.281h-26.81a2.03,2.03,0,1,0,0,4.06h26.81a2.03,2.03,0,1,0,0-4.06Z" transform="translate(-151.341 -171.512)" fill="#3f3d56"/>
      <path id="Path_76" data-name="Path 76" d="M925.645,181.9h-26.81a2.03,2.03,0,1,0,0,4.06h26.81a2.03,2.03,0,1,0,0-4.06Z" transform="translate(-151.341 -171.512)" fill="#3f3d56"/>
      <path id="Path_77" data-name="Path 77" d="M925.645,189.511h-26.81a2.03,2.03,0,1,0,0,4.06h26.81a2.03,2.03,0,1,0,0-4.06Z" transform="translate(-151.341 -171.512)" fill="#3f3d56"/>
      <path id="Path_78" data-name="Path 78" d="M808.054,287.654H374.044a8.07,8.07,0,0,0-8.07,8.06v204.87a8.079,8.079,0,0,0,8.07,8.07h434.01a8.077,8.077,0,0,0,8.06-8.07V295.714a8.068,8.068,0,0,0-8.06-8.06Z" transform="translate(-151.341 -171.512)" fill="#3f3d56"/>
      <path id="Path_79" data-name="Path 79" d="M693.414,386.354a8.068,8.068,0,0,0-8.06,8.06v57.87a8.077,8.077,0,0,0,8.06,8.07h122.7v-74Z" transform="translate(-151.341 -171.512)" fill="#6c63ff"/>
      <path id="Path_80" data-name="Path 80" d="M1022.43,460.35H693.418a8.076,8.076,0,0,1-8.066-8.066V394.416a8.075,8.075,0,0,1,8.066-8.066h329.01a8.075,8.075,0,0,1,8.066,8.066v57.868a8.076,8.076,0,0,1-8.064,8.066Z" transform="translate(-151.341 -171.512)" fill="#6c63ff" opacity="0.5"/>
      <circle id="Ellipse_16" data-name="Ellipse 16" cx="13.089" cy="13.089" r="13.089" transform="translate(573.482 242.448)" fill="#fff"/>
      <path id="Path_81" data-name="Path 81" d="M1012.23,423.246H775.72a3.9,3.9,0,1,1,0-7.8h236.514a3.9,3.9,0,0,1,0,7.8Z" transform="translate(-151.341 -171.512)" fill="#fff"/>
      <path id="Path_82" data-name="Path 82" d="M922.4,438.648H775.72a3.9,3.9,0,0,1,0-7.8H922.4a3.9,3.9,0,1,1,0,7.8Z" transform="translate(-151.341 -171.512)" fill="#fff"/>
      <path id="Path_83" data-name="Path 83" d="M151.406,545.537h11.328l5.389-43.693H151.4Z" fill="#ffb6b6"/>
      <path id="Path_84" data-name="Path 84" d="M299.858,713.351h3.188l12.448-5.062,6.672,5.062h0a14.217,14.217,0,0,1,14.217,14.216v.463H299.859Z" transform="translate(-151.341 -171.512)" fill="#2f2e41"/>
      <path id="Path_85" data-name="Path 85" d="M49.051,530.809l10.139,5.053,24.314-36.7L68.541,491.7Z" fill="#ffb6b6"/>
      <path id="Path_86" data-name="Path 86" d="M199.456,697.722l2.854,1.422,13.4,1.022,3.713,7.506h0a14.218,14.218,0,0,1,6.382,19.066l-.206.413L192.908,710.86Z" transform="translate(-151.341 -171.512)" fill="#2f2e41"/>
      <path id="Path_87" data-name="Path 87" d="M307.766,518.609l-72.026,1.879,1.253,35.073s-1.253,9.395,1.253,11.9,3.758,2.505,2.505,6.889-4.491,46.274-4.491,46.274-29.561,52.27-28.309,53.523,2.505,0,1.253,3.132-2.505,1.879-1.253,3.132a46.129,46.129,0,0,1,3.132,3.758H231.5s1.142-6.263,1.142-6.889,1.253-4.384,1.253-5.01,35.669-38.417,35.669-38.417l7.516-62.631L295.24,632.6s0,53.863,1.253,55.115,1.253.626.626,3.132-3.132,1.879-1.253,3.758,2.505-1.253,1.879,1.879l-.626,3.132,24.063.269s2.505-5.279,1.253-7.158-1.177-1.366.351-4.441,2.155-3.7,1.528-4.327-.626-3.958-.626-3.958-9.031-123.184-9.031-125.063a6.247,6.247,0,0,1,.52-2.818v-2.551l-2.4-9.037Z" transform="translate(-151.341 -171.512)" fill="#2f2e41"/>
      <path id="Path_88" data-name="Path 88" d="M1021.02,409.86a27.638,27.638,0,1,1,27.638-27.638A27.638,27.638,0,0,1,1021.02,409.86Z" transform="translate(-151.341 -171.512)" fill="#6c63ff"/>
      <path id="Path_89" data-name="Path 89" d="M1031.93,379.5h-8.179v-8.179a2.726,2.726,0,0,0-5.453,0V379.5h-8.179a2.726,2.726,0,1,0,0,5.453h8.179v8.179a2.726,2.726,0,0,0,5.453,0v-8.179h8.179a2.726,2.726,0,1,0,0-5.453Z" transform="translate(-151.341 -171.512)" fill="#fff"/>
      <path id="Path_90" data-name="Path 90" d="M599.224,460.724H494.214a8.079,8.079,0,0,0-8.07,8.07v39.86h121.14v-39.86a8.077,8.077,0,0,0-8.06-8.07Z" transform="translate(-151.341 -171.512)" fill="#6c63ff"/>
      <path id="Path_91" data-name="Path 91" d="M599.221,572.724H494.21a8.076,8.076,0,0,1-8.066-8.066V468.79a8.075,8.075,0,0,1,8.066-8.066H599.221a8.075,8.075,0,0,1,8.066,8.066v95.868a8.076,8.076,0,0,1-8.066,8.066Z" transform="translate(-151.341 -171.512)" fill="#6c63ff" opacity="0.5"/>
      <circle id="Ellipse_17" data-name="Ellipse 17" cx="13.089" cy="13.089" r="13.089" transform="translate(360.719 308.474)" fill="#fff"/>
      <path id="Path_92" data-name="Path 92" d="M577.472,526.06H515.958a3.9,3.9,0,1,1,0-7.8h61.514a3.9,3.9,0,0,1,0,7.8Z" transform="translate(-151.341 -171.512)" fill="#fff"/>
      <path id="Path_93" data-name="Path 93" d="M545.641,541.462H515.958a3.9,3.9,0,0,1,0-7.8h29.684a3.9,3.9,0,0,1,0,7.8Z" transform="translate(-151.341 -171.512)" fill="#fff"/>
      <path id="Path_94" data-name="Path 94" d="M492.021,600.86a27.638,27.638,0,1,1,27.638-27.638A27.638,27.638,0,0,1,492.021,600.86Z" transform="translate(-151.341 -171.512)" fill="#6c63ff"/>
      <path id="Path_95" data-name="Path 95" d="M502.926,570.5h-8.179v-8.179a2.726,2.726,0,1,0-5.453,0V570.5h-8.179a2.726,2.726,0,0,0,0,5.453h8.179v8.179a2.726,2.726,0,1,0,5.453,0v-8.179h8.179a2.726,2.726,0,1,0,0-5.453Z" transform="translate(-151.341 -171.512)" fill="#fff"/>
      <path id="Path_96" data-name="Path 96" d="M479.228,399.779H374.218a8.076,8.076,0,0,1-8.066-8.066V295.845a8.075,8.075,0,0,1,8.066-8.066h105.01a8.075,8.075,0,0,1,8.066,8.066v95.868a8.076,8.076,0,0,1-8.066,8.066Z" transform="translate(-151.341 -171.512)" fill="#6c63ff"/>
      <circle id="Ellipse_18" data-name="Ellipse 18" cx="13.089" cy="13.089" r="13.089" transform="translate(240.727 143.529)" fill="#6c63ff"/>
      <path id="Path_97" data-name="Path 97" d="M457.48,357.115H395.966a3.9,3.9,0,1,1,0-7.8H457.48a3.9,3.9,0,0,1,0,7.8Z" transform="translate(-151.341 -171.512)" fill="#6c63ff"/>
      <path id="Path_98" data-name="Path 98" d="M425.649,372.517H395.966a3.9,3.9,0,1,1,0-7.8H425.65a3.9,3.9,0,0,1,0,7.8Z" transform="translate(-151.341 -171.512)" fill="#6c63ff"/>
      <path id="Path_99" data-name="Path 99" d="M479.228,399.779H374.218a8.076,8.076,0,0,1-8.066-8.066V295.845a8.075,8.075,0,0,1,8.066-8.066h105.01a8.075,8.075,0,0,1,8.066,8.066v95.868a8.076,8.076,0,0,1-8.066,8.066Z" transform="translate(-151.341 -171.512)" fill="#6c63ff" opacity="0.5"/>
      <circle id="Ellipse_19" data-name="Ellipse 19" cx="13.089" cy="13.089" r="13.089" transform="translate(240.727 143.529)" fill="#fff"/>
      <path id="Path_100" data-name="Path 100" d="M457.48,357.115H395.966a3.9,3.9,0,1,1,0-7.8H457.48a3.9,3.9,0,0,1,0,7.8Z" transform="translate(-151.341 -171.512)" fill="#fff"/>
      <path id="Path_101" data-name="Path 101" d="M425.649,372.517H395.966a3.9,3.9,0,1,1,0-7.8H425.65a3.9,3.9,0,0,1,0,7.8Z" transform="translate(-151.341 -171.512)" fill="#fff"/>
      <circle id="Ellipse_20" data-name="Ellipse 20" cx="21" cy="21" r="21" transform="translate(204.043 94.951)" fill="#ff6584"/>
      <path id="Path_102" data-name="Path 102" d="M434.011,727.3a1.186,1.186,0,0,1-1.19,1.19H152.531a1.19,1.19,0,1,1,0-2.38h280.29a1.187,1.187,0,0,1,1.19,1.19Z" transform="translate(-151.341 -171.512)" fill="#ccc"/>
      <path id="Path_103" data-name="Path 103" d="M371.9,343.088a9.771,9.771,0,0,1-5.759,12.435,9.6,9.6,0,0,1-1.635.451l-5.546,33.959-13.01-12.013,7.261-30.407a9.806,9.806,0,0,1,8.59-10.759,9.547,9.547,0,0,1,10.1,6.333Z" transform="translate(-151.341 -171.512)" fill="#ffb6b6"/>
      <path id="Path_104" data-name="Path 104" d="M275.881,420.037s10.1-13.341,46.739-12.976l20.8-7.556,4.753-43.57,16.636,3.961-2.377,53.868-35.648,20.6-46.739,9.506Z" transform="translate(-151.341 -171.512)" fill="#3f3d56"/>
      <circle id="ab6171fa-7d69-4734-b81c-8dff60f9761b" cx="21.747" cy="21.747" r="21.747" transform="translate(97.427 177.236)" fill="#ffb6b6"/>
      <path id="Path_105" data-name="Path 105" d="M233.708,535.39a.419.419,0,0,1-.114-.015c-.4-.112-.719-.2.73-12.729l1.564-9.9L234.361,504l-2.568-2.568,4.127-4.127,3.463-9.838-5.993-8.88-6.876-36.316a28.972,28.972,0,0,1,15.911-31.478l7.958-2.325,2.9-5.31a9.52,9.52,0,0,1,8.287-4.962l14.573-.109a9.52,9.52,0,0,1,7.617,3.715l5.084,6.609,21.083,7.162-3.5,75.321h0a5.233,5.233,0,0,1,.359,7.7c-.219.221-.393.4-.5.52-.355.5.311,4.275,1.135,7.475l1.056,4.9h0a3.013,3.013,0,0,0-.548,4.4l1.346,1.591h0a7.6,7.6,0,0,1-6.507,8.535C283.5,528.628,233.809,535.39,233.708,535.39Z" transform="translate(-151.341 -171.512)" fill="#3f3d56"/>
      <path id="Path_106" data-name="Path 106" d="M264.953,391.178q-.139-.307-.278-.616c.036,0,.071.006.106.007Z" transform="translate(-151.341 -171.512)" fill="#2f2e41"/>
      <path id="Path_107" data-name="Path 107" d="M248.164,349.737a6.053,6.053,0,0,1,3.792-1.639c1.406.045,2.832,1.315,2.541,2.692A22.348,22.348,0,0,1,281.392,340.7c3.5,1.233,6.923,3.7,7.726,7.318a6.591,6.591,0,0,0,.83,2.7,3.084,3.084,0,0,0,3.282.832l.034-.01A1.028,1.028,0,0,1,294.506,353l-.989,1.844a7.925,7.925,0,0,0,3.776-.08,1.027,1.027,0,0,1,1.09,1.6,17.9,17.9,0,0,1-14.269,7.334c-3.951-.024-7.944-1.386-11.789-.477a10.241,10.241,0,0,0-6.888,14.376c-1.181-1.292-3.465-.986-4.674.281a6.41,6.41,0,0,0-1.4,4.9,22.756,22.756,0,0,0,2.336,7.639,22.836,22.836,0,0,1-13.537-40.678Z" transform="translate(-151.341 -171.512)" fill="#2f2e41"/>
      <path id="Path_108" data-name="Path 108" d="M242.18,566.581a9.771,9.771,0,0,1-2.3-13.509,9.6,9.6,0,0,1,1.092-1.3l-14.675-31.123,17.527,2.525,11.249,29.168a9.806,9.806,0,0,1-.98,13.733,9.547,9.547,0,0,1-11.91.505Z" transform="translate(-151.341 -171.512)" fill="#ffb6b6"/>
      <path id="Path_109" data-name="Path 109" d="M237.736,549.587,214.384,497.1l-.234-41.452,7.361-22.391a23.925,23.925,0,0,1,30.827-15.04l.162.058.068.158c.272.635,6.446,15.906-11.867,47.322l-3.686,21.5,12.932,49.274Z" transform="translate(-151.341 -171.512)" fill="#3f3d56"/>
    </g>
    <text id="Be_informative_" data-name="Be informative!" transform="translate(350.313 95)" font-size="36" font-family="Sitka Banner" font-weight="700"><tspan x="0" y="0">Be informative!</tspan></text>
  </g>
</svg>
