<svg xmlns="http://www.w3.org/2000/svg" xmlns:xlink="http://www.w3.org/1999/xlink" width="800" height="800" viewBox="0 0 800 800">
  <defs>
    <clipPath id="clip-dp">
      <rect width="800" height="800"/>
    </clipPath>
  </defs>
  <g id="dp" clip-path="url(#clip-dp)">
    <g id="dp-2" data-name="dp" transform="translate(10.941 -7)">
      <rect id="Rectangle_1" data-name="Rectangle 1" width="800" height="800" transform="translate(-10.941 7)" fill="none"/>
      <g id="_876248" data-name="876248" transform="translate(82.706 123.417)">
        <path id="Path_1" data-name="Path 1" d="M-52.89,187.97h0q-34.16,0-50.36-28.56t-7.36-77.46h0q8.24-43.58,30.33-75.39A152.145,152.145,0,0,1-24.62-42.62Q8.96-60,50.77-60H87.29l-5.3,32.4H53.13Q3.07-27.6-31.39,1.85t-43.88,80.1h0q-5.89,34.17,2.65,53.9T-47,155.58h0q24.15,0,52.72-42.7T61.97-4.04h0L53.72,74.3Q33.1,131.43,3.95,159.7T-52.89,187.97ZM49.6,185.03h0a18.642,18.642,0,0,1-13.26-5.3q-5.59-5.3-4.41-14.73h0l74.21-421.72q1.77-7.66,7.36-10.6a19.946,19.946,0,0,1,11.49-2.36h0a19.351,19.351,0,0,1,12.66,5.6q5.01,5,3.83,13.25h0L66.09,170.3q-1.18,7.66-5.89,11.19A17.2,17.2,0,0,1,49.6,185.03Z" transform="translate(113.731 269.778)" fill="#6c63ff"/>
      </g>
      <g id="_306301" data-name="306301" transform="translate(338.142 352.291)">
        <path id="Path_2" data-name="Path 2" d="M28.66,181.26h0q-10.97,0-12.99-6.93a33.709,33.709,0,0,1-1.44-12.69h0L39.04,21.43a68.041,68.041,0,0,0,.58-23.37,36.184,36.184,0,0,0-9.23-19.91q-7.5-8.07-23.08-8.07h0q-21.35,0-45.58,21.06T-94.82,61.82h0l6.92-49.05q23.66-37.5,46.45-55.96T9.62-61.66h0q24.81,0,40.1,12.12A63.239,63.239,0,0,1,71.07-17.81q6.06,19.62,2.02,41.55h0L56.35,122.4l22.51-19.04q15-12.69,25.96-12.69h0q6.35,0,9.81,3.46t3.46,9.81h0q0,5.77-4.33,11.83a81.667,81.667,0,0,1-12.98,13.56h0L45.39,174.91a24.213,24.213,0,0,1-8.37,5.19A28.219,28.219,0,0,1,28.66,181.26ZM-161.75,386.67h0a17.994,17.994,0,0,1-11.83-4.04q-4.91-4.04-3.17-12.12h0l73.27-413.13a22.525,22.525,0,0,1,4.04-8.94,16.877,16.877,0,0,1,7.22-5.48,22.431,22.431,0,0,1,8.36-1.73h0a17.994,17.994,0,0,1,11.83,4.04q4.91,4.03,3.17,12.11h0l-73.27,413.71a16.216,16.216,0,0,1-7.22,11.54A22.111,22.111,0,0,1-161.75,386.67Z" transform="translate(177.205 61.66)" fill="#6c63ff"/>
      </g>
    </g>
  </g>
</svg>
