<svg xmlns="http://www.w3.org/2000/svg" xmlns:xlink="http://www.w3.org/1999/xlink" width="800" height="199" viewBox="0 0 800 199">
  <defs>
    <clipPath id="clip-dpur">
      <rect width="800" height="199"/>
    </clipPath>
  </defs>
  <g id="dpur" clip-path="url(#clip-dpur)">
    <g id="donatepur" transform="translate(-59 -573)">
      <rect id="Rectangle_2" data-name="Rectangle 2" width="806" height="230" transform="translate(59 558)" fill="none"/>
      <g id="_808058" data-name="808058" transform="translate(59.495 587.844)">
        <path id="Path_3" data-name="Path 3" d="M-388.06,67.85h-16.42q-3.45,0-4.96-2.05a5.647,5.647,0,0,1-.87-4.86h0l26.79-152.93a12.9,12.9,0,0,1,2.05-4.96q1.4-1.95,5.51-1.95h9.28a102.516,102.516,0,0,1,32.84,5.08,71.083,71.083,0,0,1,25.92,15.01,58.158,58.158,0,0,1,15.76,24.52q4.97,14.58,2.38,33.8h0q-2.81,21.38-11.56,37.8a95.113,95.113,0,0,1-21.92,27.76,90.549,90.549,0,0,1-29.7,17.06,106.524,106.524,0,0,1-35.1,5.72Zm16.63-155.08-24.84,143.2h8.21a91.054,91.054,0,0,0,29.92-4.96,82.389,82.389,0,0,0,26.02-14.69,79.934,79.934,0,0,0,19.44-24.41q7.78-14.69,10.16-34.13h0q2.37-20.73-5.4-35.21a51.9,51.9,0,0,0-23.01-22.14q-15.23-7.66-34.88-7.66h-5.62Z" transform="translate(410.505 98.9)"/>
        <path id="Path_4" data-name="Path 4" d="M-254.14,68.93h0q-13.61,0-21.6-9.07t-7.99-24.41h0q0-16.84,5.4-30.02t14.58-20.84a31.617,31.617,0,0,1,20.84-7.67h0q14.47,0,22.79,8.64t8.32,23.76h0a85.209,85.209,0,0,1-3.14,23.65,61.052,61.052,0,0,1-8.96,19.01,43.486,43.486,0,0,1-13.5,12.53A32.943,32.943,0,0,1-254.14,68.93Zm0-11.88h0a21.58,21.58,0,0,0,15.12-6.26q6.7-6.26,10.58-17.06a71.045,71.045,0,0,0,3.89-24.2h0q0-9.28-4.97-15.01t-13.39-5.72h0a20.5,20.5,0,0,0-14.15,5.83Q-263.43.46-267.1,10.51a64.711,64.711,0,0,0-3.67,22.35h0q0,10.8,4.43,17.5A13.872,13.872,0,0,0-254.14,57.05Z" transform="translate(406.324 98.9)"/>
        <path id="Path_5" data-name="Path 5" d="M-194.74,67.85h0q-4.1,0-4.97-2.16a7.417,7.417,0,0,1-.65-3.67h0l13.61-77.11a10.564,10.564,0,0,1,1.41-3.89,5.984,5.984,0,0,1,2.7-2.27,10.843,10.843,0,0,1,4.32-.75h0q3.24,0,4.1,1.83a9.293,9.293,0,0,1,.43,5.08h0L-187.4,62.02a25.883,25.883,0,0,1-1.29,3.35Q-189.77,67.85-194.74,67.85Zm57.67,0h0q-4.1,0-4.97-2.37a8.381,8.381,0,0,1-.64-3.89h0l9.5-53.57a25.686,25.686,0,0,0,.22-8.75,13.571,13.571,0,0,0-3.46-7.45q-2.81-3.02-8.64-3.02h0q-7.99,0-17.06,7.88t-21.17,26.46h0l2.59-18.36q8.86-14.04,17.39-20.95a29.592,29.592,0,0,1,19.11-6.91h0q9.29,0,15.02,4.53a23.708,23.708,0,0,1,7.99,11.88,32.17,32.17,0,0,1,.75,15.56h0l-9.5,53.56a25.994,25.994,0,0,1-1.19,3.14Q-132.1,67.85-137.07,67.85Z" transform="translate(403.496 98.9)"/>
        <path id="Path_6" data-name="Path 6" d="M-83.5,68.93h0q-12.53,0-18.47-10.47t-2.7-28.41h0A70.981,70.981,0,0,1-93.54,2.41,55.731,55.731,0,0,1-73.13-15.63,59.265,59.265,0,0,1-45.48-22h13.39l-1.95,11.88H-44.62q-18.36,0-31,10.8T-91.71,30.05h0q-2.16,12.53.97,19.77t9.4,7.23h0q8.86,0,19.33-15.66T-41.38-1.48h0L-44.4,27.25Q-51.96,48.2-62.66,58.57T-83.5,68.93ZM-47,67.85h0q-4.1,0-4.96-2.16a7.269,7.269,0,0,1-.65-3.67h0L-37.71-22h7.78q3.02,0,3.67,2.59a15.125,15.125,0,0,1,0,6.26h0L-39.44,62.02a21.767,21.767,0,0,1-1.4,3.35Q-42.03,67.85-47,67.85Z" transform="translate(400.35 98.9)"/>
        <path id="Path_7" data-name="Path 7" d="M.52,67.85h0a6.852,6.852,0,0,1-4.53-1.62,4.724,4.724,0,0,1-1.51-4.64h0L18.45-72.55a7.514,7.514,0,0,1,2.27-3.99,5.579,5.579,0,0,1,3.78-1.41h0a7.441,7.441,0,0,1,4.97,1.84q2.16,1.84,1.51,5.29h0L7.87,62.02a5.856,5.856,0,0,1-2.7,4.43A8.756,8.756,0,0,1,.52,67.85ZM42.64-10.34H-9.84q-3.68,0-5.19-1.83a6.464,6.464,0,0,1-1.51-4.22h0a5.632,5.632,0,0,1,1.51-3.99Q-13.52-22-9.84-22H42.64q3.68,0,5.19,1.62a5.632,5.632,0,0,1,1.51,3.99h0a6.464,6.464,0,0,1-1.51,4.22q-1.51,1.83-5.19,1.83Z" transform="translate(397.614 98.9)"/>
        <path id="Path_8" data-name="Path 8" d="M75.26,68.93h0q-10.37,0-16.42-7.66T52.8,40.42h0a74.117,74.117,0,0,1,3.88-23.97A73.217,73.217,0,0,1,67.16-3.86,53.654,53.654,0,0,1,82.28-17.9a33.838,33.838,0,0,1,17.82-5.18h0q8.64,0,13.82,3.99t5.19,12.21h0a19.344,19.344,0,0,1-3.13,10.69,39.04,39.04,0,0,1-7.78,8.75,73.885,73.885,0,0,1-9.72,6.91q-5.08,3.02-8.96,5.18h0q-4.76,2.6-11.02,5.94T67.16,36.53q-5.08,2.6-7.02,3.68h0l3.02-14.69q2.81-1.51,6.05-3.24t6.59-3.67q3.35-1.95,6.59-3.68h0A142.058,142.058,0,0,0,98.91,3.7q7.02-5.61,7.02-9.72h0a4.719,4.719,0,0,0-1.83-3.56,8.129,8.129,0,0,0-5.51-1.62h0q-8.64,0-16.09,7.67T70.51,16.45A75.548,75.548,0,0,0,65.97,42.8h0a18.559,18.559,0,0,0,2.59,10.26,7.925,7.925,0,0,0,6.92,3.99h0q4.96,0,10.47-3.67a52.771,52.771,0,0,0,10.69-9.72h0q3.68-4.75,6.59-5.61a5.266,5.266,0,0,1,5.08.86h0a5.4,5.4,0,0,1,2.27,4.1q.32,2.81-4,8.43h0A46.543,46.543,0,0,1,92,64.18,34.267,34.267,0,0,1,75.26,68.93Z" transform="translate(395.337 98.9)"/>
        <path id="Path_9" data-name="Path 9" d="M140.49,67.85h0q-3.45,0-4.97-2.05a5.666,5.666,0,0,1-.86-4.86h0L161.44-91.99a12.108,12.108,0,0,1,2.16-4.96q1.52-1.95,5.62-1.95h0q27.65,0,47.41,4.65t29.7,14.47q9.94,9.83,7.78,25.59h0q-2.16,14.91-10.48,23.76T221.92-17.25a135.878,135.878,0,0,1-30.67,5.72q-17.28,1.41-37.37,1.41h0L155.61-22q16.63,0,31.43-1.19a132.428,132.428,0,0,0,26.57-4.64q11.77-3.46,19.01-10.05t8.74-17.6h0a19.158,19.158,0,0,0-2.37-13.07q-3.46-5.72-11.67-9.83t-21.49-6.37a209.139,209.139,0,0,0-32.29-2.48h0L147.4,61.37a11.965,11.965,0,0,1-1.4,4.22Q144.81,67.85,140.49,67.85Z" transform="translate(391.315 98.9)"/>
        <path id="Path_10" data-name="Path 10" d="M273.33,68.93h0q-13.39,0-19.87-8.53t-3.89-23.43h0l9.51-53.57a16.713,16.713,0,0,1,1.18-3.24Q261.24-22,266.2-22h0q4.32,0,5.08,2.27a9.06,9.06,0,0,1,.54,3.99h0l-9.5,53.57q-1.52,8.64,1.72,13.93t10.16,5.29h0q7.56,0,15.87-8.31t19.77-26.03h0l-2.6,18.36q-9.28,14.9-17.17,21.38T273.33,68.93Zm31.54-1.08h0q-3.24,0-4-1.83a11.788,11.788,0,0,1-.54-5.08h0l13.61-76.89a18.542,18.542,0,0,1,1.4-3.57Q316.53-22,321.28-22h0q4.32,0,5.19,2.16a7.979,7.979,0,0,1,.65,3.89h0L313.51,60.94A10.4,10.4,0,0,1,312,64.72a6.433,6.433,0,0,1-2.81,2.38A10.888,10.888,0,0,1,304.87,67.85Z" transform="translate(385.487 98.9)"/>
        <path id="Path_11" data-name="Path 11" d="M340.94,67.85h0a5.88,5.88,0,0,1-4.32-1.72q-1.73-1.73-1.08-5.19h0l13.39-76.03a7.128,7.128,0,0,1,2.81-5.18A7.813,7.813,0,0,1,356.28-22h0a5.658,5.658,0,0,1,4.21,1.94q1.83,1.95,1.19,5.83h0L348.5,60.94a7.162,7.162,0,0,1-2.81,5.19A8.052,8.052,0,0,1,340.94,67.85Zm12.53-45.14h0l3.89-18.79a69.993,69.993,0,0,1,9.5-14.91,40.9,40.9,0,0,1,10.48-9.07,20.342,20.342,0,0,1,10.04-3.02h0q4.32,0,6.05,1.83a25.528,25.528,0,0,1,2.91,3.68,3.975,3.975,0,0,0,3.57,1.83h0a9.225,9.225,0,0,0,4.32-1.29q2.37-1.3,3.67-2.16h0a12.212,12.212,0,0,1,5.4-2.06,7.771,7.771,0,0,1,4.75.76A4.055,4.055,0,0,1,420-16.6h0a7.435,7.435,0,0,1-2.16,5.29,22.494,22.494,0,0,1-5.19,4h0a23.45,23.45,0,0,1-7.13,3.02,27.105,27.105,0,0,1-5.83.86h0a10.032,10.032,0,0,1-6.37-1.94A47.523,47.523,0,0,1,389-9.15a5.381,5.381,0,0,0-3.78-1.84h0q-2.16,0-6.16,2.6T368.8,1.43A199.38,199.38,0,0,0,353.47,22.71Z" transform="translate(385.487 98.9)"/>
      </g>
    </g>
  </g>
</svg>
