<svg xmlns="http://www.w3.org/2000/svg" viewBox="0 0 500 500"><g id="freepik--background-simple--inject-45"><path d="M383.51,31.58l-1.69.47a40.52,40.52,0,0,0-28.77,29.8,41.38,41.38,0,0,0-.88,5.66,42,42,0,0,0,16,36.12c6.38,4.87,14.44,8.09,18.61,15,5.42,9,2.26,20.56-1,30.6s-6.44,21.63-1,30.59c3.42,5.6,9.67,8.91,16,10.42,16.84,4,35.14-3.48,46.95-16.36S465.4,143.47,467,126c2.28-24.41-3.7-50-19-68.92S407.4,27.16,383.51,31.58Z" style="fill:#f5f5f5"></path><circle cx="82.79" cy="85.85" r="45.06" style="fill:#f5f5f5"></circle></g><g id="freepik--Floor--inject-45"><path d="M477.72,467.26c0,.15-102,.26-227.71.26s-227.73-.11-227.73-.26S124.22,467,250,467,477.72,467.12,477.72,467.26Z" style="fill:#263238"></path></g><g id="freepik--Plant--inject-45"><path d="M122,425.11a7.91,7.91,0,0,1,4.11,4.65,14,14,0,0,1,.55,6.31c-.47,4.09-2.79,8.22-5.29,11.48-3.45-3-4.24-8.25-4.47-10.93-.38-4.25,1.53-12.14,5.1-11.51" style="fill:#455a64"></path><path d="M125.34,454.3a6.74,6.74,0,0,1,2.19-6.42,8.93,8.93,0,0,1,6.62-2.07,3.78,3.78,0,0,1,2.91,1.3,2.9,2.9,0,0,1,0,2.93,5.86,5.86,0,0,1-2.17,2.14c-3,1.87-6.21,3.14-9.59,2.12" style="fill:#455a64"></path><path d="M120.92,466.85a4.82,4.82,0,0,1,.13-.84c.11-.6.25-1.36.41-2.28a23.65,23.65,0,0,1,2.35-7.25,14.62,14.62,0,0,1,5.2-5.54,9.86,9.86,0,0,1,2.13-.93,4.69,4.69,0,0,1,.61-.16.61.61,0,0,1,.22,0,16.38,16.38,0,0,0-2.85,1.3,15.1,15.1,0,0,0-5.05,5.5,25.42,25.42,0,0,0-2.4,7.16c-.21,1-.38,1.72-.51,2.25A4.37,4.37,0,0,1,120.92,466.85Z" style="fill:#263238"></path><path d="M121.05,431.25a1.61,1.61,0,0,1,0,.37q0,.4.06,1.05c0,.92.1,2.24.15,3.88.11,3.28.19,7.81.17,12.81s-.14,9.54-.28,12.81c-.06,1.64-.13,3-.19,3.88,0,.44-.05.78-.07,1.06a2,2,0,0,1,0,.36,1.46,1.46,0,0,1,0-.37c0-.27,0-.62,0-1.05,0-1,0-2.27.09-3.88.08-3.28.17-7.81.19-12.81s0-9.52-.08-12.8c0-1.61,0-2.93-.06-3.88v-1.06A2.12,2.12,0,0,1,121.05,431.25Z" style="fill:#263238"></path><path d="M119.38,456.79a15.81,15.81,0,0,0-8.64-11.58c-1.15-.55-2.65-.91-3.6-.06s-.73,2.4-.27,3.59a13.53,13.53,0,0,0,12.43,8.39" style="fill:#455a64"></path><path d="M111.3,449.09a3.6,3.6,0,0,1,.73.31,7.72,7.72,0,0,1,.83.44c.31.2.68.39,1,.66a12.67,12.67,0,0,1,1.2.91,14.92,14.92,0,0,1,1.28,1.16,17.68,17.68,0,0,1,2.44,3.13,18,18,0,0,1,1.6,3.62,15.55,15.55,0,0,1,.4,1.68,12.82,12.82,0,0,1,.21,1.5c.06.45,0,.87.06,1.24a8.64,8.64,0,0,1,0,.93,4.29,4.29,0,0,1-.09.79c-.07,0,0-1.13-.15-2.94a12.78,12.78,0,0,0-.24-1.47c-.09-.53-.26-1.07-.42-1.65a18.06,18.06,0,0,0-1.6-3.55,19.33,19.33,0,0,0-2.37-3.09c-.43-.42-.83-.82-1.25-1.16a14.07,14.07,0,0,0-1.16-.92C112.31,449.62,111.27,449.14,111.3,449.09Z" style="fill:#263238"></path></g><g id="freepik--Device--inject-45"><path d="M487.1,350.16c0,.15-104.8.26-234,.26S19,350.31,19,350.16s104.77-.26,234.06-.26S487.1,350,487.1,350.16Z" style="fill:#e0e0e0"></path><path d="M320,467.26l-138.09-.08a30,30,0,0,1-30.07-30L151.86,92A30,30,0,0,1,182,62l138.1.09a30,30,0,0,1,30.06,30l-.07,345.21A30,30,0,0,1,320,467.26Z" style="fill:#263238"></path><path d="M320.92,72.35l-26.87-.13A6.68,6.68,0,0,0,287.5,79l0,4.88a6.68,6.68,0,0,1-6.55,6.79l-52.37-.25a6.68,6.68,0,0,1-6.5-6.85l0-4.87a6.68,6.68,0,0,0-6.49-6.85l-9.45,0-23.52-.11a21.13,21.13,0,0,0-21.23,21.05L160,431.85a21.13,21.13,0,0,0,21,21.23l138.3.64a21.14,21.14,0,0,0,21.24-21.05L342,93.58A21.13,21.13,0,0,0,320.92,72.35Z" style="fill:#f5f5f5"></path><path d="M262.23,389.64c-.16,4.1-.31,7.94-.44,11.13h19.87l-2.43-12.2Z" style="fill:#f5f5f5"></path><path d="M181.49,394.75l.17,6h78.15c.13-3.38.28-7.13.43-11Z" style="fill:#f5f5f5"></path><polygon points="280.22 388.5 282.67 400.77 319.29 400.77 318.85 386.06 280.22 388.5" style="fill:#f5f5f5"></polygon><polygon points="264.21 217.05 271.13 176.9 253 175.55 253 217.05 264.21 217.05" style="fill:#ebebeb"></polygon><polygon points="179.86 372.46 160.17 380.17 160.11 394.12 180.44 392.83 179.86 372.46" style="fill:#f5f5f5"></polygon><polygon points="179.77 369.32 178.69 331.93 178.68 331.93 178.68 318.74 160.42 320.67 160.19 376.97 179.76 369.3 179.77 369.32" style="fill:#ebebeb"></polygon><polygon points="178.68 289.3 160.56 286.91 160.44 317.68 178.68 315.75 178.68 289.3" style="fill:#f5f5f5"></polygon><polygon points="313.65 319.3 312.89 330.01 291.5 332.32 293.16 340.8 317.44 338.97 317.07 326.81 319.01 318.75 313.65 319.3" style="fill:#f5f5f5"></polygon><polygon points="275.1 342.16 292.16 340.87 288.45 321.84 273.56 323.34 275.1 342.16" style="fill:#f5f5f5"></polygon><polygon points="275.27 344.13 276.57 360.01 278.88 381.78 279.83 386.54 318.79 384.08 317.5 340.95 275.27 344.13" style="fill:#ebebeb"></polygon><path d="M208.21,269.2l1.5,2.57-30,17.53v41.57l31.71-2.25,61.11-6.17-2.24-27.24-58.38-7.63.38-2.95L270,292.17l-3.79-46.11-57.16,5.49-.19-2,57.19-5.5-2-24.06h-55l-48.29,8.79-.23,55.1,18.28,2.41Zm-25.47,57.7s.23-34.28,0-35.56l24.52-13,3.18,46.85Z" style="fill:#f5f5f5"></path><polygon points="311.65 319.5 289.44 321.74 291.12 330.37 311.03 328.22 311.65 319.5" style="fill:#f5f5f5"></polygon><path d="M262.51,382.3c-.07,1.8-.14,3.59-.21,5.35l16.54-1-.85-4.26Z" style="fill:#f5f5f5"></path><polygon points="226.9 217.05 229.81 203.84 252 203.84 252 175.48 182.6 170.34 182.6 196.97 160.93 201.87 160.82 225.78 208.83 217.05 226.9 217.05" style="fill:#ebebeb"></polygon><path d="M273.21,138.12l-.6-2.43,26.51-10.49L281.88,90.6a6,6,0,0,1-.95.08l-29.29-.14.8,48.43Z" style="fill:#f5f5f5"></path><path d="M313.37,119.56l0-47.25-19.29-.09A6.68,6.68,0,0,0,287.5,79l0,4.88a6.88,6.88,0,0,1-2.84,5.59l17.25,34.63Z" style="fill:#ebebeb"></path><path d="M213.74,121.59l-2.23-49.75-5.37,0-21-.1-8.93,44.49ZM209,76.88l.72,40.52-27.86-4.08,6.1-36.44Z" style="fill:#f5f5f5"></path><path d="M214.75,121.74v.42c.05,3.88.13,10.87.18,18.34L251.45,139l-.8-48.47-22.09-.11a6.68,6.68,0,0,1-6.5-6.85l0-4.87a6.68,6.68,0,0,0-6.49-6.85H212.5l2.24,49.88Z" style="fill:#f5f5f5"></path><path d="M173.3,115.79l8.84-44.06a21.12,21.12,0,0,0-20.75,21l-.1,22,.1-.64Z" style="fill:#f5f5f5"></path><polygon points="179.63 170.12 161.06 168.74 160.94 198.82 179.63 194.59 179.63 170.12" style="fill:#f5f5f5"></polygon><polygon points="173.1 116.76 161.29 115.06 161.09 163.77 163.63 163.96 173.1 116.76" style="fill:#f5f5f5"></polygon><polygon points="210.6 368.75 210.91 329.65 179.68 331.86 180.78 370.17 210.6 368.75" style="fill:#f5f5f5"></polygon><path d="M216.34,359.73l44.24,21.19c.52-13.85,1-26.8.95-27.62l1-.05.47-.94c.63.32.63.32.3,9.76-.19,5.26-.45,12.27-.72,19.28h15.3l-2.26-21.25-3-36.66-57.79,5.83Z" style="fill:#f5f5f5"></path><polygon points="324.76 294.83 324.26 289.67 271.25 295.19 273.48 322.36 319.25 317.74 324.76 294.83" style="fill:#f5f5f5"></polygon><polygon points="252 206.81 232.2 206.81 229.94 217.05 252 217.05 252 206.81" style="fill:#f5f5f5"></polygon><path d="M316.58,210.27,267,206.84l-2,11.71L267,244l52.31-5Zm-47.78,8.26,2.66-7.39,43.08,2.72L317,235l-46.78,5.55Z" style="fill:#f5f5f5"></path><polygon points="321.72 263.42 319.55 240.93 267.2 245.96 269.17 269.9 321.72 263.42" style="fill:#f5f5f5"></polygon><polygon points="180.5 394.81 160.19 396.1 160.11 394.77 160.08 400.77 180.67 400.77 180.5 394.81" style="fill:#f5f5f5"></polygon><path d="M341.6,108.39l.3.76L342,93.58a21.13,21.13,0,0,0-21-21.23l-6.59,0,0,46.85Z" style="fill:#ebebeb"></path><path d="M260.53,382l-45.14-21.63-1.6-31-1.89.19-.32,40.14-30.77,1.46,0,.89v0h0l.59,20.7,78.88-5C260.39,385.86,260.46,383.92,260.53,382Zm-77.79-8.29,43.07-3,28,13-71.1,3.85Z" style="fill:#f5f5f5"></path><path d="M328.77,160.43l1.84-11c-16.19-5.78-17.31-22.66-17.26-27.78l-10.57,4.19,15.91,31.94Z" style="fill:#f5f5f5"></path><polygon points="271 292.22 293.02 289.93 288.68 270.49 269.41 272.87 271 292.22" style="fill:#f5f5f5"></polygon><polygon points="318.49 179.5 277.38 179.49 273.96 179.24 269.32 206.16 318.12 209.53 316.99 197.83 321.79 180.54 318.49 179.5" style="fill:#f5f5f5"></polygon><path d="M315.65,172.27l.51-12.85L300,127,275,136.9l8.61,35.37ZM299,130.93l14.81,28.17-2.14,8.78-25.34-1L280,140.28Z" style="fill:#f5f5f5"></path><polygon points="322.05 327.32 322.8 352.56 340.62 351.56 340.67 352.55 322.83 353.56 323.74 383.76 340.58 382.7 340.71 384.68 323.8 385.75 324.25 400.77 340.66 400.77 341.02 316.53 324.23 318.23 322.05 327.32" style="fill:#f5f5f5"></polygon><path d="M213.77,122.6l-37.72-5.42-9.43,47,47.32,3.51C214.13,160.45,214,138.26,213.77,122.6Z" style="fill:#ebebeb"></path><polygon points="275.81 172.27 281.52 172.27 273.45 139.1 252.45 139.96 252.96 170.58 275.81 172.27" style="fill:#f5f5f5"></polygon><path d="M160,424.9l0,7c0,.22,0,.42,0,.64Z" style="fill:#f5f5f5"></path><path d="M214.9,167.76,252,170.51l-.5-30.51L215,141.5C215,151.81,215.06,162.81,214.9,167.76Z" style="fill:#f5f5f5"></path><polygon points="322.01 266.38 289.67 270.37 294.01 289.83 323.98 286.71 322.01 266.38" style="fill:#f5f5f5"></polygon><path d="M330.78,148.48l2.07-12.29,8.93.69.11-26.47-27.54,10.9C313.79,139.94,325.49,146.49,330.78,148.48Z" style="fill:#ebebeb"></path><polygon points="320.18 196 321.3 207.61 341.47 209.01 341.57 185.1 324.69 179.76 320.18 196" style="fill:#f5f5f5"></polygon><path d="M329.78,295.18l-5.3,22L341,315.54l.1-23.1c-5.08-1.34-9.51-2.43-11.89-2.89Z" style="fill:#f5f5f5"></path><polygon points="318.61 172.65 341.6 179.91 341.65 166.83 319.08 161 318.61 172.65" style="fill:#f5f5f5"></polygon><path d="M328.94,286.53c1.85.27,5.36,1,12.19,2.82l.22-50.52-16.87,1.63Z" style="fill:#f5f5f5"></path><polygon points="324.29 238.48 341.36 236.84 341.46 211.99 321.59 210.62 324.29 238.48" style="fill:#f5f5f5"></polygon><path d="M332.68,149.11q4.86,1.47,9,2.3l0-12.54-7.27-.56Z" style="fill:#f5f5f5"></path><path d="M256.56,154.16l11,2.84.05-11.34q-4.26-.84-9.2-2.33Z" style="fill:#f5f5f5"></path><path d="M340.71,384.68l-.13-2-16.84,1.06-.91-30.21,17.84-1-.05-1-17.82,1-.75-25.24,2.18-9.09,16.79-1.7v-1l-16.54,1.67,5.3-22-.55-5.63c2.38.46,6.81,1.55,11.89,2.89v-3.09c-6.83-1.8-10.34-2.55-12.19-2.82l-4.46-46.07,16.87-1.63v-2l-17.07,1.64-2.7-27.87L341.46,212v-3l-20.17-1.4L320.17,196l4.52-16.24,16.88,5.34,0-5.19-23-7.26.47-11.65,22.57,5.83,0-3.06-11-2.84,1.83-10.84q4.94,1.5,9.19,2.34v-1q-4.19-.82-9-2.3l1.82-10.8,7.27.56v-2l-8.93-.69-2.07,12.29c-5.29-2-17-8.54-16.43-27.17l27.54-10.9v-1.26l-.3-.76-27.24,10.78,0-46.85h-1l0,47.25-11.48,4.55L284.64,89.48a6.33,6.33,0,0,1-2.76,1.12l17.24,34.6-26.51,10.49.6,2.43-20.77.85-.8-48.43h-1l.8,48.47-36.51,1.49c-.05-7.47-.13-14.46-.18-18.34v-.42h0L212.5,71.85h-1l2.23,49.75-37.49-5.38,8.93-44.49h-2.56l-.48,0-8.84,44.06-11.91-1.71-.1.64v.34l11.81,1.7L163.63,164l-2.54-.19,0,5,18.57,1.38v24.47l-18.69,4.23,0,3.05L182.6,197V170.34L252,175.48v28.36h-22.2l-2.91,13.21H208.83l-48,8.73v3L209.1,220h55l2,24.06-57.19,5.5.19,2,57.16-5.49L270,292.17l-57.76-7.54-.38,2.95,58.38,7.63,2.24,27.24-61.11,6.17-31.71,2.25V289.3l30-17.53-1.5-2.57-29.35,17.12-18.28-2.41v3l18.1,2.39v26.45l-18.23,1.93,0,3,18.25-1.93v13.19h0l1.08,37.39v0L160.18,377v3.2l19.69-7.71.58,20.37-20.33,1.28v.66l.08,1.33,20.31-1.29.17,6h1l-.17-6,78.75-5c-.15,3.87-.3,7.62-.43,11h2c.13-3.19.28-7,.44-11.13l17-1.07,2.43,12.2h1l-2.45-12.27,38.63-2.44.44,14.71h5M262.3,387.65c.07-1.76.14-3.55.21-5.35l15.48,0,.85,4.26Zm17.53-1.11-.95-4.76L276.57,360l-1.3-15.87L317.5,341l1.29,43.13Zm9.61-64.8,22.21-2.24-.62,8.72-19.91,2.15Zm-1,.1,3.71,19-17.06,1.29-1.54-18.82Zm29,17.13-24.28,1.83-1.66-8.48L312.89,330l.76-10.71,5.36-.54-1.94,8.05Zm-28.76-68.48L293,289.93l-22,2.29-1.59-19.36ZM294,289.83l-4.34-19.46,32.34-4,2,20.33Zm22.28-82.56-48.81-3.38L272.13,177l3.41.25h41.12l3.3,1-4.81,17.29Zm-2.94-85.57c-.05,5.12,1.07,22,17.26,27.78l-1.84,11-10.08-2.6-15.91-31.94ZM300,127l16.16,32.43-.51,12.85H283.56L275,136.9Zm-26.55,12.12,8.07,33.16h-5.7L253,170.58,252.45,140Zm-22,.89.5,30.51-37.06-2.75c.16-4.95.13-15.95,0-26.26Zm-75.41-22.82,37.72,5.42c.19,15.66.36,37.85.17,45.09l-47.32-3.51Zm95.08,59.71-6.92,40.16H253v-41.5ZM232.2,206.81H252v10.24H229.94ZM265,218.55l2-11.71,49.6,3.43L319.35,239,267,244Zm54.6,22.38,2.17,22.49-52.55,6.48-2-23.94Zm-48.3,54.26,53-5.52.49,5.16-5.51,22.9-45.77,4.62Zm4.33,64.91,2.26,21.25h-15.3c.27-7,.53-14,.72-19.28.33-9.44.33-9.44-.3-9.76l-.47.94-1,.05c0,.82-.43,13.77-.95,27.62l-44.24-21.19-1.56-30.46,57.79-5.83Zm-64.67-30.45-.31,39.1-29.82,1.42-1.1-38.31Zm-30.07,42.42h0v0l0-.89,30.77-1.46.32-40.14,1.89-.19,1.6,31L260.53,382c-.07,1.92-.14,3.86-.22,5.78l-78.88,5Z" style="fill:#fff"></path><polygon points="225.81 370.69 182.74 373.71 182.74 387.54 253.84 383.69 225.81 370.69" style="fill:#e0e0e0"></polygon><polygon points="314.55 213.86 271.46 211.14 268.8 218.53 270.26 240.57 317.04 235.02 314.55 213.86" style="fill:#e0e0e0"></polygon><polygon points="210.52 119.99 209.81 79.47 188.76 79.47 182.66 115.91 210.52 119.99" style="fill:#e0e0e0"></polygon><polygon points="311.7 167.88 313.84 159.1 299.03 130.93 280.03 140.28 286.36 166.93 311.7 167.88" style="fill:#ebebeb"></polygon><path d="M320.53,106.94a6.7,6.7,0,1,0-12.47,3.38h0l0,0c.25.43.58.74.9,1.2l3.89,5.15a1.21,1.21,0,0,0,1.93,0l3.83-5.07a14.49,14.49,0,0,0,1-1.29v0h0A6.66,6.66,0,0,0,320.53,106.94Zm-6.69,2.92a3,3,0,1,1,2.94-3A2.95,2.95,0,0,1,313.84,109.86Z" style="fill:#FF725E"></path><path d="M160,387.65H341a0,0,0,0,1,0,0v47.07a19,19,0,0,1-19,19H179.48A19.53,19.53,0,0,1,160,434.19V387.65A0,0,0,0,1,160,387.65Z" style="fill:#FF725E"></path><path d="M207.22,410.66v11.07h6v3.17h-9.74V410.66Z" style="fill:#fff"></path><path d="M226.05,419.39c0,3.39-2.4,5.63-6,5.63s-6-2.24-6-5.63,2.37-5.6,6-5.6S226.05,416,226.05,419.39Zm-8.37,0c0,1.65,1,2.75,2.36,2.75s2.38-1.1,2.38-2.75a2.39,2.39,0,1,0-4.74,0Z" style="fill:#fff"></path><path d="M232.84,416.77c-1.3,0-2.2,1.08-2.2,2.66s.9,2.66,2.2,2.66a2.25,2.25,0,0,0,2.15-1.24l2.66,1.53A5.79,5.79,0,0,1,227,419.45a5.35,5.35,0,0,1,5.68-5.66,5.42,5.42,0,0,1,4.92,2.6L235,417.91A2.52,2.52,0,0,0,232.84,416.77Z" style="fill:#fff"></path><path d="M248.9,417.75v7.15h-3.55v-1.24a4,4,0,0,1-3.31,1.4c-2.36,0-3.76-1.42-3.76-3.43s1.48-3.29,4.2-3.33h2.87v-.13c0-1-.71-1.64-2.09-1.64a8,8,0,0,0-3.29.87L239,415a12,12,0,0,1,5.12-1.2C247.12,413.77,248.88,415.23,248.9,417.75Zm-3.55,3.43v-.95H243.2c-1,0-1.53.36-1.53,1.13s.55,1.24,1.48,1.24A2.17,2.17,0,0,0,245.35,421.18Z" style="fill:#fff"></path><path d="M258.49,424.33a6,6,0,0,1-3,.73,3.34,3.34,0,0,1-3.68-3.51v-4.72h-1.52v-2.39h1.52v-3.05h3.59v3.05h2.85v2.39h-2.85V421c0,.81.37,1.17,1,1.16a3.93,3.93,0,0,0,1.36-.37Z" style="fill:#fff"></path><path d="M263.81,413.91v11h-3.59v-11Zm-.14-3.09a1.65,1.65,0,1,1-1.64-1.66A1.59,1.59,0,0,1,263.67,410.82Z" style="fill:#fff"></path><path d="M277.81,418v6.93h-3.6V419a1.81,1.81,0,0,0-1.87-2,2.15,2.15,0,0,0-2.15,2.09v5.81h-3.61v-11h3.61v1.79a4,4,0,0,1,3.64-1.93C276.22,413.77,277.81,415.39,277.81,418Z" style="fill:#fff"></path><path d="M290.79,413.91v10c0,3.11-2.42,5.06-6,5.06a9.16,9.16,0,0,1-4.92-1.42l1.26-2.5a6,6,0,0,0,3.39,1.08c1.65,0,2.64-.84,2.64-2.12v-1.17a3.73,3.73,0,0,1-3.13,1.44c-2.74,0-4.69-2.11-4.69-5.3s1.89-5.2,4.61-5.2a3.92,3.92,0,0,1,3.21,1.46v-1.34Zm-3.6,5.18a2.25,2.25,0,1,0-2.21,2.56A2.29,2.29,0,0,0,287.19,419.09Z" style="fill:#fff"></path><polygon points="179.76 331.86 179.57 329.87 272.4 321.45 266.21 246.04 263.05 219.78 252 220.22 251.95 171.97 312.9 174.51 314.17 156.18 299.04 125.22 313.47 119.51 314.2 121.37 301.79 126.29 316.2 155.78 316.18 156.04 314.77 176.59 253.95 174.06 254 218.14 264.81 217.71 268.2 245.84 274.56 323.26 179.76 331.86" style="fill:#FF725E"></polygon><path d="M187.92,313.87A8.25,8.25,0,1,0,172.55,318h0l0,0c.32.53.72.91,1.12,1.47l4.79,6.35a1.48,1.48,0,0,0,2.37,0l4.72-6.24a18.44,18.44,0,0,0,1.19-1.59l0,0h0A8.22,8.22,0,0,0,187.92,313.87Zm-8.25,3.59a3.63,3.63,0,1,1,3.63-3.63A3.63,3.63,0,0,1,179.67,317.46Z" style="fill:#FF725E"></path><path d="M181.59,330.87a1.93,1.93,0,1,1-1.92-1.93A1.92,1.92,0,0,1,181.59,330.87Z" style="fill:#FF725E"></path><circle cx="314.03" cy="120.44" r="1.58" style="fill:#FF725E"></circle><path d="M272.17,127.59H192.68a3.22,3.22,0,0,0-3.22,3.21v24.62a3.22,3.22,0,0,0,3.22,3.21h59l.54,7.42,11.07-7.42h8.92a3.21,3.21,0,0,0,3.21-3.21V130.8A3.21,3.21,0,0,0,272.17,127.59Z" style="fill:#fff"></path><path d="M272.17,127.59a2.37,2.37,0,0,1,.77.07,3.15,3.15,0,0,1,1.89,1.24,3.29,3.29,0,0,1,.6,1.58c0,.63,0,1.29,0,2,0,1.47,0,3.15,0,5,0,3.79,0,8.41.05,13.74,0,1.34,0,2.72,0,4.15a3.41,3.41,0,0,1-2.71,3.32,18.33,18.33,0,0,1-2.33.08h-7.26l.11,0-11.06,7.43-.31.21,0-.38c-.17-2.31-.36-4.83-.55-7.41l.23.21-54.38,0h-4.6a3.65,3.65,0,0,1-1.58-.39,3.47,3.47,0,0,1-1.83-2.56c-.09-1.08,0-2-.05-3q0-6,0-11.8v-10a4.09,4.09,0,0,1,.2-1.46,3.46,3.46,0,0,1,2-2.08,3.56,3.56,0,0,1,1.43-.24h6.77l37.75.05,25.45.09,6.92.05,1.8,0,.62,0s-.21,0-.62,0l-1.8,0-6.92,0-25.45.08-37.75.06h-6.77a3.34,3.34,0,0,0-1.26.21,3,3,0,0,0-1.72,1.78,3.47,3.47,0,0,0-.17,1.3v1.4c0,.94,0,1.89,0,2.83V152.9c0,1,0,2,0,3a3,3,0,0,0,1.56,2.18,3.13,3.13,0,0,0,1.35.33h4.59l54.38,0h.21l0,.21c.19,2.58.37,5.11.53,7.42l-.34-.17,11.08-7.4.05,0h7.32a18.62,18.62,0,0,0,2.26-.05,3.07,3.07,0,0,0,2.44-3c0-1.43,0-2.81,0-4.15,0-5.33,0-10,0-13.74,0-1.88,0-3.56,0-5,0-.72,0-1.41,0-2a3.12,3.12,0,0,0-.56-1.52,3.24,3.24,0,0,0-1.8-1.26A7.64,7.64,0,0,0,272.17,127.59Z" style="fill:#263238"></path><path d="M224,143.26a3.71,3.71,0,1,1-3.71-3.48A3.53,3.53,0,0,1,224,143.26Zm-5.58,0a1.93,1.93,0,0,0,1.89,2,2,2,0,1,0-1.89-2Z" style="fill:#263238"></path><path d="M230.7,144.07a2.41,2.41,0,0,1-2.43,2.68,1.94,1.94,0,0,1-1.59-.75v.69h-1.74v-7.26h1.74v2.65a1.88,1.88,0,0,1,1.55-.74A2.46,2.46,0,0,1,230.7,144.07ZM229,144a1.15,1.15,0,1,0-2.27,0,1.15,1.15,0,1,0,2.27,0Z" style="fill:#263238"></path><path d="M231.42,148.65a2.64,2.64,0,0,1-1.34-.33l.44-1.24a1.11,1.11,0,0,0,.59.19c.3,0,.51-.18.51-.57v-5.3h1.74v5.45A1.75,1.75,0,0,1,231.42,148.65Zm2.05-8.76a1,1,0,1,1-1-.93A.92.92,0,0,1,233.47,139.89Z" style="fill:#263238"></path><path d="M239.75,144.51h-3.68a1.18,1.18,0,0,0,1.2.93,1.76,1.76,0,0,0,1.24-.54l.91.91a3,3,0,0,1-2.31.94,2.56,2.56,0,0,1-2.79-2.68,2.59,2.59,0,0,1,2.76-2.73C238.92,141.34,239.86,142.58,239.75,144.51Zm-1.69-.93a.94.94,0,0,0-1-1,1.1,1.1,0,0,0-1.06,1Z" style="fill:#263238"></path><path d="M243,142.78c-.62,0-1.05.51-1.05,1.28s.43,1.28,1.05,1.28a1.1,1.1,0,0,0,1-.6l1.28.74a2.79,2.79,0,0,1-5.13-1.41,2.58,2.58,0,0,1,2.74-2.73,2.61,2.61,0,0,1,2.37,1.25l-1.26.73A1.22,1.22,0,0,0,243,142.78Z" style="fill:#263238"></path><path d="M249.58,146.41a2.85,2.85,0,0,1-1.42.36,1.61,1.61,0,0,1-1.77-1.69v-2.27h-.74v-1.16h.74v-1.47h1.73v1.47h1.37v1.16h-1.37v2c0,.39.17.57.48.56a1.78,1.78,0,0,0,.65-.18Z" style="fill:#263238"></path><path d="M252.15,141.4v5.29h-1.73V141.4Zm-.07-1.49a.76.76,0,0,1-.79.79.8.8,0,1,1,.79-.79Z" style="fill:#263238"></path><path d="M254.55,141.4l1.11,3.68,1.11-3.68h1.74l-2,5.29h-1.79l-2-5.29Z" style="fill:#263238"></path><path d="M263.93,144.51h-3.68a1.2,1.2,0,0,0,1.21.93,1.76,1.76,0,0,0,1.24-.54l.91.91a3,3,0,0,1-2.31.94,2.56,2.56,0,0,1-2.8-2.68,2.59,2.59,0,0,1,2.76-2.73C263.11,141.34,264.05,142.58,263.93,144.51Zm-1.68-.93a1,1,0,0,0-1-1,1.1,1.1,0,0,0-1.06,1Z" style="fill:#263238"></path><path d="M208.25,140a3.26,3.26,0,1,1-3.26-3.26A3.26,3.26,0,0,1,208.25,140Z" style="fill:#FF725E"></path><path d="M205,142.6a5.54,5.54,0,0,0-5.53,5.53h11.06A5.53,5.53,0,0,0,205,142.6Z" style="fill:#FF725E"></path><circle cx="253" cy="172.27" r="4.43" style="fill:#FF725E"></circle></g><g id="freepik--character-2--inject-45"><path d="M333.58,289.37,304,404.85l7.23,2.32L344.26,277s-22-6.46-22.22-5.68-1.81,8.78-1.81,8.78l9.32,2.46A5.64,5.64,0,0,1,333.58,289.37Z" style="fill:#455a64"></path><circle cx="456.26" cy="458.05" r="21.36" transform="translate(-82.72 815.11) rotate(-78.64)" style="fill:#263238"></circle><path d="M474,458.05a27.7,27.7,0,0,0-.65-4.3,17,17,0,0,0-2-4.67,17.51,17.51,0,0,0-21-7.44,16.2,16.2,0,0,0-4.42,2.38,19.66,19.66,0,0,0-2,1.69,18.43,18.43,0,0,0-1.71,2,17.4,17.4,0,0,0,0,20.65,22.23,22.23,0,0,0,1.71,2,19.77,19.77,0,0,0,2,1.69,16.2,16.2,0,0,0,4.42,2.38,17.58,17.58,0,0,0,21-7.44,17.16,17.16,0,0,0,2-4.67,27.71,27.71,0,0,0,.65-4.31,1.29,1.29,0,0,1,0,.29c0,.22,0,.5,0,.85a8.21,8.21,0,0,1-.11,1.37,11.37,11.37,0,0,1-.34,1.84,16.83,16.83,0,0,1-1.92,4.78,17.93,17.93,0,0,1-12,8.49,18,18,0,0,1-9.43-.75,17.11,17.11,0,0,1-4.55-2.43,16.66,16.66,0,0,1-3.81-3.81,17.88,17.88,0,0,1,0-21.25,16.66,16.66,0,0,1,3.81-3.81,16.83,16.83,0,0,1,4.55-2.43,17.83,17.83,0,0,1,16.95,2.63,17.64,17.64,0,0,1,4.51,5.11,16.9,16.9,0,0,1,1.92,4.77,11.67,11.67,0,0,1,.34,1.85,8.21,8.21,0,0,1,.11,1.37c0,.35,0,.63,0,.85A1.16,1.16,0,0,1,474,458.05Z" style="fill:#455a64"></path><path d="M458.53,451.5a7,7,0,1,1-9.15,4A7,7,0,0,1,458.53,451.5Z" style="fill:#455a64"></path><circle cx="292.69" cy="458.05" r="21.36" transform="translate(-206.1 674.13) rotate(-80.84)" style="fill:#263238"></circle><path d="M310.41,458.05a27.7,27.7,0,0,0-.65-4.3,17,17,0,0,0-2-4.67,17.51,17.51,0,0,0-21-7.44,16.35,16.35,0,0,0-4.42,2.38,19.66,19.66,0,0,0-2,1.69,18.43,18.43,0,0,0-1.71,2,17.38,17.38,0,0,0,0,20.65,19.42,19.42,0,0,0,1.71,2,19.66,19.66,0,0,0,2,1.69,16.35,16.35,0,0,0,4.42,2.38,17.58,17.58,0,0,0,9.18.78A17.68,17.68,0,0,0,307.78,467a17.16,17.16,0,0,0,2-4.67,27.71,27.71,0,0,0,.65-4.31,1.29,1.29,0,0,1,0,.29c0,.22,0,.5,0,.85a8.36,8.36,0,0,1-.12,1.37,12.44,12.44,0,0,1-.33,1.84,16.89,16.89,0,0,1-1.93,4.78,17.86,17.86,0,0,1-12,8.49,18,18,0,0,1-9.43-.75,17.11,17.11,0,0,1-4.55-2.43,20.75,20.75,0,0,1-2-1.73,19.53,19.53,0,0,1-1.76-2.08,17.84,17.84,0,0,1,0-21.25,19.53,19.53,0,0,1,1.76-2.08,20.75,20.75,0,0,1,2-1.73,16.83,16.83,0,0,1,4.55-2.43,17.83,17.83,0,0,1,16.95,2.63,17.64,17.64,0,0,1,4.51,5.11A17,17,0,0,1,310,453.7a12.78,12.78,0,0,1,.33,1.85,8.36,8.36,0,0,1,.12,1.37c0,.35,0,.63,0,.85A1.16,1.16,0,0,1,310.41,458.05Z" style="fill:#455a64"></path><path d="M279.33,436.09s12.8-10.48,29.5,1.78c0,0,10.84,8.17,9.06,24.17h-1.95s-.11-16.66-11.5-23.15a26.35,26.35,0,0,0-23.5-1.35Z" style="fill:#263238"></path><rect x="319.85" y="450.32" width="112.11" height="3.03" rx="1.48" style="fill:#263238"></rect><path d="M330.15,462.82l-6.67-9.47H456.31a4.74,4.74,0,0,1,4.73,4.74h0a4.73,4.73,0,0,1-4.73,4.73Z" style="fill:#263238"></path><path d="M421.38,451.63s7.07,0,13.13-7.47,13.71-13.6,28.05-11.17,20,18.64,20,18.64-2.22,3-7.47-5.85-19.67-10.73-26.54-7.5-13.26,8.91-13.86,16.38l-11.11,3.64Z" style="fill:#263238"></path><circle cx="292.37" cy="458.05" r="7.05" transform="matrix(0.82, -0.57, 0.57, 0.82, -208.28, 246.75)" style="fill:#455a64"></circle><path d="M301.28,401.61s-14.61,53.32-14.62,56.44c0,3.69,8,7.89,10.83,1.35s8.39-29.82,8.83-31.34,1.74-3.93,3.27-1.09,19.84,24.2,19.84,24.2l11.55.21s-27.53-35.24-28.56-39.89c-.16-.76,1.75-11.82,1.75-11.82l2.18-10.85L305.23,386Z" style="fill:#263238"></path><path d="M318.09,429.33c0,.07-.81-.26-1.77-1.35a28.92,28.92,0,0,1-3.49-5c-1.3-2.23-2.69-5-4.1-8.07a36.87,36.87,0,0,1-3.43-10.54,30.32,30.32,0,0,1,.61-11.07,39.21,39.21,0,0,1,3.16-8.49,44.42,44.42,0,0,1,3.09-5.26c.41-.59.73-1.05,1-1.35s.33-.46.35-.46-1.84,2.61-4.07,7.23a41.12,41.12,0,0,0-3,8.44,30.53,30.53,0,0,0-.56,10.89,36.87,36.87,0,0,0,3.35,10.41c1.37,3.11,2.73,5.85,4,8.09a32.25,32.25,0,0,0,3.33,5A5.81,5.81,0,0,0,318.09,429.33Z" style="fill:#FF725E"></path><path d="M319.51,429.72a1.42,1.42,0,1,1-1.42-1.42A1.43,1.43,0,0,1,319.51,429.72Z" style="fill:#FF725E"></path><path d="M315.14,377.73a1.42,1.42,0,1,1-1.42-1.42A1.42,1.42,0,0,1,315.14,377.73Z" style="fill:#FF725E"></path><path d="M303.54,438.4a4.39,4.39,0,0,1-.12.6c-.11.44-.25,1-.43,1.68-.41,1.53-1,3.62-1.67,6.18s-1.6,5.71-2.55,9.14l-.74,2.64a6.07,6.07,0,0,1-1.45,2.57,5.91,5.91,0,0,1-10-5.58l.71-2.65,2.48-9.16,1.71-6.16c.2-.68.37-1.24.5-1.67a2.52,2.52,0,0,1,.2-.58,2.55,2.55,0,0,1-.1.6c-.11.45-.24,1-.4,1.7-.38,1.53-.91,3.63-1.55,6.2s-1.49,5.75-2.38,9.19c-.22.87-.45,1.75-.69,2.65a5.53,5.53,0,0,0,0,2.71,5.41,5.41,0,0,0,9.13,2.4,5.56,5.56,0,0,0,1.33-2.36c.26-.9.51-1.78.76-2.63,1-3.42,1.89-6.5,2.65-9.11s1.38-4.62,1.84-6.13c.21-.68.38-1.23.52-1.66A2,2,0,0,1,303.54,438.4Z" style="fill:#455a64"></path><path d="M414.87,453.34c0,.14-20.7.26-46.23.26s-46.24-.12-46.24-.26,20.7-.26,46.24-.26S414.87,453.19,414.87,453.34Z" style="fill:#455a64"></path><path d="M318.85,282c-.09.23-.69,1.75,0,2.65a1.84,1.84,0,0,0,2.38.77,26,26,0,0,0,5.47-3.6c1.25-1.15,3.18-2.87,3.18-2.87l-3.82-2.48a2.9,2.9,0,0,1-1.87,2.31C322.49,279.36,319.55,280.27,318.85,282Z" style="fill:#ffbf9d"></path><path d="M331.11,266.91H326.2s-6.93-1.89-7.77-2-2.44,1.47-2.44,1.47-2.38.49-2.45,2.17a31,31,0,0,1-.7,4.47c-.42,1.33-.63,5.6,0,6.3s6.12,2.39,7.41,1.72,1.89-1.22,1-1.37-2.73-.21-3.63-1.12-2-1.19-2-2.87a3.45,3.45,0,0,1,1.33-2.63l3.28-.45s3.08,3.92,5.81,5,2.87,1.89,4.55,1,6.05-4,6.05-4Z" style="fill:#ffbf9d"></path><path d="M324.55,275.37a5.13,5.13,0,1,1-5.13-5.13A5.13,5.13,0,0,1,324.55,275.37Z" style="fill:#455a64"></path><path d="M383.59,189.65c6.05-10.58,21.24-13.49,26.29-2.43.13.29,1.24,3.83,1.36,4.13,4.71,12.15,18.68,78.78,18.68,78.78l5.84-1s-16.66-72.94-22-83.42c-5.82-11.39-16.63-11.41-25-7-10.09,5.24-21.91,32.39-21.91,32.39l-2.22,8.8Z" style="fill:#263238"></path><polygon points="413.32 271.1 440.24 267.49 444.55 311.47 396 320.87 386.15 279.93 413.32 271.1" style="fill:#455a64"></polygon><polygon points="413.32 271.1 440.24 267.49 444.55 311.47 396 320.87 386.15 279.93 413.32 271.1" style="opacity:0.30000000000000004"></polygon><path d="M388.93,419.52l.34,20.66s-21.26,7.28-21.57,11.1l40.78.79.81-32.21Z" style="fill:#455a64"></path><path d="M401.91,438.69a1.64,1.64,0,0,1,1.11,1.89,1.59,1.59,0,0,1-1.89,1.1,1.72,1.72,0,0,1-1.17-2,1.67,1.67,0,0,1,2.1-.93" style="fill:#e0e0e0"></path><path d="M408.48,452.08l-.05-3.26-39.08.46s-1.83.74-1.65,2Z" style="fill:#263238"></path><path d="M388.61,440c0,.2,1,.31,2,1s1.47,1.48,1.66,1.4-.09-1.21-1.28-2S388.57,439.78,388.61,440Z" style="fill:#263238"></path><path d="M384.3,441.62c-.05.19.8.54,1.46,1.38s.84,1.72,1,1.71.35-1.1-.5-2.13S384.3,441.43,384.3,441.62Z" style="fill:#263238"></path><path d="M381.77,446.6c.18,0,.47-.92,0-2s-1.41-1.52-1.5-1.36.48.75.87,1.64S381.57,446.58,381.77,446.6Z" style="fill:#263238"></path><path d="M389.06,435.25c.08.18,1-.08,2.13,0s2,.46,2.1.3-.73-.88-2.05-1S389,435.09,389.06,435.25Z" style="fill:#263238"></path><path d="M411.45,410.73l15,14.46s-9.92,19.86-7.4,22.8l29.57-27.61L426.18,396.9Z" style="fill:#455a64"></path><path d="M434.39,415.39a1.7,1.7,0,0,1,2.15.58,1.56,1.56,0,0,1-.56,2.09,1.77,1.77,0,0,1-2.27-.62,1.61,1.61,0,0,1,.83-2.11" style="fill:#e0e0e0"></path><path d="M448.64,420.38l-2.36-2.28-27.47,27.32s-.77,1.8.26,2.57Z" style="fill:#263238"></path><path d="M425.84,425.49c.15.14.93-.47,2.08-.68s2.11,0,2.19-.14-.93-.8-2.32-.53S425.69,425.39,425.84,425.49Z" style="fill:#263238"></path><path d="M424,429.65c.1.17,1-.18,2,0s1.83.64,2,.5-.54-1-1.88-1.18S423.83,429.51,424,429.65Z" style="fill:#263238"></path><path d="M425.73,434.94c.16-.09-.33-1-1.45-1.42s-2.1-.11-2,.07.87.2,1.78.56S425.57,435.06,425.73,434.94Z" style="fill:#263238"></path><path d="M422.79,421.82c.19.07.66-.74,1.53-1.45s1.75-1.05,1.71-1.24-1.15-.13-2.16.72S422.61,421.78,422.79,421.82Z" style="fill:#263238"></path><path d="M363.64,288.3c0,1.89,11.77,69.5,16.21,78.38S388,434.14,388,434.14s23-1.23,23,0,.52-40-1.83-58-3.92-25.32-3.92-25.32l2.09-52.52s5.75-15.08,6-21.82S409.47,262,409.47,262Z" style="fill:#263238"></path><path d="M362.56,295c-1.11,1.23,1.57,67.6,3.14,71.64s54.93,54.14,54.93,54.14l15.14-15.35-43.14-49L395,318.2l13.28-33.26Z" style="fill:#263238"></path><path d="M368.63,370.3l.26.23.75.7,2.88,2.75,10.78,10.37,37.5,36.3h-.35l15.14-15.36v.35l-13-14.75-30.12-34.21-.07-.07v-.1c.93-14.75,1.75-27.79,2.42-38.32v-.06L403.36,298c1-2.33,1.78-4.14,2.31-5.39.26-.6.47-1.06.61-1.39s.22-.47.22-.47-.05.17-.17.49-.33.8-.57,1.41c-.51,1.25-1.26,3.08-2.23,5.43-2,4.74-4.82,11.61-8.39,20.19l0-.06c-.63,10.54-1.41,23.58-2.3,38.33l-.05-.18L423,390.54l13,14.76.15.18-.16.17L420.8,421l-.17.18-.17-.17-37.37-36.43-10.68-10.48-2.83-2.8-.72-.73C368.7,370.39,368.63,370.3,368.63,370.3Z" style="fill:#455a64"></path><path d="M383.94,116.83a4.44,4.44,0,0,0-4.78-1.89,6.05,6.05,0,0,0-7.45.76,5.48,5.48,0,0,0-5.32.33,5.57,5.57,0,0,0-2.44,4.76,4.54,4.54,0,0,0-3.3,8,4.37,4.37,0,0,0,2.52,8.31L383.55,122A4.48,4.48,0,0,0,383.94,116.83Z" style="fill:#263238"></path><path d="M362.59,137.71a18.44,18.44,0,0,1,16.89-18.47l.95-.08c10.3-.24,14.31,9,14.27,19.34l2.24,38.31h0L381.83,192.3l-5.7-10.15-2-10.14s-10-.73-10.91-10.63C362.74,156.6,362.61,146.69,362.59,137.71Z" style="fill:#ffbf9d"></path><path d="M374,172a23.78,23.78,0,0,0,12.59-4.86s-2.07,7.63-12,7.54Z" style="fill:#ff9a6c"></path><path d="M366.19,146.65a1.43,1.43,0,0,0,1.48,1.32,1.35,1.35,0,0,0,1.34-1.4,1.4,1.4,0,0,0-1.47-1.31A1.35,1.35,0,0,0,366.19,146.65Z" style="fill:#263238"></path><path d="M365,142.9c.19.17,1.19-.71,2.71-.83s2.68.55,2.83.35-.13-.41-.64-.73a3.92,3.92,0,0,0-2.29-.5,3.63,3.63,0,0,0-2.13.89C365.07,142.48,364.94,142.82,365,142.9Z" style="fill:#263238"></path><path d="M379.22,146.24a1.4,1.4,0,0,0,1.47,1.31,1.35,1.35,0,0,0,1.35-1.39,1.43,1.43,0,0,0-1.48-1.32A1.35,1.35,0,0,0,379.22,146.24Z" style="fill:#263238"></path><path d="M379.49,141.5c.19.17,1.2-.71,2.71-.83s2.68.55,2.83.35-.13-.41-.64-.73a3.84,3.84,0,0,0-2.29-.5,3.63,3.63,0,0,0-2.13.89C379.53,141.07,379.4,141.42,379.49,141.5Z" style="fill:#263238"></path><path d="M375.44,153.19a9.67,9.67,0,0,0-2.5-.25c-.39,0-.76-.05-.85-.31a2.06,2.06,0,0,1,.17-1.18c.28-1,.58-2,.9-3,1.24-4.34,2.1-7.9,1.93-8s-1.32,3.43-2.57,7.77c-.29,1.08-.58,2.1-.85,3.07a2.24,2.24,0,0,0-.07,1.54,1,1,0,0,0,.68.52,2.66,2.66,0,0,0,.67,0A10.1,10.1,0,0,0,375.44,153.19Z" style="fill:#263238"></path><path d="M380,153.87c-.25,0-.12,1.66-1.43,2.95s-3.07,1.25-3.06,1.48.41.29,1.15.25a4,4,0,0,0,2.57-1.14A3.6,3.6,0,0,0,380.3,155C380.31,154.25,380.09,153.86,380,153.87Z" style="fill:#263238"></path><path d="M379.12,137.15c.21.38,1.48-.08,3.07-.18s2.93.11,3.06-.29c.06-.2-.24-.53-.82-.82a4.56,4.56,0,0,0-2.4-.43,4.44,4.44,0,0,0-2.27.79C379.24,136.59,379,137,379.12,137.15Z" style="fill:#263238"></path><path d="M365,138.69c.27.35,1.32,0,2.58,0s2.32.23,2.56-.13c.11-.18-.06-.53-.52-.85a3.72,3.72,0,0,0-4.14.12C365.06,138.17,364.92,138.53,365,138.69Z" style="fill:#263238"></path><path d="M363.16,133.09s2.09-6.41,4.94-8.11c3.46-2,5.34,1.8,8.69.56s6.65-3.21,10.37-.83c4.08,2.6,2.45,4.8,3,9.17,2.42,17.74,6.07,22.52,6.3,14.05,0-.93,2.51-1.87,2.56-5.79.08-5.07-.23-11.21-1.64-14.69-1.19-2.93-3.07-4.88-6.33-6.92-5.13-3.23-11.78-2.76-16.25-1.93S362.11,125.36,363.16,133.09Z" style="fill:#263238"></path><path d="M394.62,147.81a2.68,2.68,0,0,1,2.67-2.83c1.85,0,4,.91,4.17,4.74.34,6.79-6.5,5.72-6.52,5.53S394.73,150.66,394.62,147.81Z" style="fill:#ffbf9d"></path><path d="M396.28,152.62s.12.08.32.16a1.17,1.17,0,0,0,.88,0,3,3,0,0,0,1.22-2.7,4,4,0,0,0-.42-1.67,1.38,1.38,0,0,0-.93-.87.62.62,0,0,0-.68.36c-.08.2,0,.33-.06.34s-.15-.1-.11-.39a.78.78,0,0,1,.24-.44.87.87,0,0,1,.64-.2,1.65,1.65,0,0,1,1.28,1,4,4,0,0,1,.51,1.87c0,1.37-.61,2.69-1.57,3a1.26,1.26,0,0,1-1.09-.13C396.3,152.79,396.25,152.64,396.28,152.62Z" style="fill:#ff9a6c"></path><path d="M394.65,134.6a6.34,6.34,0,0,1-2.74,1.56,2.2,2.2,0,0,1-2.56-1.35c-.12-.47-.05-1-.39-1.37s-1.07-.21-1.63-.1a4.31,4.31,0,0,1-4.71-2.73,1.8,1.8,0,0,1-2.4.42,9.56,9.56,0,0,1-2-1.82,2.79,2.79,0,0,0-2.41-1c-.49.11-.93.45-1.43.44-.89,0-1.41-1-1.62-1.88s-.39-1.89-1.18-2.31a3.48,3.48,0,0,0-2.41.13c-.81.19-1.87.08-2.15-.7a1.66,1.66,0,0,1,.2-1.26,4.36,4.36,0,0,1,5-2.08,5.92,5.92,0,0,1,10.77-2,6.08,6.08,0,0,1,5.24-1.86,6.15,6.15,0,0,1,4.52,3.27,4.45,4.45,0,0,1,4.67,1.18,4.52,4.52,0,0,1,.76,4.78,4.15,4.15,0,0,1,2.54,3.12c.14,1.4-1.1,2.91-2.48,2.65a2.41,2.41,0,0,1-4,2.75" style="fill:#263238"></path><path d="M398.75,131.62a1.65,1.65,0,0,1-.32,1.34,2.16,2.16,0,0,1-1.28.92,2.32,2.32,0,0,1-2-.41l.28-.06a6.94,6.94,0,0,1-1.21,1.8,3.93,3.93,0,0,1-1.16.87,3,3,0,0,1-3.38-.73,3.84,3.84,0,0,1-.66-1.36,1.4,1.4,0,0,1-.1-.55,2.08,2.08,0,0,1,.24.5,4.7,4.7,0,0,0,.73,1.23,2.74,2.74,0,0,0,4.05-.23,6.94,6.94,0,0,0,1.15-1.69l.11-.21.17.14a2,2,0,0,0,1.67.39,2,2,0,0,0,1.17-.75A3.26,3.26,0,0,0,398.75,131.62Z" style="fill:#455a64"></path><path d="M384.75,117.2s-.17.06-.46.21a2.41,2.41,0,0,0-1,1l-.07.13-.1-.12a8.51,8.51,0,0,0-3.48-2.38,6.58,6.58,0,0,0-2.69-.37,5.52,5.52,0,0,0-2.79,1.06,5.63,5.63,0,0,0-1.56,1.75,4.68,4.68,0,0,0-.58,2.11v.21l-.21,0a3.84,3.84,0,0,0-2.77.57,3.69,3.69,0,0,0-1.39,1.78,5.08,5.08,0,0,0-.26,2,1.77,1.77,0,0,1-.13-.55,4,4,0,0,1,.18-1.56,3.85,3.85,0,0,1,1.43-2,4.08,4.08,0,0,1,3-.67l-.21.17a4.84,4.84,0,0,1,.59-2.28A5.89,5.89,0,0,1,374,116.4a5.79,5.79,0,0,1,3-1.12,6.9,6.9,0,0,1,2.84.43,8.22,8.22,0,0,1,3.52,2.57h-.17a2.27,2.27,0,0,1,1.11-1A1.15,1.15,0,0,1,384.75,117.2Z" style="fill:#455a64"></path><path d="M372.19,195.42l2.26-16s4.37-5.61,8.81-8.27c5.28-3.15,13.65-7,13.65-7h0v3L379.23,191Z" style="fill:#fff"></path><path d="M397.24,166.59s-12.77,1.83-21.66,19.19c-4.78,9.32-9.52,27.67-10.35,31.68s-6,51.33-7.32,63.76a160.08,160.08,0,0,0-.67,24l58.11-12.84-6.06-44.25s1.13-11,1.19-12.24c.43-9.57,4.09-16.47,2.63-35.08a45.64,45.64,0,0,0-4.24-16c-2.53-5.33-5.52-8.07-10.27-12.35Z" style="fill:#FF725E"></path><polygon points="366.04 271.33 367.49 261.25 391.96 258.33 393.44 268.74 366.04 271.33" style="fill:#FF725E"></polygon><path d="M366,271.33l.56-.08,1.56-.18,5.75-.61,19.5-2-.22.29c-.4-2.79-.83-5.77-1.26-8.83l-.23-1.58.29.22-24.48,2.84.15-.16-1.15,7.32q-.21,1.25-.33,2c-.08.47-.13.72-.14.73a5.87,5.87,0,0,1,.06-.66l.24-2c.24-1.81.56-4.35,1-7.47v-.13l.14,0,24.47-3,.25,0,0,.25c.07.52.15,1,.22,1.59.43,3.06.85,6,1.25,8.83l0,.26-.27,0-19.72,1.74-5.69.47-1.51.11Z" style="fill:#263238"></path><path d="M358.18,278.8s28.78-18.91,31.93-23.07,16.32-49.34,16.32-49.34l-15.35,4.32-18.55,45-13.24,12.93Z" style="opacity:0.30000000000000004"></path><path d="M378.45,195.07c-1.58,6.5-10,46-10,46S330.83,267,331.11,267.79s10.32,14,10.32,14,42.1-24,45.73-28.63,17.65-42.71,17.92-43.52,2.94-5.85-.08-15.1c-3.54-10.83-10.48-11.9-16.06-10.55-4.8,1.16-9.29,7.64-10.15,9.93A8.86,8.86,0,0,0,378.45,195.07Z" style="fill:#FF725E"></path><path d="M378.45,195.07s.05-.23.18-.66a7.55,7.55,0,0,1,.79-1.84,23.6,23.6,0,0,1,4.84-6,11.47,11.47,0,0,1,4.85-2.71,13.68,13.68,0,0,1,6.62,0,10.61,10.61,0,0,1,3.37,1.56,13.45,13.45,0,0,1,2.86,2.74,24,24,0,0,1,3.62,7.74,24.49,24.49,0,0,1,.91,9.36,17.66,17.66,0,0,1-.48,2.45,25.12,25.12,0,0,1-.85,2.39q-.87,2.38-1.79,4.86c-2.46,6.59-5.13,13.62-8.07,21-1.47,3.67-3,7.42-4.7,11.21a49.5,49.5,0,0,1-2.84,5.63c-.15.22-.28.46-.45.67l-.59.57a8.74,8.74,0,0,1-1.23,1.06l-1.28,1-1.32.93c-7.1,4.9-14.75,9.47-22.57,14.16-6.37,3.79-12.65,7.45-18.76,11l-.2.11-.14-.18q-2.7-3.62-5.36-7.14l-2.59-3.52L332,269.57l-.62-.88-.3-.46-.15-.27,0-.07s0-.09,0-.21.08-.13.13-.21a39.06,39.06,0,0,1,3.35-2.69l3.37-2.47,6.63-4.73c8.7-6.14,16.79-11.74,24-16.7l-.08.12,7.37-33.57c.89-4,1.58-7.05,2.05-9.17.24-1,.42-1.83.54-2.38s.21-.81.21-.81,0,.28-.15.82-.28,1.36-.49,2.4c-.45,2.12-1.1,5.21-1.94,9.19l-7.2,33.6,0,.08-.06.05c-7.2,5-15.27,10.6-24,16.76L338,262.71c-1.12.81-2.24,1.64-3.37,2.47a40.31,40.31,0,0,0-3.27,2.62l0,0s0,.07-.07,0a.12.12,0,0,0-.13,0c-.08,0,.37-.13.19-.06h0l0,0,.11.2.29.44.62.87,1.26,1.75,2.6,3.52q2.66,3.51,5.36,7.13l-.33-.07c6.11-3.51,12.39-7.17,18.75-11,7.82-4.68,15.47-9.26,22.55-14.12l1.31-.93,1.26-1a9,9,0,0,0,1.19-1l.55-.54a6,6,0,0,0,.43-.64,49.78,49.78,0,0,0,2.81-5.55c1.7-3.77,3.23-7.52,4.71-11.18,2.95-7.33,5.63-14.35,8.1-20.93q.93-2.46,1.81-4.85a17.3,17.3,0,0,0,1.32-4.75,23.8,23.8,0,0,0-.87-9.21,23.43,23.43,0,0,0-3.53-7.64,13,13,0,0,0-2.76-2.69,10.63,10.63,0,0,0-3.28-1.53,13.51,13.51,0,0,0-6.48,0,11.18,11.18,0,0,0-4.78,2.63,24.39,24.39,0,0,0-4.88,5.88,7.92,7.92,0,0,0-.83,1.8C378.54,194.85,378.45,195.07,378.45,195.07Z" style="fill:#263238"></path><path d="M398.6,171.74s-.14.12-.43.29l-1.3.75-4.79,2.72c-2,1.16-4.4,2.56-7,4.23a41.33,41.33,0,0,0-3.91,2.77,9.46,9.46,0,0,0-1.75,1.77c-.48.69-1,1.42-1.39,2.19-1.76,3.06-3.2,6.12-4.51,8.9s-2.43,5.32-3.37,7.44-1.67,3.78-2.22,5l-.62,1.36a2.39,2.39,0,0,1-.25.47,2.92,2.92,0,0,1,.15-.51l.53-1.4c.47-1.22,1.17-3,2.07-5.11s2-4.7,3.27-7.5,2.72-5.87,4.5-9c.44-.78.93-1.52,1.43-2.24a9.78,9.78,0,0,1,1.83-1.86,44.37,44.37,0,0,1,4-2.78c2.61-1.65,5-3,7.06-4.14s3.71-2,4.87-2.58l1.35-.66A2.38,2.38,0,0,1,398.6,171.74Z" style="fill:#263238"></path></g><g id="freepik--character-1--inject-45"><path d="M122.44,325.71s10,54.31,7.09,65.64C127.14,400.79,72,443.43,72,443.43l-7.64-7.78s15.57-17.28,23.32-33.24c5.2-10.72,18.27-19.08,18.27-19.08h0L90.2,334.82Z" style="fill:#cc725a"></path><path d="M107.36,390.06l-3.12-11" style="fill:#cc725a"></path><path d="M104.24,379.08a33.67,33.67,0,0,0,1.34,5.55,35.25,35.25,0,0,0,1.78,5.43,36.32,36.32,0,0,0-1.34-5.55A35.73,35.73,0,0,0,104.24,379.08Z" style="fill:#844031"></path><path d="M76.35,445.41l-.76.72S82.53,464,80.2,466.4l-24-25.84,8.93-7.63A20.12,20.12,0,0,0,76.35,445.41Z" style="fill:#455a64"></path><g style="opacity:0.6000000000000001"><path d="M64.83,438.1a1.46,1.46,0,0,0-1.89.39,1.4,1.4,0,0,0,.37,1.87,1.53,1.53,0,0,0,2-.42,1.43,1.43,0,0,0-.6-1.9" style="fill:#fff"></path></g><g style="opacity:0.6000000000000001"><path d="M56.22,440.56l2.15-1.83,22.19,25.43s.57,1.62-.36,2.24Z" style="fill:#fff"></path></g><path d="M75.6,446.29c-.13.11-.77-.46-1.76-.71S72,445.5,72,445.34s.84-.66,2-.34S75.74,446.21,75.6,446.29Z" style="fill:#263238"></path><path d="M77,450c-.09.14-.81-.2-1.75-.14s-1.61.47-1.72.34.53-.88,1.69-.94S77.11,449.93,77,450Z" style="fill:#263238"></path><path d="M75.18,454.59c-.14-.09.33-.85,1.32-1.17s1.82,0,1.76.17-.76.13-1.57.4S75.31,454.7,75.18,454.59Z" style="fill:#263238"></path><path d="M89.62,333.22,88.55,386.4l-5.08,74.28h-13s-5.84-34.74-5.57-52.9.1-24.84,0-27.07-6.39-26.63-7.77-44.84,7.77-23,7.77-23Z" style="fill:#cc725a"></path><path d="M89.62,333.22l-.4-.35c-.29-.24-.69-.59-1.23-1l-4.79-4L65,312.77l-.08-.07-.07.05a13.43,13.43,0,0,0-4,4,21.75,21.75,0,0,0-2.61,5.52A37,37,0,0,0,57,335.54,243.68,243.68,0,0,0,61.65,366c.58,2.71,1.16,5.47,1.76,8.27q.44,2.1.9,4.23c.14.7.3,1.44.38,2.12s.06,1.46.08,2.2c.12,5.89.08,12,0,18.16,0,3.1-.12,6.23-.07,9.41,0,1.59.1,3.19.14,4.79l.3,4.82c.48,6.46,1.2,13,2,19.64.91,7.18,2,14.24,3.07,21.12l0,.19H83.68v-.21c1.24-18.21,2.39-35.28,3.43-50.64.52-7.67,1-14.92,1.47-21.67.14-1.69.16-3.35.18-5s.07-3.23.09-4.79c.06-3.13.12-6.13.17-9,.2-11.39.36-20.49.47-26.77,0-3.12.08-5.53.11-7.18,0-.8,0-1.42,0-1.85s0-.62,0-.62,0,.22,0,.64,0,1.05-.06,1.87c0,1.65-.1,4.07-.18,7.19-.14,6.27-.35,15.37-.61,26.75q-.09,4.27-.2,8.95c0,1.56-.06,3.16-.1,4.78s0,3.28-.2,5c-.47,6.75-1,14-1.51,21.67-1.06,15.36-2.23,32.42-3.49,50.62l.23-.21h-13l.23.19c-1.13-6.87-2.16-13.92-3.07-21.1-.84-6.62-1.56-13.17-2-19.61-.1-1.61-.2-3.22-.3-4.81s-.15-3.19-.15-4.77c0-3.16.06-6.31.07-9.41.06-6.21.1-12.27,0-18.17,0-.74,0-1.47-.09-2.22s-.25-1.46-.39-2.18c-.31-1.42-.61-2.83-.91-4.23l-1.77-8.26a246.07,246.07,0,0,1-4.74-30.37,36.79,36.79,0,0,1,1.22-13.12A21.44,21.44,0,0,1,61.09,317a13.05,13.05,0,0,1,3.9-4h-.16l18.24,14.93,4.86,4,1.25,1Z" style="fill:#844031"></path><path d="M85.11,456.57v1s16.93,6.72,17.12,9.92l-33.56,0,.47-11.17A19.22,19.22,0,0,0,85.11,456.57Z" style="fill:#455a64"></path><g style="opacity:0.6000000000000001"><path d="M72.54,459.86a1.38,1.38,0,0,0-1,1.57,1.32,1.32,0,0,0,1.54.95,1.44,1.44,0,0,0,1-1.66,1.35,1.35,0,0,0-1.71-.81" style="fill:#fff"></path></g><g style="opacity:0.6000000000000001"><path d="M68.68,467.46l.11-2.69,32.13,1s1.49.65,1.32,1.7Z" style="fill:#fff"></path></g><path d="M85.23,457.66c0,.16-.82.23-1.63.76s-1.23,1.22-1.39,1.15.1-1,1.09-1.63S85.27,457.51,85.23,457.66Z" style="fill:#263238"></path><path d="M88.75,459.11c0,.16-.67.44-1.23,1.13s-.71,1.43-.88,1.42-.26-.93.44-1.78S88.75,459,88.75,459.11Z" style="fill:#263238"></path><path d="M90.75,463.33c-.15,0-.38-.78,0-1.68s1.19-1.26,1.26-1.12-.4.62-.74,1.36S90.91,463.31,90.75,463.33Z" style="fill:#263238"></path><path d="M104.69,160.15A14.29,14.29,0,0,0,98,171.58c-.09,2.23.23,4.82-1.4,6.35s-4.4,1.13-6,2.69c-1.84,1.84-.84,5-1.71,7.46a5.14,5.14,0,0,1-5.87,3.17,20,20,0,0,0,9.39,5.43l3.18-3.23a3.68,3.68,0,0,0-.27,4.52,8.4,8.4,0,0,0,3.85,2.93,25.43,25.43,0,0,0,22.6-1.05" style="fill:#263238"></path><path d="M144,184.46a50.27,50.27,0,0,1-1.28-5.22c-.37-3.84,1.94-7.84.52-11.42-1-2.55-3.64-4-6.15-5.15s-5.24-2.1-7-4.24c-1.26-1.57-1.85-3.59-3.11-5.16-1.79-2.24-4.7-3.26-7.52-3.77a17.21,17.21,0,0,0-8.73.41,9.39,9.39,0,0,0-6,6c-.39,1.38-.38,2.87-1,4.18s-2,2.46-2.85,3.77a7.57,7.57,0,0,0,.84,9.21l17.07,28.21c4,2.07,14.45,1.32,18.07-1.41S144.89,188.9,144,184.46Z" style="fill:#263238"></path><path d="M102.63,169.83c1.5-5.78,6.77-12.22,12.49-10.47l17.33,8.14a3.48,3.48,0,0,1,2.39,4.07l-8.1,43s-.91.24,0,0a.25.25,0,0,1,.25.4c-2.53,2.9-14.33,15.46-24.38,10-2.24-1.2,1.21-8.32,1.25-11.1l1.12-7c.65-3.55.93-5,.92-5s-7.24-2.7-6.9-12.76C99.17,184.17,101,176.26,102.63,169.83Z" style="fill:#cc725a"></path><path d="M104.21,178.84a1.27,1.27,0,0,0,1,1.49,1.22,1.22,0,0,0,1.51-.88,1.27,1.27,0,0,0-1-1.49A1.22,1.22,0,0,0,104.21,178.84Z" style="fill:#263238"></path><path d="M116.35,182a1.28,1.28,0,0,0,1,1.5,1.22,1.22,0,0,0,1.51-.88,1.27,1.27,0,0,0-1-1.49A1.21,1.21,0,0,0,116.35,182Z" style="fill:#263238"></path><path d="M103,174.37c.11.25,1.37-.36,2.82,0s2.27,1.5,2.49,1.33,0-.48-.32-1a3.4,3.4,0,0,0-4.24-1.09C103.21,173.93,103,174.26,103,174.37Z" style="fill:#263238"></path><path d="M116,177.42c.15.23,1.41-.47,3-.22s2.6,1.27,2.8,1.09,0-.48-.47-.95a3.83,3.83,0,0,0-4.61-.69C116.11,177,115.88,177.31,116,177.42Z" style="fill:#263238"></path><path d="M109.92,186.16a9.38,9.38,0,0,0-2.11-.81c-.34-.11-.65-.24-.66-.48a1.75,1.75,0,0,1,.42-1l1.53-2.42c2.13-3.46,3.75-6.32,3.61-6.41a47.18,47.18,0,0,0-4.12,6.1l-1.48,2.45a2,2,0,0,0-.44,1.32.87.87,0,0,0,.47.61,2.18,2.18,0,0,0,.56.19A8.55,8.55,0,0,0,109.92,186.16Z" style="fill:#263238"></path><path d="M105.9,201.93a25.34,25.34,0,0,0,13.75-1s-4.61,6.22-14.21,3.41Z" style="fill:#844031"></path><path d="M113.61,190.61a2.2,2.2,0,0,0-.6-.91,1.74,1.74,0,0,0-1.16-.25,2.72,2.72,0,0,0-1.63.6,1.65,1.65,0,0,0-.58,1.58h0c.09.59.9,1,1.47,1.17a2.59,2.59,0,0,0,1.73-.16,1.52,1.52,0,0,0,1-1A1.89,1.89,0,0,0,113.61,190.61Z" style="fill:#844031"></path><path d="M113.55,188.66c-.21,0-.5,1.41-2,2.21s-3,.33-3,.53.29.35.94.5a3.75,3.75,0,0,0,2.52-.37,3.22,3.22,0,0,0,1.54-1.86C113.75,189.07,113.65,188.67,113.55,188.66Z" style="fill:#263238"></path><path d="M116.44,173.75c.06.39,1.44.48,3,1s2.74,1.17,3,.88c.12-.14,0-.52-.48-1a5.23,5.23,0,0,0-2.12-1.24,5.36,5.36,0,0,0-2.45-.18C116.76,173.33,116.42,173.56,116.44,173.75Z" style="fill:#263238"></path><path d="M105.05,169.06c.21.36,1.33.25,2.61.48s2.31.66,2.62.39c.14-.13,0-.47-.38-.85a4,4,0,0,0-2-.91,3.92,3.92,0,0,0-2.19.21C105.16,168.6,105,168.89,105.05,169.06Z" style="fill:#263238"></path><path d="M136.27,169.37a8.15,8.15,0,0,0-3.79-3.19,90.66,90.66,0,0,0-20.26-7.72c-1.06,1.36-.47,3.45.75,4.67a16.4,16.4,0,0,0,4.43,2.62c1.54.79,3.08,1.9,3.55,3.56s-.31,3.69.11,5.47c.72,3.08,4.73,4.5,5.44,7.58.53,2.32-1,4.56-1.63,6.87a8.52,8.52,0,0,0,7.21,10.6q2.19-12.62,4.39-25.22C136.78,172.85,137.06,171,136.27,169.37Z" style="fill:#263238"></path><path d="M150.86,192.72c-1.2-1.35-2.75-2.58-3.09-4.36-.49-2.58,1.86-5.29.83-7.71-.94-2.21-4.42-2.5-5.28-4.75-.66-1.75.49-3.1.33-4.59a4,4,0,0,0-3.57-3l-13.49,15.42c-1.72,5.5-3.15,8.37-2.32,11.79a26.57,26.57,0,0,1,1.16,5.67,5.49,5.49,0,0,1-2.38,5c6.84,1.34,13.74-1.53,20.13-4.34l6.76-3a4.61,4.61,0,0,0,1.91-1.25C153,196.18,152.06,194.07,150.86,192.72Z" style="fill:#263238"></path><path d="M143.55,200.16a3.75,3.75,0,0,1-.76.06,6.46,6.46,0,0,1-2.13-.41,6.67,6.67,0,0,1-3.8-8.85,10.94,10.94,0,0,1,1.58-2.42,10.27,10.27,0,0,0,1.63-2.52,3.44,3.44,0,0,0,0-3c-.53-.91-1.68-1.26-2.71-1.82a2.81,2.81,0,0,1-1.62-3.13,20.74,20.74,0,0,1,1.2-3.51,4,4,0,0,0,.22-1.76,2.47,2.47,0,0,0-.84-1.52A7,7,0,0,0,132.9,170a7.55,7.55,0,0,1-3.44-1.46,6.71,6.71,0,0,1-2.13-2.93,11,11,0,0,1-.52-3.41,15.61,15.61,0,0,0-.32-3.19,7,7,0,0,0-1.34-2.64,8,8,0,0,0-4.54-2.71,7.87,7.87,0,0,0-4.38.4,9.5,9.5,0,0,0-2.9,1.72,11.84,11.84,0,0,0-1.91,2.17s0-.07.08-.18.16-.27.3-.48a9.36,9.36,0,0,1,1.43-1.63,9.51,9.51,0,0,1,2.92-1.82,8.13,8.13,0,0,1,4.52-.46,8.23,8.23,0,0,1,4.74,2.78,7.56,7.56,0,0,1,1.43,2.76,15.35,15.35,0,0,1,.34,3.26,10.93,10.93,0,0,0,.51,3.3,6.49,6.49,0,0,0,2,2.75,7.14,7.14,0,0,0,3.28,1.37,7.28,7.28,0,0,1,3.57,1.43,2.88,2.88,0,0,1,1,1.76,4.39,4.39,0,0,1-.23,1.95,19.56,19.56,0,0,0-1.19,3.44,2.72,2.72,0,0,0,.22,1.63,2.78,2.78,0,0,0,1.19,1.11c.49.27,1,.49,1.54.77a3.38,3.38,0,0,1,1.3,1.19,3.8,3.8,0,0,1,0,3.29,10.34,10.34,0,0,1-1.7,2.6,10.16,10.16,0,0,0-1.55,2.33,6.63,6.63,0,0,0-.54,2.51,6.47,6.47,0,0,0,1.4,4.12,6.73,6.73,0,0,0,2.7,2A7.68,7.68,0,0,0,143.55,200.16Z" style="fill:#455a64"></path><path d="M154.14,189.31a1.38,1.38,0,0,1,.16.59,2.49,2.49,0,0,1-.49,1.68,2.74,2.74,0,0,1-1,.83,2.83,2.83,0,0,1-1.52.22,3.46,3.46,0,0,1-2.81-2.27,4.59,4.59,0,0,1-.25-2.16A6.33,6.33,0,0,1,149,186c.72-1.44,1.88-2.78,2.11-4.52a3.25,3.25,0,0,0-.53-2.47,3.53,3.53,0,0,0-2.42-1.08,8.63,8.63,0,0,1-3-.65,2.59,2.59,0,0,1-1.11-1.18,3.65,3.65,0,0,1-.33-1.58,11.87,11.87,0,0,1,.6-3.05,6.82,6.82,0,0,0,.17-2.87,7.26,7.26,0,0,0-2.73-4.59,10.3,10.3,0,0,0-4.67-1.64,14.38,14.38,0,0,1-4.3-1.2,9.31,9.31,0,0,1-2.87-2.3,9.08,9.08,0,0,1-1.44-2.38,6.54,6.54,0,0,1-.57-2.29,12.61,12.61,0,0,0,.71,2.23,9.34,9.34,0,0,0,4.3,4.49,14.39,14.39,0,0,0,4.23,1.11,10.62,10.62,0,0,1,4.83,1.68,7.58,7.58,0,0,1,2.9,4.83,7.23,7.23,0,0,1-.17,3,12.68,12.68,0,0,0-.59,2.94,2.63,2.63,0,0,0,1.23,2.42,8.46,8.46,0,0,0,2.82.61,3.84,3.84,0,0,1,2.67,1.23,3.62,3.62,0,0,1,.6,2.76,7,7,0,0,1-.93,2.5c-.43.74-.89,1.43-1.25,2.12a6.2,6.2,0,0,0-.74,2.11,4.41,4.41,0,0,0,.21,2,3.25,3.25,0,0,0,2.57,2.15,2.63,2.63,0,0,0,1.41-.18,2.54,2.54,0,0,0,.94-.75,2.46,2.46,0,0,0,.54-1.58A4,4,0,0,0,154.14,189.31Z" style="fill:#263238"></path><path d="M80.81,185.05a2.77,2.77,0,0,0-.18,1.81,2.37,2.37,0,0,0,1.26,1.62,2.52,2.52,0,0,0,2.62-.4,2.28,2.28,0,0,0,.76-1.38,4.88,4.88,0,0,0-.06-1.78c-.23-1.21-.83-2.57-.54-4.09a5.58,5.58,0,0,1,2.56-3.75,6.66,6.66,0,0,1,2.28-.89,10.05,10.05,0,0,1,2.51-.07,12.28,12.28,0,0,0,2.42,0,3.19,3.19,0,0,0,2-.94,4,4,0,0,0,.91-2,7.76,7.76,0,0,0,.06-2.15,16.44,16.44,0,0,1-.15-4.12,6.21,6.21,0,0,1,1.62-3.22,8,8,0,0,1,2.47-1.64,13.61,13.61,0,0,0,2-1,4.81,4.81,0,0,0,1.3-1.32.67.67,0,0,1,0,.12,1.72,1.72,0,0,1-.17.32,3.66,3.66,0,0,1-1,1,14.19,14.19,0,0,1-1.94,1.11A8.07,8.07,0,0,0,99.08,164a5.89,5.89,0,0,0-1.5,3.07,16.5,16.5,0,0,0,.2,4,8.19,8.19,0,0,1-.06,2.26,4.32,4.32,0,0,1-1,2.17,3.62,3.62,0,0,1-2.23,1.07,13,13,0,0,1-2.5,0,9.57,9.57,0,0,0-2.4.06,6.17,6.17,0,0,0-2.15.83A5.23,5.23,0,0,0,85,180.9c-.28,1.38.27,2.68.51,3.95a5.13,5.13,0,0,1,0,1.91,2.66,2.66,0,0,1-.88,1.54,2.75,2.75,0,0,1-2.9.38,2.63,2.63,0,0,1-1.23-3.2A1.32,1.32,0,0,1,80.81,185.05Z" style="fill:#263238"></path><path d="M125.24,294,68.87,282.48S60.75,290,57.55,299.69C50.92,319.74,62.16,373,62.16,373l28.2-2,41.36-2.31c0-21-6.09-62.3-6.09-62.3Z" style="fill:#263238"></path><path d="M141.08,217.19l-13.52-5.94s-7.66,7.12-16.54,4.39c-5.18-1.59-6.3-7.09-6.3-7.09l-15.83.9L82,239.55l-.23,17.15L66.71,282s19,26.74,61.72,19.56l2.69-33.49s6.58-17.94,6.88-23.92S138,231,138,231Z" style="fill:#455a64"></path><path d="M114.25,302.8a71.83,71.83,0,0,1-13.51-1.25,62.25,62.25,0,0,1-19.22-7.07,56.06,56.06,0,0,1-11.2-8.41A34.48,34.48,0,0,1,66.69,282h0v0l15.07-25.28L82,239.54l6.89-30.11h0l15.85-.9v0a11,11,0,0,0,1.21,2.94,9,9,0,0,0,5.08,4.13,16,16,0,0,0,11.58-1.17,21.91,21.91,0,0,0,4.94-3.22h0l13.53,6v0L138,231c0,.19.29,7.29,0,13.16s-6.76,23.6-6.88,23.93l-2.69,33.5h0A86.19,86.19,0,0,1,114.25,302.8ZM66.74,282A34.62,34.62,0,0,0,70.36,286a56.05,56.05,0,0,0,11.19,8.4c9.2,5.28,24.79,10.79,46.86,7.09l2.69-33.48c.07-.18,6.58-18,6.88-23.91s0-13.09,0-13.16h0l3.07-13.77-13.48-5.92a22.34,22.34,0,0,1-4.94,3.21,18.31,18.31,0,0,1-5.27,1.64,14.38,14.38,0,0,1-6.34-.46,9,9,0,0,1-5.11-4.16,10.81,10.81,0,0,1-1.21-2.93l-15.79.9L82,239.55l-.22,17.15h0Z" style="fill:#263238"></path><path d="M91.21,256.18a5.63,5.63,0,0,0,.8.92c.52.57,1.32,1.36,2.35,2.3a56.7,56.7,0,0,0,18.48,11.24c1.3.48,2.38.83,3.13,1a5.88,5.88,0,0,0,1.17.28,6,6,0,0,0-1.12-.45c-.73-.26-1.78-.65-3.06-1.17a64.85,64.85,0,0,1-18.38-11.17c-1-.91-1.88-1.66-2.45-2.19A5.82,5.82,0,0,0,91.21,256.18Z" style="fill:#263238"></path><g style="opacity:0.30000000000000004"><path d="M75.61,267.06a6,6,0,0,0,6.15-.86,15.92,15.92,0,0,0,3.52-5.12L91.8,248.3A34.38,34.38,0,0,1,115,249.56a7.76,7.76,0,0,1,3,1.95,8.75,8.75,0,0,1,1.55,4.69c.49,4,.92,8.13,2.49,11.87s4.49,7.15,8.4,8.23l2.13-18.16-5.93-14.43-28.52-5.28-11.79,4.42-8,19.55Z"></path></g><path d="M139.45,216.75s6.73.73,9.42,9.63c2,6.52,3.48,19.07,3.48,19.07l-16.55.88v-16Z" style="fill:#455a64"></path><path d="M135.77,246.36v-16l3.65-13.62h0a9.61,9.61,0,0,1,3.72,1.48,14.11,14.11,0,0,1,5.72,8.16c2,6.45,3.47,18.95,3.49,19.08v0h0Zm0-16V246.3l16.5-.87c-.08-.66-1.58-12.74-3.48-19.05a14,14,0,0,0-5.7-8.13,9.73,9.73,0,0,0-3.67-1.47Z" style="fill:#263238"></path><path d="M88.89,209.45a12.92,12.92,0,0,0-8.58,3.24c-3.59,3.43-11.44,16.56-11.44,16.56l16,5.39L90,218.74Z" style="fill:#455a64"></path><path d="M84.85,234.68h0l-16-5.41v0c.08-.14,7.9-13.17,11.46-16.56A12,12,0,0,1,86,209.76a12.46,12.46,0,0,1,2.94-.33h0v0L90,218.74h0ZM68.9,229.24l15.92,5.37,5.11-15.87-1.06-9.26a12.94,12.94,0,0,0-8.54,3.23C76.86,216,69.3,228.57,68.9,229.24Z" style="fill:#263238"></path><path d="M140.26,233.59a10.13,10.13,0,0,0-.82,1.89c-.53,1.34-1.13,2.9-1.8,4.61s-1.3,3.25-1.84,4.59a9.82,9.82,0,0,0-.69,1.94,8.23,8.23,0,0,0,1-1.81c.55-1.14,1.26-2.75,2-4.55s1.29-3.46,1.68-4.67A8.51,8.51,0,0,0,140.26,233.59Z" style="fill:#263238"></path><path d="M86.93,221.91a70.25,70.25,0,0,0-2.28,7.61,66.56,66.56,0,0,0-1.84,7.72,70.48,70.48,0,0,0,2.28-7.6A67,67,0,0,0,86.93,221.91Z" style="fill:#263238"></path><path d="M119.74,213.07l-2.23,24a1.52,1.52,0,0,1-1.66,1.35l-15.43-1.17a1.56,1.56,0,0,1-1.46-1.6l1.46-25.23A1.53,1.53,0,0,1,102.2,209l16.2,2.39A1.56,1.56,0,0,1,119.74,213.07Z" style="fill:#263238"></path><path d="M110.56,224.41c.4.11,9.1,3.25,9.1,3.25l11.56,8.73,4.58,9.94-8.43,10.27-1.68-10.48a16.75,16.75,0,0,1-6-.24c-2.69-.74-11.24-2.94-11.24-2.94l-4-3.18a12.59,12.59,0,0,1-.92-3.14,1,1,0,0,1,1.72-.6c.82.67,7.06,1.91,8.73,1.57,0,0-9-2.27-9.92-3.92s-.32-2.71,1.11-2.45,6.51,1.94,8.1,2.09,3.54.51,4.07-.17-.54-1.52-.54-1.52l-1.47-1.56s-6.44-2.32-6.59-3.77A1.65,1.65,0,0,1,110.56,224.41Z" style="fill:#cc725a"></path><path d="M107.59,223.42s-7.83-.17-8.4.2S87,233.6,87,233.6l-2.71,1.72,4.6,8.91,1.35-.49,9.38-2.94a14.81,14.81,0,0,1,2.88-.36s8.9.24,9.64-.66.47-1.19-.15-1.46a52.61,52.61,0,0,0-7.09-.63,19.17,19.17,0,0,1-3.45-.62s3.74-.17,4.61-.29,9.23-.42,9.35-1.83-.79-2.1-6.07-1.69a37.92,37.92,0,0,1-8.74-.21l11.82-1.75s4.74-.58,3.52-2.08-11.31-.67-11.31-.67l-4.53.78,1.65-2.25s6.36-.64,7.24-1.09c1.09-.54,1.34-1.19.73-1.91A3.1,3.1,0,0,0,107.59,223.42Z" style="fill:#cc725a"></path><path d="M70.24,229.71l13,4.42-.65,3,2.58-2.4,3.72,9.47s-2.93,5.48-4.52,8.52c-4.26,8.12-10.4,17-15.72,15.51-6.38-1.75-8.3-9.07-7.33-13.84C62.21,250.08,70.24,229.71,70.24,229.71Z" style="fill:#cc725a"></path><path d="M151.37,245.5l-11.94.73-3.63.1-2.36-5.17L126.5,250s.82,6.16,1.25,9.56c1.14,9.1,3.8,19.54,9.29,20,6.59.59,12.68-5.95,13.43-10.76C151.16,264.48,151.37,245.5,151.37,245.5Z" style="fill:#cc725a"></path><path d="M87,233.56s.1-.1.32-.28l1-.81L92,229.41l5.83-4.8.88-.7.46-.36a1.58,1.58,0,0,1,.62-.16c.8-.08,1.63-.1,2.48-.12,1.7,0,3.5,0,5.39,0h0a4.34,4.34,0,0,1,1.42.19,2,2,0,0,1,.67.37,1.73,1.73,0,0,1,.43.63.93.93,0,0,1-.06.78,1.67,1.67,0,0,1-.54.55,2.33,2.33,0,0,1-.68.36,6.8,6.8,0,0,1-.75.18c-2,.37-4.13.6-6.32.84l.1-.06-1.64,2.26-.15-.22,4.53-.78h0c1.91-.14,3.87-.23,5.87-.22a28.51,28.51,0,0,1,3,.15,9.09,9.09,0,0,1,1.53.27,2.61,2.61,0,0,1,.75.32,1,1,0,0,1,.48.72.86.86,0,0,1-.4.76,3.09,3.09,0,0,1-.71.39,9.23,9.23,0,0,1-1.53.45c-1,.22-2.09.33-3.14.5l-6.41.93-3.48.51v-.3a39.28,39.28,0,0,0,8.09.26,37.51,37.51,0,0,1,4-.13,5.75,5.75,0,0,1,2,.35,1.52,1.52,0,0,1,.79.67,1.73,1.73,0,0,1,.12,1,.72.72,0,0,1-.33.44,2.7,2.7,0,0,1-.44.24,6,6,0,0,1-.91.29,17,17,0,0,1-1.84.35c-1.23.18-2.44.29-3.64.38l-1.78.13c-.57,0-1.16.13-1.74.15-1.16.07-2.29.13-3.41.17l0-.26a15.19,15.19,0,0,0,3.77.64c1.27.05,2.49.14,3.69.24.6,0,1.19.11,1.78.18l.87.12a4,4,0,0,1,.44.11,2.24,2.24,0,0,1,.4.22.59.59,0,0,1,.26.42.83.83,0,0,1-.1.45,1.82,1.82,0,0,1-.22.36l-.13.17a.7.7,0,0,1-.19.15,5.31,5.31,0,0,1-1.61.38,57.07,57.07,0,0,1-6,.19l-1.36,0a11,11,0,0,0-1.29,0,9.79,9.79,0,0,0-2.37.38L92.63,243l-1.79.54-.46.13-.16,0,.15-.06.45-.15,1.78-.58c1.58-.49,3.86-1.22,6.76-2.14a16.1,16.1,0,0,1,5.07-.42,56.83,56.83,0,0,0,6-.22,5,5,0,0,0,1.52-.35.64.64,0,0,0,.13-.1l.12-.16a2.14,2.14,0,0,0,.2-.32.42.42,0,0,0-.1-.6,2.29,2.29,0,0,0-.35-.19,3.23,3.23,0,0,0-.39-.09c-.28-.05-.56-.08-.85-.12-.58-.07-1.17-.12-1.77-.17-1.19-.1-2.42-.18-3.67-.23a15.48,15.48,0,0,1-3.84-.63.13.13,0,0,1-.1-.16.12.12,0,0,1,.12-.1h0l3.4-.18c.58,0,1.14-.12,1.74-.16l1.77-.13c1.2-.09,2.4-.2,3.62-.38a16.5,16.5,0,0,0,1.81-.35,5.19,5.19,0,0,0,.87-.28c.25-.11.56-.28.6-.47a1.4,1.4,0,0,0-.11-.81,1.08,1.08,0,0,0-.63-.53,5.61,5.61,0,0,0-1.85-.32,37.21,37.21,0,0,0-3.93.13,39.32,39.32,0,0,1-8.16-.26.14.14,0,0,1-.13-.17.15.15,0,0,1,.13-.13h0l3.48-.51,6.41-.93c1.05-.17,2.11-.28,3.12-.49a8.63,8.63,0,0,0,1.47-.43,3,3,0,0,0,.64-.35.62.62,0,0,0,.3-.5c-.06-.41-.54-.66-1-.78a9.18,9.18,0,0,0-1.48-.27c-1-.11-2-.14-3-.15-2,0-3.94.08-5.84.21h0l-4.53.77a.14.14,0,0,1-.17-.11.11.11,0,0,1,0-.1l1.65-2.25a.12.12,0,0,1,.1-.06c2.18-.23,4.3-.45,6.29-.81.25-.05.49-.1.72-.17a2.65,2.65,0,0,0,.62-.33c.39-.25.68-.65.51-1.06a1.44,1.44,0,0,0-.94-.84,4,4,0,0,0-1.33-.19h0c-1.88,0-3.68-.06-5.37-.05-.85,0-1.68,0-2.47.11a1.33,1.33,0,0,0-.52.12l-.45.34-.88.7L92,229.51l-3.72,3c-.43.33-.75.59-1,.78Z" style="fill:#844031"></path><path d="M84.67,235.22c.08.09-4.73,4.12-10.74,9s-10.94,8.79-11,8.7,4.73-4.12,10.74-9S84.6,235.13,84.67,235.22Z" style="fill:#844031"></path><path d="M143.91,263.73c-.07,0-.32-1.14-1-2.93a55.29,55.29,0,0,0-3.06-6.81c-1.36-2.6-2.68-4.91-3.57-6.62-.45-.85-.8-1.55-1-2a4,4,0,0,1-.31-.78,2.94,2.94,0,0,1,.45.71l1.14,2c1,1.67,2.32,4,3.67,6.57a44.4,44.4,0,0,1,3,6.89,22.68,22.68,0,0,1,.58,2.2A3,3,0,0,1,143.91,263.73Z" style="fill:#844031"></path></g></svg>
